<?xml version="1.0" encoding="UTF-8"?>
<svg version="1.1" xmlns="http://www.w3.org/2000/svg" width="100" height="100">
<path d="M0 0 C6.94985141 6.50771375 9.38786293 14.82505449 9.79296875 24.1875 C9.41928044 32.82385195 5.53418062 41.4126047 -0.625 47.5 C-4.00021526 50.01647687 -6.99014897 50.55691693 -11.15625 50.29296875 C-14.80325977 49.37460941 -16.71507809 47.41402247 -19.3125 44.75 C-20.03953125 45.29140625 -20.03953125 45.29140625 -20.78125 45.84375 C-25.91089059 49.39503964 -29.07447843 50.65551926 -35.3125 49.75 C-39.30555623 47.86648291 -40.94816352 46.36937202 -43.1875 42.5625 C-45.73925266 33.91489376 -44.24257897 26.80483677 -40.3125 18.75 C-37.00320023 13.50471218 -33.40887999 10.43176 -27.3125 8.75 C-22.60379003 8.46244519 -20.04400944 9.14300281 -16.375 12.1875 C-14.3125 14.75 -14.3125 14.75 -13.3125 16.75 C-12.6525 16.09 -11.9925 15.43 -11.3125 14.75 C-8.75 14.5625 -8.75 14.5625 -6.3125 14.75 C-5.3125 15.75 -5.3125 15.75 -4.875 19.0625 C-4.91417595 26.27087571 -9.4251724 32.9190086 -13.3125 38.75 C-12.99743373 41.89221967 -12.99743373 41.89221967 -12.3125 44.75 C-9.52311788 45.16890218 -9.52311788 45.16890218 -6.3125 44.75 C-3.54180256 42.56268079 -3.54180256 42.56268079 -1.3125 39.75 C-0.755625 39.110625 -0.19875 38.47125 0.375 37.8125 C4.47814221 31.3647051 4.41177909 24.12528101 3.6875 16.75 C1.76475949 9.9807641 -1.69697311 4.16410033 -7.8125 0.5 C-15.68212638 -3.43481319 -25.94809901 -3.66133243 -34.4453125 -1.42578125 C-36.81625062 -0.47386729 -39.05732652 0.5524854 -41.3125 1.75 C-42.37210938 2.18699219 -42.37210938 2.18699219 -43.453125 2.6328125 C-45.78812679 4.03577576 -46.25105535 5.27482088 -47.3125 7.75 C-48.13468416 9.02807473 -48.96833944 10.29883282 -49.8125 11.5625 C-55.05863158 20.02749698 -55.87931086 29.91044842 -53.66015625 39.59765625 C-50.71358452 47.77976744 -45.86641581 53.69707948 -38.125 57.6875 C-29.18737067 61.83962701 -18.99926313 62.27410897 -9.5625 59.3125 C2.37919377 54.23728015 7.81062021 45.10247183 12.6875 33.75 C14.1725 34.245 14.1725 34.245 15.6875 34.75 C14.65034712 41.43731408 12.62509957 46.26634906 8.6875 51.75 C7.82125 53.049375 7.82125 53.049375 6.9375 54.375 C-0.52990025 62.25725582 -9.4829733 65.73538809 -20.21264648 66.1015625 C-32.75289951 66.24153044 -41.06267331 63.51057458 -50.22265625 54.96875 C-57.99586699 46.91497751 -59.92656082 37.90246355 -59.78320312 27.02758789 C-59.34570126 16.61946508 -55.68487646 8.18019902 -48.3125 0.75 C-34.15165703 -10.74643349 -14.368387 -11.58996962 0 0 Z M-33.3125 16.75 C-38.3425312 23.49405074 -40.89656578 29.28104618 -40.3125 37.75 C-38.73525698 41.73066095 -37.90249089 43.35667274 -34.3125 45.75 C-29.0946039 45.75 -25.09546581 44.28791989 -21.04296875 41.09765625 C-17.26509809 35.97237348 -17.10455889 28.91627661 -16.3125 22.75 C-16.00791093 21.40980808 -15.69232725 20.0708407 -15.3125 18.75 C-16.3025 18.75 -17.2925 18.75 -18.3125 18.75 C-18.580625 18.13125 -18.84875 17.5125 -19.125 16.875 C-20.26806848 14.4504767 -20.26806848 14.4504767 -23.3125 12.75 C-27.44947873 12.75 -30.19787457 14.15557628 -33.3125 16.75 Z M-10.3125 19.75 C-12.03065438 22.00167846 -12.03065438 22.00167846 -13.3125 24.75 C-12.9825 26.07 -12.6525 27.39 -12.3125 28.75 C-11.3225 25.78 -10.3325 22.81 -9.3125 19.75 C-9.6425 19.75 -9.9725 19.75 -10.3125 19.75 Z M-14.3125 28.75 C-13.3125 30.75 -13.3125 30.75 -13.3125 30.75 Z " fill="#000000" transform="translate(72.3125,20.25)"/>
</svg>
