<?xml version="1.0" encoding="UTF-8"?>
<svg version="1.1" xmlns="http://www.w3.org/2000/svg" width="100" height="100">
<path d="M0 0 C1.29550781 -0.0009668 1.29550781 -0.0009668 2.6171875 -0.00195312 C3.95136719 0.02801758 3.95136719 0.02801758 5.3125 0.05859375 C6.64667969 0.04795898 6.64667969 0.04795898 8.0078125 0.03710938 C12.86629521 0.08424391 16.49766391 0.17914987 20.3125 3.49609375 C20.8075 4.53507812 21.3025 5.5740625 21.8125 6.64453125 C23.99186632 9.7198863 23.99186632 9.7198863 26.99609375 10.00878906 C30.44566766 10.16925844 33.85970923 10.18101203 37.3125 10.12109375 C39.66654117 10.09556185 42.02084436 10.08702801 44.375 10.09765625 C45.41785156 10.08041504 46.46070313 10.06317383 47.53515625 10.04541016 C51.01572049 10.61020636 52.160448 11.76362067 54.3125 14.49609375 C54.4775 15.19734375 54.6425 15.89859375 54.8125 16.62109375 C54.9775 17.23984375 55.1425 17.85859375 55.3125 18.49609375 C55.93125 18.80546875 56.55 19.11484375 57.1875 19.43359375 C60.1997113 20.9396994 60.88249072 22.44675002 62.3125 25.49609375 C62.58105618 28.37801924 62.69250606 30.99887888 62.625 33.87109375 C62.61299561 34.65895264 62.60099121 35.44681152 62.58862305 36.25854492 C62.11410827 56.34768323 62.11410827 56.34768323 57.91796875 61.3515625 C54.31214139 64.31947737 51.73891585 64.62344281 47.21777344 64.65722656 C46.17949402 64.66683411 45.1412146 64.67644165 44.07147217 64.68634033 C42.9496051 64.69059021 41.82773804 64.69484009 40.671875 64.69921875 C39.51633118 64.70491882 38.36078735 64.7106189 37.17022705 64.7164917 C34.72238074 64.72594444 32.27452169 64.73247676 29.82666016 64.73632812 C26.09124367 64.74601918 22.35638073 64.77703489 18.62109375 64.80859375 C16.24219077 64.81512534 13.86328385 64.8203752 11.484375 64.82421875 C10.37060486 64.83656555 9.25683472 64.84891235 8.10931396 64.8616333 C2.10973342 64.84449986 -2.48802632 64.63563275 -7.6875 61.49609375 C-9.7006561 58.40727513 -9.951787 55.8836909 -9.99389648 52.24023438 C-10.00988388 51.19234741 -10.02587128 50.14446045 -10.04234314 49.06481934 C-10.04770584 47.93870239 -10.05306854 46.81258545 -10.05859375 45.65234375 C-10.06762222 44.49109985 -10.0766507 43.32985596 -10.08595276 42.13342285 C-10.10045553 39.67898132 -10.10934205 37.22450113 -10.11303711 34.77001953 C-10.12495565 31.01008408 -10.17416324 27.25177769 -10.22460938 23.4921875 C-10.23407091 21.10808094 -10.24130723 18.72396428 -10.24609375 16.33984375 C-10.26562607 15.21372681 -10.28515839 14.08760986 -10.30528259 12.92736816 C-10.26039669 5.1883985 -10.26039669 5.1883985 -7.44555664 1.78686523 C-4.69576619 0.49996233 -3.00989731 -0.00715162 0 0 Z M-5.6875 6.49609375 C-6.14566184 8.69068403 -6.14566184 8.69068403 -6.07568359 11.26538086 C-6.08514008 12.25658432 -6.09459656 13.24778778 -6.1043396 14.26902771 C-6.09826691 15.34298294 -6.09219421 16.41693817 -6.0859375 17.5234375 C-6.08880768 18.62329483 -6.09167786 19.72315216 -6.09463501 20.8563385 C-6.09667935 23.18572503 -6.09112375 25.51512859 -6.07861328 27.84448242 C-6.06258082 31.41559188 -6.07844236 34.98556681 -6.09765625 38.55664062 C-6.09567358 40.81640876 -6.09182943 43.07617618 -6.0859375 45.3359375 C-6.09201019 46.4078685 -6.09808289 47.4797995 -6.1043396 48.58421326 C-6.09488312 49.57856888 -6.08542664 50.5729245 -6.07568359 51.59741211 C-6.07329681 52.47296249 -6.07091003 53.34851288 -6.06845093 54.25059509 C-5.60002246 57.01172628 -4.9352365 57.85974842 -2.6875 59.49609375 C0.26674157 60.56049788 3.06336558 60.62729958 6.18530273 60.64135742 C7.149879 60.64773727 8.11445526 60.65411713 9.10826111 60.66069031 C10.14374588 60.66180313 11.17923065 60.66291595 12.24609375 60.6640625 C13.31618179 60.6673909 14.38626984 60.6707193 15.48878479 60.67414856 C17.75073822 60.67920863 20.01269911 60.68155717 22.2746582 60.68139648 C25.73336076 60.68358323 29.19174447 60.70174962 32.65039062 60.72070312 C34.84895724 60.72363718 37.04752538 60.72562189 39.24609375 60.7265625 C40.27955429 60.73374802 41.31301483 60.74093353 42.37779236 60.74833679 C43.34552078 60.74526016 44.31324921 60.74218353 45.31030273 60.73901367 C46.15761459 60.74043869 47.00492645 60.74186371 47.87791443 60.74333191 C50.69567459 60.45718143 52.78981693 59.77923009 55.3125 58.49609375 C57.34788805 54.26098853 57.55045824 50.43354145 57.5078125 45.78515625 C57.49814453 43.91923828 57.49814453 43.91923828 57.48828125 42.015625 C57.47152344 40.73042969 57.45476562 39.44523437 57.4375 38.12109375 C57.42847656 36.81269531 57.41945312 35.50429688 57.41015625 34.15625 C57.38665085 30.93601005 57.35379087 27.71614668 57.3125 24.49609375 C56.6525 24.16609375 55.9925 23.83609375 55.3125 23.49609375 C54.9825 27.78609375 54.6525 32.07609375 54.3125 36.49609375 C53.3225 36.82609375 52.3325 37.15609375 51.3125 37.49609375 C51.3125 32.54609375 51.3125 27.59609375 51.3125 22.49609375 C43.7225 22.49609375 36.1325 22.49609375 28.3125 22.49609375 C28.3125 25.79609375 28.3125 29.09609375 28.3125 32.49609375 C29.3025 32.49609375 30.2925 32.49609375 31.3125 32.49609375 C31.456875 33.60984375 31.60125 34.72359375 31.75 35.87109375 C32.09622035 39.31751422 32.09622035 39.31751422 33.3125 41.49609375 C33.66544118 47.96668199 33.66544118 47.96668199 31.3125 51.49609375 C27.84104767 52.33181376 25.35600124 52.85308102 21.9375 51.68359375 C20.3125 50.49609375 20.3125 50.49609375 19.3125 48.49609375 C19.04881516 43.83766162 19.50721799 40.74381614 21.3125 36.49609375 C21.4775 35.25859375 21.6425 34.02109375 21.8125 32.74609375 C21.9775 31.67359375 22.1425 30.60109375 22.3125 29.49609375 C22.9725 29.16609375 23.6325 28.83609375 24.3125 28.49609375 C24.6425 25.19609375 24.9725 21.89609375 25.3125 18.49609375 C33.5625 18.49609375 41.8125 18.49609375 50.3125 18.49609375 C49.6525 17.17609375 48.9925 15.85609375 48.3125 14.49609375 C47.57612305 14.4710376 46.83974609 14.44598145 46.08105469 14.42016602 C42.74136622 14.30405102 39.40194903 14.18139457 36.0625 14.05859375 C34.90363281 14.01927734 33.74476562 13.97996094 32.55078125 13.93945312 C31.43574219 13.89755859 30.32070313 13.85566406 29.171875 13.8125 C28.14545898 13.77584229 27.11904297 13.73918457 26.06152344 13.70141602 C21.53340005 13.36321426 21.53340005 13.36321426 19.3125 12.49609375 C18.59543018 10.5136066 17.92959587 8.51194026 17.3125 6.49609375 C13.46307491 3.92981036 10.26952113 4.20144913 5.8125 4.24609375 C5.04035156 4.23835938 4.26820312 4.230625 3.47265625 4.22265625 C-0.42381468 4.23616222 -2.37737247 4.28934206 -5.6875 6.49609375 Z M25.3125 32.49609375 C24.17198394 37.47893091 23.09024134 42.44077507 22.3125 47.49609375 C24.64104463 48.69447584 24.64104463 48.69447584 27.3125 49.49609375 C28.3025 48.83609375 29.2925 48.17609375 30.3125 47.49609375 C29.53475866 42.44077507 28.45301606 37.47893091 27.3125 32.49609375 C26.6525 32.49609375 25.9925 32.49609375 25.3125 32.49609375 Z " fill="#000000" transform="translate(23.6875,17.50390625)"/>
</svg>
