<?xml version="1.0" encoding="UTF-8"?>
<svg version="1.1" xmlns="http://www.w3.org/2000/svg" width="100" height="100">
<path d="M0 0 C0.73513824 -0.0049649 1.47027649 -0.00992981 2.22769165 -0.01504517 C4.66498747 -0.02967643 7.10221822 -0.03647034 9.53955078 -0.04199219 C11.23104861 -0.04774282 12.92254641 -0.05350056 14.61404419 -0.05926514 C18.16327214 -0.06977785 21.71247742 -0.07561875 25.26171875 -0.07910156 C29.81042804 -0.08458708 34.35883811 -0.10861504 38.90745354 -0.13707352 C42.40244422 -0.15569391 45.89736274 -0.16090517 49.39239883 -0.16243744 C51.06934368 -0.16546583 52.7462872 -0.17350065 54.42318344 -0.18662262 C56.76933326 -0.20367106 59.11475093 -0.20180614 61.4609375 -0.1953125 C62.15407043 -0.20452728 62.84720337 -0.21374207 63.56134033 -0.22323608 C66.57197654 -0.19712316 68.60719177 0.02060374 71.25979614 1.49591064 C73.82548299 4.16607273 73.99791425 6.74932026 73.98486328 10.28613281 C73.85986328 14.16113281 73.85986328 14.16113281 72.85986328 15.16113281 C70.26627006 15.2496481 67.69946637 15.27639226 65.10595703 15.25878906 C64.33051041 15.25737411 63.55506378 15.25595917 62.75611877 15.25450134 C60.26982834 15.24888627 57.78362668 15.23633128 55.29736328 15.22363281 C53.61572395 15.21861975 51.93408322 15.21405651 50.25244141 15.20996094 C46.12154762 15.19891194 41.99072052 15.18163726 37.85986328 15.16113281 C37.85986328 16.81113281 37.85986328 18.46113281 37.85986328 20.16113281 C38.67253662 20.155896 39.48520996 20.15065918 40.32250977 20.14526367 C43.9807865 20.12456287 47.63905095 20.11149478 51.29736328 20.09863281 C52.57675781 20.09025391 53.85615234 20.081875 55.17431641 20.07324219 C56.99672852 20.0684082 56.99672852 20.0684082 58.85595703 20.06347656 C59.98187256 20.05823975 61.10778809 20.05300293 62.26782227 20.04760742 C64.85986328 20.16113281 64.85986328 20.16113281 65.85986328 21.16113281 C65.95810265 22.82542333 65.98959959 24.49395212 65.98486328 26.16113281 C65.98873047 27.52238281 65.98873047 27.52238281 65.99267578 28.91113281 C65.85986328 31.16113281 65.85986328 31.16113281 64.85986328 32.16113281 C62.86021346 32.24871284 60.85750218 32.26809857 58.85595703 32.25878906 C57.64101562 32.25556641 56.42607422 32.25234375 55.17431641 32.24902344 C53.89492187 32.24064453 52.61552734 32.23226562 51.29736328 32.22363281 C50.01410156 32.21912109 48.73083984 32.21460938 47.40869141 32.20996094 C44.22570306 32.19812827 41.04280566 32.1816435 37.85986328 32.16113281 C37.85986328 32.82113281 37.85986328 33.48113281 37.85986328 34.16113281 C38.67253662 34.155896 39.48520996 34.15065918 40.32250977 34.14526367 C43.9807865 34.12456287 47.63905095 34.11149478 51.29736328 34.09863281 C52.57675781 34.09025391 53.85615234 34.081875 55.17431641 34.07324219 C56.38925781 34.07001953 57.60419922 34.06679688 58.85595703 34.06347656 C59.98187256 34.05823975 61.10778809 34.05300293 62.26782227 34.04760742 C64.85986328 34.16113281 64.85986328 34.16113281 65.85986328 35.16113281 C65.95810265 36.82542333 65.98959959 38.49395212 65.98486328 40.16113281 C65.98873047 41.52238281 65.98873047 41.52238281 65.99267578 42.91113281 C65.85986328 45.16113281 65.85986328 45.16113281 64.85986328 46.16113281 C62.86021346 46.24871284 60.85750218 46.26809857 58.85595703 46.25878906 C57.64101562 46.25556641 56.42607422 46.25234375 55.17431641 46.24902344 C53.89492187 46.24064453 52.61552734 46.23226562 51.29736328 46.22363281 C50.01410156 46.21912109 48.73083984 46.21460938 47.40869141 46.20996094 C44.22570306 46.19812827 41.04280566 46.1816435 37.85986328 46.16113281 C37.85986328 46.82113281 37.85986328 47.48113281 37.85986328 48.16113281 C38.67253662 48.155896 39.48520996 48.15065918 40.32250977 48.14526367 C43.9807865 48.12456287 47.63905095 48.11149478 51.29736328 48.09863281 C52.57675781 48.09025391 53.85615234 48.081875 55.17431641 48.07324219 C56.38925781 48.07001953 57.60419922 48.06679688 58.85595703 48.06347656 C59.98187256 48.05823975 61.10778809 48.05300293 62.26782227 48.04760742 C64.85986328 48.16113281 64.85986328 48.16113281 65.85986328 49.16113281 C65.95810265 50.82542333 65.98959959 52.49395212 65.98486328 54.16113281 C65.98873047 55.52238281 65.98873047 55.52238281 65.99267578 56.91113281 C65.85986328 59.16113281 65.85986328 59.16113281 64.85986328 60.16113281 C62.74848427 60.26061474 60.63374042 60.28912919 58.52001953 60.29052734 C57.52734573 60.29315582 57.52734573 60.29315582 56.51461792 60.2958374 C54.31717338 60.30025498 52.1198087 60.29731828 49.92236328 60.29394531 C48.40161117 60.29461838 46.88085916 60.29558843 45.36010742 60.29684448 C42.16893492 60.29832133 38.97779036 60.29616733 35.78662109 60.29150391 C31.68721798 60.28580662 27.58788033 60.28908569 23.48847961 60.29507637 C20.34704084 60.29868235 17.2056177 60.29754323 14.06417847 60.29494858 C12.55223584 60.29427941 11.04029182 60.29510738 9.52835083 60.29742813 C7.41876441 60.29995527 5.30928541 60.29611325 3.19970703 60.29052734 C1.99693115 60.28973175 0.79415527 60.28893616 -0.44506836 60.28811646 C-3.14013672 60.16113281 -3.14013672 60.16113281 -4.14013672 59.16113281 C-4.24116927 56.36119684 -4.2798376 53.58644638 -4.27294922 50.78613281 C-4.27390594 49.94646973 -4.27486267 49.10680664 -4.27584839 48.24169922 C-4.27653019 46.46288986 -4.27467588 44.68407804 -4.27050781 42.90527344 C-4.26515955 40.17279505 -4.27045277 37.44048105 -4.27685547 34.70800781 C-4.27619469 32.98404911 -4.27491352 31.26009052 -4.27294922 29.53613281 C-4.27598557 28.3017749 -4.27598557 28.3017749 -4.27908325 27.04248047 C-4.25508726 21.27608336 -4.25508726 21.27608336 -3.14013672 20.16113281 C-0.69183245 20.07269488 1.72806927 20.0458453 4.17626953 20.06347656 C4.90732407 20.06489151 5.6383786 20.06630646 6.3915863 20.06776428 C8.7352196 20.07337873 11.07875867 20.0859336 13.42236328 20.09863281 C15.00764836 20.10364596 16.59293494 20.10820918 18.17822266 20.11230469 C22.07216871 20.1225036 25.96591005 20.14207595 29.85986328 20.16113281 C29.85986328 30.72113281 29.85986328 41.28113281 29.85986328 52.16113281 C28.53986328 52.16113281 27.21986328 52.16113281 25.85986328 52.16113281 C25.85986328 42.92113281 25.85986328 33.68113281 25.85986328 24.16113281 C17.27986328 24.16113281 8.69986328 24.16113281 -0.14013672 24.16113281 C-0.14013672 34.72113281 -0.14013672 45.28113281 -0.14013672 56.16113281 C20.31986328 56.16113281 40.77986328 56.16113281 61.85986328 56.16113281 C61.85986328 54.84113281 61.85986328 53.52113281 61.85986328 52.16113281 C52.61986328 52.16113281 43.37986328 52.16113281 33.85986328 52.16113281 C33.85986328 48.86113281 33.85986328 45.56113281 33.85986328 42.16113281 C43.09986328 42.16113281 52.33986328 42.16113281 61.85986328 42.16113281 C61.85986328 40.84113281 61.85986328 39.52113281 61.85986328 38.16113281 C52.61986328 38.16113281 43.37986328 38.16113281 33.85986328 38.16113281 C33.85986328 34.86113281 33.85986328 31.56113281 33.85986328 28.16113281 C43.09986328 28.16113281 52.33986328 28.16113281 61.85986328 28.16113281 C61.85986328 26.84113281 61.85986328 25.52113281 61.85986328 24.16113281 C52.61986328 24.16113281 43.37986328 24.16113281 33.85986328 24.16113281 C33.85986328 19.87113281 33.85986328 15.58113281 33.85986328 11.16113281 C45.73986328 11.16113281 57.61986328 11.16113281 69.85986328 11.16113281 C68.86986328 8.19113281 68.86986328 8.19113281 67.85986328 5.16113281 C53.66986328 4.83113281 39.47986328 4.50113281 24.85986328 4.16113281 C24.85986328 6.14113281 24.85986328 8.12113281 24.85986328 10.16113281 C23.79736328 12.03613281 23.79736328 12.03613281 21.85986328 13.16113281 C15.95031554 13.79429864 15.95031554 13.79429864 12.92236328 12.03613281 C11.41501465 9.37610582 11.66000075 7.15907077 11.85986328 4.16113281 C10.86986328 4.65613281 10.86986328 4.65613281 9.85986328 5.16113281 C9.71548828 5.94488281 9.57111328 6.72863281 9.42236328 7.53613281 C8.78626304 10.50460061 8.38918804 11.503989 5.85986328 13.16113281 C2.19224122 13.7073744 0.53398748 13.6401158 -2.51513672 11.47363281 C-4.41271676 8.77323044 -4.49895885 7.390532 -4.14013672 4.16113281 C-5.13013672 4.65613281 -5.13013672 4.65613281 -6.14013672 5.16113281 C-7.16848322 8.2461723 -7.26690485 10.3624554 -7.26953125 13.59472656 C-7.27268341 14.705979 -7.27583557 15.81723145 -7.27908325 16.9621582 C-7.27705902 18.16219482 -7.27503479 19.36223145 -7.27294922 20.59863281 C-7.27438431 22.44606079 -7.27438431 22.44606079 -7.27584839 24.33081055 C-7.27670387 27.60446937 -7.27267526 30.87808086 -7.26708984 34.1517334 C-7.26513868 36.15911368 -7.26708288 38.16645025 -7.27050781 40.17382812 C-7.27667305 44.02378377 -7.27593988 47.8736745 -7.27294922 51.72363281 C-7.27497345 52.92366943 -7.27699768 54.12370605 -7.27908325 55.36010742 C-7.27593109 56.47135986 -7.27277893 57.5826123 -7.26953125 58.72753906 C-7.26873566 59.7066626 -7.26794006 60.68578613 -7.26712036 61.69458008 C-7.24320999 64.29696931 -7.24320999 64.29696931 -6.14013672 67.16113281 C18.27986328 67.16113281 42.69986328 67.16113281 67.85986328 67.16113281 C68.78043043 64.39943137 69.00786477 62.63934426 69.06518555 59.78149414 C69.08513077 58.90080765 69.10507599 58.02012115 69.12562561 57.11274719 C69.1423381 56.16578476 69.1590506 55.21882233 69.17626953 54.24316406 C69.20744118 52.78459236 69.20744118 52.78459236 69.23924255 51.29655457 C69.30465076 48.18898616 69.36358257 45.08133296 69.42236328 41.97363281 C69.46555679 39.86750424 69.50917135 37.76138425 69.55322266 35.65527344 C69.66032327 30.4906469 69.76161547 25.32593503 69.85986328 20.16113281 C71.83986328 20.65613281 71.83986328 20.65613281 73.85986328 21.16113281 C73.93600988 27.47819283 73.9885036 33.7951342 74.0246582 40.11254883 C74.03973243 42.26103132 74.06019517 44.40948311 74.08618164 46.55786133 C74.12262442 49.64835189 74.13960347 52.73843512 74.15283203 55.82910156 C74.16831589 56.7876152 74.18379974 57.74612885 74.19975281 58.73368835 C74.20099435 63.66800602 74.17779854 67.2029031 70.85986328 71.16113281 C67.91887822 72.63162534 64.94433849 72.31709529 61.71972656 72.32226562 C60.6170192 72.32971298 60.6170192 72.32971298 59.49203491 72.33731079 C57.05473909 72.35194206 54.61750835 72.35873597 52.18017578 72.36425781 C50.48867795 72.37000845 48.79718015 72.37576619 47.10568237 72.38153076 C43.55645442 72.39204348 40.00724915 72.39788438 36.45800781 72.40136719 C31.90929852 72.4068527 27.36088845 72.43088066 22.81227303 72.45933914 C19.31728234 72.47795953 15.82236383 72.4831708 12.32732773 72.48470306 C10.65038288 72.48773145 8.97343936 72.49576628 7.29654312 72.50888824 C4.95039331 72.52593668 2.60497563 72.52407176 0.25878906 72.51757812 C-0.43434387 72.52679291 -1.12747681 72.53600769 -1.84161377 72.54550171 C-4.85224997 72.51938878 -6.88746521 72.30166188 -9.54006958 70.82635498 C-12.52138465 67.72364021 -12.27456121 64.47637452 -12.30126953 60.39208984 C-12.31087708 59.20720978 -12.32048462 58.02232971 -12.3303833 56.80154419 C-12.33463318 55.52028656 -12.33888306 54.23902893 -12.34326172 52.91894531 C-12.34896179 51.60328583 -12.35466187 50.28762634 -12.36053467 48.93209839 C-12.37103391 46.14629734 -12.37688364 43.36052507 -12.38037109 40.57470703 C-12.38585428 37.01145023 -12.40988254 33.44857585 -12.43834305 29.88543892 C-12.46148715 26.4799484 -12.46342009 23.07451041 -12.46826172 19.66894531 C-12.48060852 18.39173615 -12.49295532 17.11452698 -12.50567627 15.7986145 C-12.50267517 14.60743011 -12.49967407 13.41624573 -12.49658203 12.18896484 C-12.50022766 11.14322296 -12.50387329 10.09748108 -12.50762939 9.02005005 C-12.08273119 5.71454522 -11.09991373 3.83383758 -9.14013672 1.16113281 C-6.19915166 -0.30935972 -3.22461193 0.00517033 0 0 Z M0.85986328 4.16113281 C0.85986328 5.48113281 0.85986328 6.80113281 0.85986328 8.16113281 C2.17986328 8.16113281 3.49986328 8.16113281 4.85986328 8.16113281 C4.85986328 6.84113281 4.85986328 5.52113281 4.85986328 4.16113281 C3.53986328 4.16113281 2.21986328 4.16113281 0.85986328 4.16113281 Z M16.85986328 4.16113281 C16.52986328 5.48113281 16.19986328 6.80113281 15.85986328 8.16113281 C17.17986328 8.49113281 18.49986328 8.82113281 19.85986328 9.16113281 C20.18986328 7.84113281 20.51986328 6.52113281 20.85986328 5.16113281 C19.53986328 4.83113281 18.21986328 4.50113281 16.85986328 4.16113281 Z " fill="#000000" transform="translate(19.14013671875,13.8388671875)"/>
</svg>
