<?xml version="1.0" encoding="UTF-8"?>
<svg version="1.1" xmlns="http://www.w3.org/2000/svg" width="100" height="100">
<path d="M0 0 C4.87114275 3.08174338 7.56007558 6.97565733 10.60546875 11.81640625 C11.96550918 14.03796942 11.96550918 14.03796942 13.67578125 16.05859375 C15 18 15 18 15 21.5 C13.81217892 25.65737378 12.65380262 26.790724 9 29 C7.67566879 29.36747208 6.34297461 29.7079245 5 30 C4.75765625 29.32453125 4.5153125 28.6490625 4.265625 27.953125 C1.3803171 20.09429579 1.3803171 20.09429579 -5 15 C-9.82099665 14.41183841 -13.16764843 14.55409737 -17.5 16.875 C-20.03939918 18.75224663 -20.03939918 18.75224663 -21 21 C-21.38313952 27.77634072 -21.38313952 27.77634072 -19 34 C-15.63412672 35.62060565 -11.65568465 35.26112033 -8 35 C-5.46041766 34.11670357 -5.46041766 34.11670357 -4 32 C-3.64859435 28.1345378 -3.81461463 24.70432927 -5 21 C-3.68 21 -2.36 21 -1 21 C1.45993942 23.45993942 1.34992473 24.35001885 1.4375 27.75 C1.37818703 31.47593308 1.013235 33.66702925 -1.375 36.5625 C-5.61096216 40.49589343 -8.60884705 40.34361306 -14.234375 40.27734375 C-18.13698363 39.88598046 -20.17241898 38.68620197 -23 36 C-26.56008567 31.01588006 -26.7235923 25.9175973 -26 20 C-24.27287818 15.81854716 -21.67892389 13.57524672 -18 11 C-11.97662369 8.9922079 -5.26053591 8.95046547 0.5 11.625 C3.25193264 14.23933601 5.19096414 16.6602415 7 20 C7 21.32 7 22.64 7 24 C7.99 23.01 8.98 22.02 10 21 C7.94598518 17.54975154 5.87879612 14.11502485 3.6875 10.75 C2.85798828 9.44289063 2.85798828 9.44289063 2.01171875 8.109375 C-0.62103928 5.34881319 -2.22480527 5.09569568 -6 5 C-7.68667137 5.61429789 -9.35421606 6.28332892 -11 7 C-14.12121598 7.35258922 -17.21888909 7.50154817 -20.35546875 7.65625 C-23.15318892 7.74648153 -23.15318892 7.74648153 -25 10 C-25.433125 11.2375 -25.86625 12.475 -26.3125 13.75 C-27.3721224 16.77593202 -28.49837877 18.78746377 -30.6875 21.125 C-33.19317533 23.80761874 -33.19317533 23.80761874 -33.6875 27.0625 C-32.86315154 30.58471613 -31.45029358 31.51684618 -28.578125 33.5703125 C-26.67392594 35.29540373 -25.98981461 36.89289911 -25 39.25 C-23.52733016 42.56420838 -23.52733016 42.56420838 -20.1875 44.125 C-16.93272208 44.13105369 -16.93272208 44.13105369 -13.6875 43 C-7.92512069 41.43732087 -2.69706801 42.49535676 3 44 C2.505 43.1646875 2.505 43.1646875 2 42.3125 C0.83196398 39.61141671 0.62632976 37.91462786 1 35 C2.0625 33.125 2.0625 33.125 4 32 C7.625 32.1875 7.625 32.1875 11 33 C12.69275187 36.38550374 12.49070314 40.41549813 11.37963867 44.00317383 C10.89265444 46.56461695 11.43720921 47.38959026 12.80078125 49.57421875 C13.20047119 50.23808594 13.60016113 50.90195312 14.01196289 51.5859375 C14.44114014 52.27945313 14.87031738 52.97296875 15.3125 53.6875 C18.72512709 59.43014563 21.15991636 64.27933091 22 71 C17.81939174 72.39353609 15.92511377 70.75228293 12 69 C11.01 69 10.02 69 9 69 C8.01 71.31 7.02 73.62 6 76 C3.796875 76.0234375 3.796875 76.0234375 1 75 C-0.97340194 72.40971572 -2.33190945 69.54712598 -3.75 66.625 C-4.14832031 65.84382813 -4.54664063 65.06265625 -4.95703125 64.2578125 C-6.50584187 61.1916925 -7.91204575 58.26386276 -9 55 C-14.3068539 58.9115511 -17.31975917 63.19331845 -20.6875 68.8125 C-21.61898376 70.36666731 -22.55993081 71.91521488 -23.51171875 73.45703125 C-23.91865967 74.13741455 -24.32560059 74.81779785 -24.74487305 75.51879883 C-25.36616089 76.25199341 -25.36616089 76.25199341 -26 77 C-26.99 77 -27.98 77 -29 77 C-29.99 74.69 -30.98 72.38 -32 70 C-35.63 70 -39.26 70 -43 70 C-42.69650318 61.80558598 -39.31320043 55.90413197 -34.05078125 49.703125 C-32 48 -32 48 -28 48 C-28.60787167 51.36205563 -29.8167264 53.34514405 -31.9375 56 C-33.98365252 58.57402971 -35.61884896 61.0108422 -37 64 C-34.69 64 -32.38 64 -30 64 C-29.34 65.65 -28.68 67.3 -28 69 C-27.34 69 -26.68 69 -26 69 C-25.76152344 68.30132812 -25.52304687 67.60265625 -25.27734375 66.8828125 C-23.76915301 63.47900586 -21.82000577 60.83311101 -19.5625 57.875 C-18.78003906 56.84117188 -17.99757813 55.80734375 -17.19140625 54.7421875 C-16.46824219 53.83726563 -15.74507812 52.93234375 -15 52 C-14.51402344 51.36320312 -14.02804688 50.72640625 -13.52734375 50.0703125 C-12 49 -12 49 -9.60546875 48.8515625 C-5.63106675 50.60339786 -4.33890155 53.66050585 -2.3125 57.375 C-1.5379916 58.73711064 -0.76326004 60.09909443 0.01171875 61.4609375 C0.34647217 62.06728027 0.68122559 62.67362305 1.02612305 63.29833984 C1.94723752 64.90780785 2.971358 66.45703701 4 68 C4.66 66.68 5.32 65.36 6 64 C12.75 63.875 12.75 63.875 15 65 C14.50628906 64.02417969 14.01257813 63.04835937 13.50390625 62.04296875 C12.85666469 60.75786595 12.20953512 59.47270675 11.5625 58.1875 C11.23701172 57.54490234 10.91152344 56.90230469 10.57617188 56.24023438 C9.20767324 53.51734534 7.96516735 50.89550206 7 48 C6.43152344 48.01160156 5.86304688 48.02320313 5.27734375 48.03515625 C1.49922545 48.07930788 -1.94651159 48.00906583 -5.6875 47.375 C-9.45968695 46.94795997 -11.45174922 47.76897422 -15 49 C-19.36952655 49.44967943 -23.27226478 49.5276595 -27 47 C-28.52734375 44.57421875 -28.52734375 44.57421875 -29.9375 41.6875 C-31.73275538 38.16551044 -32.92316906 36.07014999 -35.875 33.375 C-38.63263478 30.2929376 -38.77638614 28.3082813 -38.5625 24.2578125 C-37.73555105 20.93853131 -35.89060684 19.20310684 -33.515625 16.828125 C-31.74540698 14.69291358 -31.1753391 12.90965256 -30.4375 10.25 C-29.56632773 7.3559362 -29.17916874 6.17916874 -27 4 C-23.21444777 2.73814926 -19.61376169 2.50505095 -15.64453125 2.25 C-10.00994509 1.71733602 -5.84489482 -0.73061185 0 0 Z M6 36 C5.67 36.66 5.34 37.32 5 38 C5.33 38.66 5.66 39.32 6 40 C6.66 40 7.32 40 8 40 C7.67 38.68 7.34 37.36 7 36 C6.67 36 6.34 36 6 36 Z " fill="#000000" transform="translate(60,13)"/>
</svg>
