<?xml version="1.0" encoding="UTF-8"?>
<svg version="1.1" xmlns="http://www.w3.org/2000/svg" width="100" height="100">
<path d="M0 0 C6.27 0 12.54 0 19 0 C19 25.41 19 50.82 19 77 C17.02 76.505 17.02 76.505 15 76 C15 52.24 15 28.48 15 4 C11.37 4 7.74 4 4 4 C4.00222061 4.89980087 4.00444122 5.79960175 4.00672913 6.72666931 C4.02672944 15.18813967 4.0419728 23.64960214 4.05181217 32.11109066 C4.05704065 36.46168459 4.06413765 40.81225907 4.07543945 45.1628418 C4.08626959 49.35790258 4.0922771 53.55294459 4.09487724 57.74801826 C4.09673126 59.35206968 4.10035144 60.95612003 4.10573006 62.5601635 C4.11294219 64.79916515 4.11399087 67.0380883 4.11352539 69.27709961 C4.115746 70.55395126 4.11796661 71.83080292 4.12025452 73.14634705 C4 76 4 76 3 77 C-0.63 77 -4.26 77 -8 77 C-8 66.11 -8 55.22 -8 44 C-11.96 44 -15.92 44 -20 44 C-20 54.89 -20 65.78 -20 77 C-23.63 77 -27.26 77 -31 77 C-32 76 -32 76 -32.12025452 73.90562439 C-32.1169236 72.52329369 -32.1169236 72.52329369 -32.11352539 71.11303711 C-32.11344986 70.07203354 -32.11337433 69.03102997 -32.11329651 67.95848083 C-32.10813522 66.8262056 -32.10297394 65.69393036 -32.09765625 64.52734375 C-32.0962413 63.37456436 -32.09482635 62.22178497 -32.09336853 61.03407288 C-32.08775005 57.33518936 -32.07519442 53.63636536 -32.0625 49.9375 C-32.05748738 47.43684983 -32.05292406 44.93619871 -32.04882812 42.43554688 C-32.03777462 36.29034149 -32.0204976 30.14518085 -32 24 C-35.63 24 -39.26 24 -43 24 C-43 41.16 -43 58.32 -43 76 C-44.98 76.495 -44.98 76.495 -47 77 C-47 58.19 -47 39.38 -47 20 C-40.73 20 -34.46 20 -28 20 C-28 37.49 -28 54.98 -28 73 C-26.68 73 -25.36 73 -24 73 C-24.00785522 71.55379272 -24.00785522 71.55379272 -24.01586914 70.07836914 C-24.03392118 66.51327436 -24.04543274 62.94818364 -24.05493164 59.38305664 C-24.0599714 57.83780234 -24.0668032 56.29255284 -24.07543945 54.74731445 C-24.08752076 52.53074971 -24.09323173 50.31424782 -24.09765625 48.09765625 C-24.10281754 47.4028566 -24.10797882 46.70805695 -24.11329651 45.99220276 C-24.11349277 44.3277067 -24.06189129 42.66334501 -24 41 C-22.4779041 39.4779041 -21.11789918 39.87040479 -19 39.8671875 C-18.195625 39.86589844 -17.39125 39.86460938 -16.5625 39.86328125 C-15.716875 39.86714844 -14.87125 39.87101562 -14 39.875 C-12.7315625 39.86919922 -12.7315625 39.86919922 -11.4375 39.86328125 C-10.633125 39.86457031 -9.82875 39.86585937 -9 39.8671875 C-8.2575 39.86831543 -7.515 39.86944336 -6.75 39.87060547 C-5 40 -5 40 -4 41 C-3.9116033 43.3756852 -3.88469695 45.72208674 -3.90234375 48.09765625 C-3.9037587 48.80651474 -3.90517365 49.51537323 -3.90663147 50.24571228 C-3.91224557 52.51801712 -3.92480037 54.79022475 -3.9375 57.0625 C-3.94251319 58.59960796 -3.94707641 60.13671745 -3.95117188 61.67382812 C-3.96221958 65.44925642 -3.97949359 69.22461171 -4 73 C-2.68 73 -1.36 73 0 73 C0 48.91 0 24.82 0 0 Z " fill="#000000" transform="translate(64,14)"/>
</svg>
