<svg xmlns="http://www.w3.org/2000/svg" width="100" height="100" viewBox="0 0 100 100" version="1.1"><path d="" stroke="none" fill="#080404" fill-rule="evenodd"/><path d="M 19.056 21.944 C 16.149 24.851, 15.799 28.625, 16.165 53.109 C 16.402 68.923, 16.876 76.158, 17.780 77.740 C 20.580 82.640, 22.913 83, 51.885 83 C 66.727 83, 80.001 82.570, 81.383 82.045 C 86.600 80.061, 87.426 77.115, 87.841 58.990 L 88.223 42.330 84.837 39.415 C 82.974 37.812, 80.849 35.312, 80.115 33.860 C 78.076 29.828, 74.975 29, 61.919 29 L 49.933 29 47.852 25.474 C 46.708 23.535, 44.953 21.510, 43.952 20.974 C 42.951 20.438, 37.377 20, 31.566 20 C 22.434 20, 20.736 20.264, 19.056 21.944 M 20.984 26.030 C 20.265 27.373, 19.999 35.960, 20.199 51.427 C 20.474 72.758, 20.666 74.978, 22.405 76.897 C 24.254 78.938, 25.121 79, 51.905 78.985 C 67.082 78.976, 80.095 78.592, 80.822 78.131 C 82.987 76.759, 83.951 70.260, 83.976 56.872 C 83.995 46.847, 83.691 43.988, 82.500 43 C 81.178 41.903, 81 43.549, 81 56.878 C 81 74.570, 81.393 74.145, 70.623 68.096 L 63.746 64.233 60.233 66.616 C 47.903 74.984, 34.010 59.461, 43.613 48.047 C 45.007 46.391, 47.875 44.519, 49.986 43.886 C 53.332 42.884, 54.400 43.015, 58.319 44.912 C 62.949 47.154, 66.477 52.282, 65.802 55.790 C 65.277 58.518, 62.716 57.769, 61.880 54.643 C 59.639 46.265, 49.296 44.659, 45.453 52.091 C 43.293 56.267, 43.670 58.823, 46.923 62.077 C 50.819 65.973, 55.664 66.063, 59.419 62.308 L 62.111 59.616 69.555 63.300 L 77 66.984 77 53.992 L 77 41 54.622 41 C 37.342 41, 31.996 41.300, 31.153 42.316 C 30.517 43.082, 29.943 49.249, 29.780 57.066 C 29.548 68.216, 29.245 70.500, 28 70.500 C 26.753 70.500, 26.453 68.176, 26.221 56.702 L 25.943 42.903 28.895 39.952 L 31.846 37 54.423 37 C 68.259 37, 77 36.626, 77 36.035 C 77 33.865, 72.516 33, 61.257 33 C 48.476 33, 47.885 32.802, 44.087 27.250 L 41.864 24 31.967 24 C 23.045 24, 21.963 24.200, 20.984 26.030" stroke="none" fill="#040404" fill-rule="evenodd"/></svg>