<?xml version="1.0" encoding="UTF-8"?>
<svg version="1.1" xmlns="http://www.w3.org/2000/svg" width="100" height="100">
<path d="M0 0 C3.62393422 2.18946026 5.39323725 4.139596 7 8 C7.37109375 10.3671875 7.37109375 10.3671875 7.4375 12.875 C7.47746094 13.69742187 7.51742187 14.51984375 7.55859375 15.3671875 C7 18 7 18 4.5234375 20.515625 C0.41947464 25.06422642 1.21694892 31.07683576 1.1875 36.875 C1.16236328 38.0403125 1.13722656 39.205625 1.11132812 40.40625 C1.05262069 43.27117296 1.01621939 46.13457361 1 49 C5.56342738 48.94811746 10.12496342 48.85303224 14.6875 48.75 C15.98107422 48.73582031 17.27464844 48.72164062 18.60742188 48.70703125 C20.47817383 48.65869141 20.47817383 48.65869141 22.38671875 48.609375 C23.53358154 48.58842773 24.68044434 48.56748047 25.86206055 48.54589844 C29.63275233 47.88992187 31.31445336 46.68585171 34 44 C35.4117352 39.76479441 35.27918777 35.57220525 35.42578125 31.12890625 C36.10133738 27.44781467 37.2015516 26.37624535 40 24 C41.44430855 21.11138291 41.37688506 19.20352299 41 16 C38.39210172 12.36474785 36.9297642 11.16602932 32.5 10.375 C28.0702358 11.16602932 26.60789828 12.36474785 24 16 C23.44121723 19.91147941 23.76817646 22.71099688 26 26 C26.99 26.66 27.98 27.32 29 28 C29.42153905 32.68751422 29.1285499 37.28650378 29 42 C20.42 42 11.84 42 3 42 C3.33 40.68 3.66 39.36 4 38 C10.93 38 17.86 38 25 38 C25 35.36 25 32.72 25 30 C24.38125 29.7525 23.7625 29.505 23.125 29.25 C20.55103073 27.73590043 20.10668604 26.73784504 19 24 C18.26452928 19.77811522 18.14344808 15.78149773 20.02734375 11.86328125 C23.20363109 7.66635865 26.57453195 5.80805399 31.76171875 5.0234375 C36.97932074 4.96880292 40.13677399 7.24697306 43.9375 10.5625 C46.54258947 14.02157575 46.64432438 17.35855333 46.43359375 21.5859375 C45.77109913 25.27442104 44.49086197 27.21609545 42 30 C41.34 30 40.68 30 40 30 C40.04640625 30.86882813 40.0928125 31.73765625 40.140625 32.6328125 C40.50021636 44.11405081 40.50021636 44.11405081 36 49 C35.484375 49.598125 34.96875 50.19625 34.4375 50.8125 C30.95393275 53.69022946 26.74208974 53.12873871 22.48828125 53.09765625 C21.76005661 53.0962413 21.03183197 53.09482635 20.28153992 53.09336853 C17.95848461 53.08777659 15.63552612 53.07522562 13.3125 53.0625 C11.73632952 53.05748396 10.16015752 53.05292123 8.58398438 53.04882812 C4.72261902 53.0378098 0.86132592 53.02055074 -3 53 C-3.12418758 48.69508537 -3.21461002 44.3911365 -3.2746582 40.08496094 C-3.29970529 38.62221093 -3.33375392 37.15958488 -3.37719727 35.69726562 C-3.43829356 33.58692781 -3.46630435 31.47825248 -3.48828125 29.3671875 C-3.51446533 28.09987793 -3.54064941 26.83256836 -3.56762695 25.52685547 C-2.82331086 20.90217146 -1.12864411 19.41134741 2 16 C2.70949231 12.13720853 2.33888718 10.58653551 0.375 7.1875 C-2.5319778 4.51002044 -4.06440609 4 -8 4 C-11.52906067 5.60411848 -12.82772908 6.74159362 -15 10 C-15.58442963 12.87237733 -15.58442963 12.87237733 -15 16 C-14.17967285 16.84046875 -13.3593457 17.6809375 -12.51416016 18.546875 C-8.89407438 22.729484 -9.27973403 27.12652346 -9.3359375 32.4375 C-9.33115387 33.43579834 -9.32637024 34.43409668 -9.32144165 35.46264648 C-9.31804861 37.56723614 -9.32720916 39.67187893 -9.34814453 41.77636719 C-9.3749178 44.99013248 -9.3483756 48.20040531 -9.31640625 51.4140625 C-9.31971045 53.46354934 -9.3261169 55.51303402 -9.3359375 57.5625 C-9.32581635 58.51890381 -9.31569519 59.47530762 -9.30526733 60.46069336 C-9.41683827 66.83984185 -10.54127057 69.46007577 -15 74 C-15.70949231 77.86279147 -15.33888718 79.41346449 -13.375 82.8125 C-10.4680222 85.48997956 -8.93559391 86 -5 86 C-1.47093933 84.39588152 -0.17227092 83.25840638 2 80 C2.58442963 77.12762267 2.58442963 77.12762267 2 74 C0.71001714 72.61326843 -0.5809995 71.22739348 -1.88671875 69.85546875 C-4.17847178 66.03588037 -3.34403967 61.2966732 -3 57 C-1.68 57.33 -0.36 57.66 1 58 C1.12375 59.85625 1.12375 59.85625 1.25 61.75 C1.72933469 65.73975643 2.82995771 67.42434064 6 70 C7.85746073 73.71492147 7.4421807 77.94563892 7 82 C5.23744485 85.72848204 3.67191647 87.50406165 0.375 89.9375 C-4.30795204 91.41176268 -8.25295296 91.17289309 -13 90 C-16.61767335 87.81432235 -18.40877666 85.86340689 -20 82 C-20.58348136 77.33972676 -20.55902341 73.2450976 -18.625 68.9375 C-17 67 -17 67 -15 66 C-14.67 52.14 -14.34 38.28 -14 24 C-14.99 23.67 -15.98 23.34 -17 23 C-20.35961599 19.14266312 -20.51563095 15.34528268 -20.34765625 10.4375 C-19.82190495 6.75133356 -18.51185609 4.71016051 -16 2 C-10.8970027 -1.76649801 -5.93773992 -1.46708766 0 0 Z " fill="#000000" transform="translate(37,5)"/>
</svg>
