<?xml version="1.0" encoding="UTF-8"?>
<svg version="1.1" xmlns="http://www.w3.org/2000/svg" width="100" height="100">
<path d="M0 0 C3.9285121 2.94424436 6.2584475 6.74018625 7.79296875 11.34375 C8.57089693 17.80948098 7.70284684 23.04984426 3.79296875 28.34375 C-0.66846367 32.89554054 -4.93154607 34.12735396 -11.20703125 34.34375 C-12.79106649 32.75971476 -12.4267806 31.0665862 -12.5234375 28.87109375 C-12.56533203 27.97197266 -12.60722656 27.07285156 -12.65039062 26.14648438 C-12.68970703 25.20095703 -12.72902344 24.25542969 -12.76953125 23.28125 C-12.81271484 22.33185547 -12.85589844 21.38246094 -12.90039062 20.40429688 C-13.00682401 18.05093647 -13.10884133 15.69746646 -13.20703125 13.34375 C-14.52703125 13.67375 -15.84703125 14.00375 -17.20703125 14.34375 C-17.70203125 12.36375 -17.70203125 12.36375 -18.20703125 10.34375 C-12.70703125 5.34375 -12.70703125 5.34375 -8.20703125 5.34375 C-8.20703125 13.26375 -8.20703125 21.18375 -8.20703125 29.34375 C-0.41930854 25.11994042 -0.41930854 25.11994042 2.79296875 18.34375 C2.79296875 13.65674134 2.41732324 10.69813399 -0.45703125 6.96875 C-3.62520987 3.9445795 -5.648904 2.28643961 -10.125 2.38671875 C-14.02272245 2.77429715 -17.79892247 3.33898013 -21.20703125 5.34375 C-23.47953458 9.20700567 -24.40270196 13.86884587 -24.20703125 18.34375 C-22.80333879 22.70490771 -20.92679167 24.9285036 -16.95703125 27.21875 C-14.20703125 29.34375 -14.20703125 29.34375 -13.82421875 31.5859375 C-13.83132688 33.86764668 -13.94559377 36.07795854 -14.20703125 38.34375 C-12.92828125 38.26125 -11.64953125 38.17875 -10.33203125 38.09375 C-4.40472724 38.08437135 1.80837041 39.77817162 6.37890625 43.70703125 C8.0521883 45.64378589 9.57044792 47.6243393 11.04296875 49.71875 C11.584375 50.46898437 12.12578125 51.21921875 12.68359375 51.9921875 C13.79296875 54.34375 13.79296875 54.34375 13.9296875 56.73828125 C10.95896 63.54747453 2.33105572 68.38013252 -4.20703125 71.34375 C-9.45067348 72.62982108 -14.63671994 72.16071658 -19.953125 71.57128906 C-22.23095915 71.3413344 -24.48135498 71.24150358 -26.76953125 71.1796875 C-39.68578392 70.7982245 -48.30622212 68.85875381 -58.20703125 60.34375 C-59.34357631 59.44309802 -60.48310617 58.54620455 -61.625 57.65234375 C-62.81970976 56.69618567 -64.0137221 55.7391555 -65.20703125 54.78125 C-65.78364502 54.33458984 -66.36025879 53.88792969 -66.9543457 53.42773438 C-69.74432162 51.13448884 -71.11608095 49.65335997 -72.14453125 46.15234375 C-72.20703125 43.34375 -72.20703125 43.34375 -71.20703125 40.96875 C-69.20703125 39.34375 -69.20703125 39.34375 -66.08203125 38.92578125 C-60.32534463 39.54671418 -56.77093986 42.55699408 -52.16796875 45.87695312 C-48.77139608 48.18832738 -46.96389778 49.34375 -42.765625 49.34375 C-38.52804529 48.15294824 -34.39773331 46.80589018 -30.26953125 45.28125 C-29.49029297 44.99958984 -28.71105469 44.71792969 -27.90820312 44.42773438 C-26.00563 43.73907294 -24.106014 43.04225097 -22.20703125 42.34375 C-21.71203125 44.32375 -21.71203125 44.32375 -21.20703125 46.34375 C-25.82703125 49.64375 -30.44703125 52.94375 -35.20703125 56.34375 C-34.87703125 57.00375 -34.54703125 57.66375 -34.20703125 58.34375 C-33.5615332 58.1264624 -32.91603516 57.9091748 -32.25097656 57.68530273 C-29.32315032 56.70646546 -26.3902762 55.743721 -23.45703125 54.78125 C-22.44125 54.43900391 -21.42546875 54.09675781 -20.37890625 53.74414062 C-19.39921875 53.42509766 -18.41953125 53.10605469 -17.41015625 52.77734375 C-16.05905762 52.32959595 -16.05905762 52.32959595 -14.68066406 51.87280273 C-12.08897521 51.31850055 -10.67871552 51.47361625 -8.20703125 52.34375 C-8.20703125 53.33375 -8.20703125 54.32375 -8.20703125 55.34375 C-12.05271622 56.72288291 -15.90963289 58.06746649 -19.76953125 59.40625 C-20.85556641 59.79619141 -21.94160156 60.18613281 -23.06054688 60.58789062 C-28.89821379 62.59292516 -33.17033256 63.99799598 -39.20703125 62.34375 C-39.93783391 60.36628397 -40.60124872 58.36302511 -41.20703125 56.34375 C-40.87703125 55.68375 -40.54703125 55.02375 -40.20703125 54.34375 C-41.00753906 54.6221875 -41.80804688 54.900625 -42.6328125 55.1875 C-47.97477787 55.42102854 -51.07568227 52.76501525 -55.39453125 49.84375 C-56.98620341 48.78263523 -58.58362818 47.73008334 -60.1875 46.6875 C-60.88770264 46.21505859 -61.58790527 45.74261719 -62.30932617 45.25585938 C-64.34914485 44.00446356 -64.34914485 44.00446356 -67.20703125 45.34375 C-52.70653608 59.19430026 -42.57431643 65.49686496 -22.34814453 66.23388672 C-20.38846163 66.33444057 -18.43483312 66.53900793 -16.484375 66.75390625 C-5.78945398 67.60998223 -0.00309198 62.9786953 7.79296875 56.34375 C7.10681169 54.89553356 6.39284189 53.46048101 5.66796875 52.03125 C5.07628906 50.83048828 5.07628906 50.83048828 4.47265625 49.60546875 C1.51876982 45.62802633 -2.06838805 44.56286188 -6.8203125 43.6484375 C-8.04105469 43.50664063 -9.26179688 43.36484375 -10.51953125 43.21875 C-17.11806328 42.43271797 -17.11806328 42.43271797 -18.20703125 41.34375 C-18.27908636 39.65766034 -18.29089193 37.96874341 -18.26953125 36.28125 C-18.26050781 35.36214844 -18.25148437 34.44304688 -18.2421875 33.49609375 C-18.23058594 32.78582031 -18.21898437 32.07554688 -18.20703125 31.34375 C-18.94953125 31.116875 -19.69203125 30.89 -20.45703125 30.65625 C-24.51673229 28.71866542 -26.35271911 25.92422746 -28.45703125 22.03125 C-30.24552601 15.62247711 -29.59431039 10.81958578 -26.41015625 5.1015625 C-20.27502485 -3.86210351 -9.01949228 -5.04083401 0 0 Z " fill="#000000" transform="translate(80.20703125,14.65625)"/>
</svg>
