<?xml version="1.0" encoding="UTF-8"?>
<svg version="1.1" xmlns="http://www.w3.org/2000/svg" width="100" height="100">
<path d="M0 0 C2 3 2 3 2 7 C0.56570999 7.67354499 -0.87257057 8.33859701 -2.3125 9 C-3.11300781 9.37125 -3.91351562 9.7425 -4.73828125 10.125 C-7 11 -7 11 -10 11 C-9.67 12.65 -9.34 14.3 -9 16 C-8.01 15.67 -7.02 15.34 -6 15 C-5.26676204 12.98491642 -5.26676204 12.98491642 -5 11 C-3.68 11 -2.36 11 -1 11 C-1.59859155 17.34507042 -1.59859155 17.34507042 -3.1875 19.9375 C-5.91087907 21.5339636 -7.90953021 21.38630872 -11 21 C-12.67578125 19.80078125 -12.67578125 19.80078125 -14 18 C-14.39872284 14.62414666 -14.13292547 11.41175371 -14 8 C-9.05 6.515 -9.05 6.515 -4 5 C-4 4.34 -4 3.68 -4 3 C-7.47486237 3.31945264 -10.71211445 3.80295429 -14 5 C-15.64744748 7.65717335 -16.26106999 9.10585745 -17 12 C-17.5491225 13.48418488 -18.11152517 14.96352806 -18.6875 16.4375 C-19.120625 17.613125 -19.55375 18.78875 -20 20 C-14.98391475 21.0176403 -10.21391694 21.11856434 -5.125 21.0625 C-4.34125 21.05798828 -3.5575 21.05347656 -2.75 21.04882812 C-0.83329986 21.03714093 1.08336048 21.01920908 3 21 C2.67257813 20.24332031 2.34515625 19.48664062 2.0078125 18.70703125 C0.86740818 15.6438522 0.84919721 13.24225991 1 10 C2.65 9.67 4.3 9.34 6 9 C6 6.03 6 3.06 6 0 C16.56 0 27.12 0 38 0 C38 3.63 38 7.26 38 11 C40.64 11 43.28 11 46 11 C46.99 14.96 46.99 14.96 48 19 C50.85078091 19.76716851 50.85078091 19.76716851 54 20 C57.34565666 17.96870846 57.95671789 14.61136114 59 11 C57.5459375 11.3403125 57.5459375 11.3403125 56.0625 11.6875 C51.29599832 12.41028919 47.37724145 10.75685201 43 9 C42.25 6.75 42.25 6.75 42 4 C44.20034214 1.17098867 45.58119536 0.13960155 49 -1 C53.13505341 -1.39009938 55.52991708 -1.22173723 59.3125 0.5625 C62.72869466 3.66090911 63.40146397 5.43616275 64 10 C63.46777437 15.25911093 62.08489749 19.653099 59 24 C59.886875 24.04125 60.77375 24.0825 61.6875 24.125 C66.78710718 25.47206605 68.73933428 28.83885877 71.3125 33.25 C72 36 72 36 72 46 C59.46 46 46.92 46 34 46 C34 33.56913183 34 33.56913183 38 28 C40.28190242 25.88109061 42.23346539 24.38326731 45 23 C44.505 22.236875 44.01 21.47375 43.5 20.6875 C42 18 42 18 42 15 C40.68 15 39.36 15 38 15 C38 16.98 38 18.96 38 21 C36.91460937 21.01417969 35.82921875 21.02835938 34.7109375 21.04296875 C33.26558387 21.08989582 31.82027269 21.13814305 30.375 21.1875 C29.66214844 21.19330078 28.94929688 21.19910156 28.21484375 21.20507812 C22.44032626 21.44347564 20.24843062 23.18371633 16 27 C14.68 27 13.36 27 12 27 C12 21.72 12 16.44 12 11 C19.26 11 26.52 11 34 11 C34 8.69 34 6.38 34 4 C26.08 4 18.16 4 10 4 C10 6.97 10 9.94 10 13 C8.68 13 7.36 13 6 13 C6.309375 13.9075 6.61875 14.815 6.9375 15.75 C7.7272263 18.16563338 8.42949297 20.52780285 9 23 C7.02 23.99 5.04 24.98 3 26 C3.33773438 26.50789063 3.67546875 27.01578125 4.0234375 27.5390625 C8.1379311 33.88917691 10 38.23654375 10 46 C-2.54 46 -15.08 46 -28 46 C-28 36.97935103 -28 36.97935103 -25.6875 32.75 C-25.25824219 31.94046875 -24.82898438 31.1309375 -24.38671875 30.296875 C-23.04736381 28.07845048 -21.59548885 26.03997987 -20 24 C-21.65 23.67 -23.3 23.34 -25 23 C-25.33 22.01 -25.66 21.02 -26 20 C-25.5875 19.34 -25.175 18.68 -24.75 18 C-23.01454941 15.02494185 -22.43421968 12.82670326 -21.6875 9.5 C-20.281144 4.03656464 -18.83370128 1.90022077 -14 -1 C-9.51542852 -2.81806952 -4.4267548 -1.70460499 0 0 Z M48.0625 4.4375 C47.711875 4.953125 47.36125 5.46875 47 6 C51.17737474 7.59138085 54.53160785 8.21278058 59 8 C58.51294288 5.93597032 58.51294288 5.93597032 57 4 C52.2962312 2.5826956 52.2962312 2.5826956 48.0625 4.4375 Z M16 15 C16 16.98 16 18.96 16 21 C16.51046875 20.51917969 17.0209375 20.03835937 17.546875 19.54296875 C20.82256066 17.48262506 23.40752719 17.49039226 27.25 17.3125 C28.51328125 17.24675781 29.7765625 17.18101563 31.078125 17.11328125 C32.52445313 17.05720703 32.52445313 17.05720703 34 17 C34 16.34 34 15.68 34 15 C28.06 15 22.12 15 16 15 Z M42 30 C39.0845867 33.9520047 38 37.08412407 38 42 C47.9 42 57.8 42 68 42 C67.08119859 34.57728895 67.08119859 34.57728895 63 29 C55.51561252 25.34035465 48.86442542 24.93607961 42 30 Z M-18 29 C-22.26217361 35.03946933 -22.26217361 35.03946933 -24 42 C-14.43 42 -4.86 42 5 42 C4.10125723 36.29229924 4.10125723 36.29229924 1.5625 31.6875 C1.13066406 31.01074219 0.69882812 30.33398438 0.25390625 29.63671875 C-0.9192863 27.85784033 -0.9192863 27.85784033 -3 27 C-10.89475857 26.15978822 -10.89475857 26.15978822 -18 29 Z " fill="#000000" transform="translate(28,31)"/>
</svg>
