<?xml version="1.0" encoding="UTF-8"?>
<svg version="1.1" xmlns="http://www.w3.org/2000/svg" width="100" height="100">
<path d="M0 0 C0 1.32 0 2.64 0 4 C-0.87011719 4.03867187 -0.87011719 4.03867187 -1.7578125 4.078125 C-7.20866355 4.47389636 -10.71047469 5.33821011 -15 9 C-17.32269047 11.95615151 -17.41722822 15.13326235 -17.3203125 18.84375 C-16.60262215 23.67503138 -14.37872222 27.77446913 -10.75 31 C-8.0327462 34.10543292 -8.88570026 36.95052367 -9 41 C-10.12019531 41.60328125 -11.24039062 42.2065625 -12.39453125 42.828125 C-13.86744616 43.63494463 -15.34008823 44.44226251 -16.8125 45.25 C-17.55048828 45.64574219 -18.28847656 46.04148438 -19.04882812 46.44921875 C-22.81425875 48.52787276 -25.77476617 50.16520968 -28 54 C-15.50712292 55.29236659 -7.67250078 52.28289139 3 46 C3.22459452 41.83318068 3.10163743 39.44819221 0.625 36.0625 C-4.37667206 28.5245693 -4.73181336 20.86180247 -4 12 C-2.14485213 6.53219576 1.24132533 2.60922689 6.25 -0.3125 C12.77241162 -1.94310291 18.30053339 -1.5901699 24.20703125 1.72265625 C27.99146641 4.41875711 30.51691714 7.55075142 32 12 C32.75292715 20.68951988 31.91857368 28.14974704 28 36 C27.18982422 36.95712891 27.18982422 36.95712891 26.36328125 37.93359375 C24.53918269 40.69848813 24.77900981 42.75881052 25 46 C35.67250078 52.28289139 43.50712292 55.29236659 56 54 C52.77113504 49.24824255 49.25094325 47.17851805 44.25 44.6875 C43.55261719 44.32849609 42.85523437 43.96949219 42.13671875 43.59960938 C40.42974748 42.72274057 38.71557211 41.85991985 37 41 C36.64755204 33.60625482 36.64755204 33.60625482 38.2421875 30.86328125 C38.78101562 30.35152344 39.31984375 29.83976562 39.875 29.3125 C43.68787582 25.31977155 44.84303298 22.6481537 45.375 17.0625 C45.26168312 12.78074062 43.80341422 10.27064992 41 7 C38.09382579 5.22674116 35.62169772 4.67250274 32.25 4.375 C31.45078125 4.30023437 30.6515625 4.22546875 29.828125 4.1484375 C29.22484375 4.09945313 28.6215625 4.05046875 28 4 C28 2.68 28 1.36 28 0 C33.5687885 -1.57068394 37.97417422 -0.6654826 43 2 C46.40215171 5.06902435 49.7485344 8.58840368 50.23828125 13.28515625 C50.44865705 21.15764029 49.30110385 27.51550149 43.75 33.375 C43.1725 33.91125 42.595 34.4475 42 35 C42 35.99 42 36.98 42 38 C43.55460937 38.76183594 43.55460937 38.76183594 45.140625 39.5390625 C46.51083409 40.23355204 47.88060283 40.92891087 49.25 41.625 C49.93191406 41.95628906 50.61382812 42.28757813 51.31640625 42.62890625 C55.93973206 45.00789914 58.51805241 47.25714341 61 52 C61.3125 55.3125 61.3125 55.3125 61 58 C58.48398019 60.51601981 51.98565879 59.66828129 48.51074219 59.75195312 C37.70070428 59.54575671 29.06099595 54.47738662 20 49 C19.93546619 47.25570027 19.8896234 45.51070308 19.8515625 43.765625 C19.82400879 42.79399414 19.79645508 41.82236328 19.76806641 40.82128906 C20.08122995 37.01190178 21.57702276 34.86445547 23.75390625 31.82421875 C27.32774675 26.59229551 27.68217147 20.1283601 27 14 C25.68623653 9.6481585 24.07937127 7.76069226 20.1875 5.625 C16.6287828 4.07660019 13.90419327 3.32100987 10 4 C5.15026476 6.47241405 2.75486571 8.83289542 1 14 C-0.13252157 21.15865489 1.96142834 27.54684614 5 34 C5.51522217 34.59256592 6.03044434 35.18513184 6.5612793 35.7956543 C8.40647277 38.62278002 8.30687358 40.40753984 8.1875 43.75 C8.14689453 45.22726563 8.14689453 45.22726563 8.10546875 46.734375 C8.07066406 47.48203125 8.03585938 48.2296875 8 49 C-5.4429593 57.12629051 -16.22676778 60.87971161 -32 59 C-33 58 -33 58 -33.3125 55.3125 C-32.91109702 51.05762843 -31.67620386 49.32935029 -29 46 C-26.54648604 44.25764951 -23.95271698 42.9380402 -21.25 41.625 C-20.55261719 41.27050781 -19.85523438 40.91601562 -19.13671875 40.55078125 C-17.43151381 39.6864993 -15.71668021 38.84125871 -14 38 C-14.7109867 34.27730557 -16.3305433 32.41431662 -18.7890625 29.55078125 C-22.86417491 24.33200826 -22.76151522 17.3083545 -22 11 C-19.20747623 5.31152566 -15.4647184 1.9410743 -9.5625 -0.3125 C-5.95561222 -1.00856606 -3.54117696 -0.8637017 0 0 Z " fill="#000000" transform="translate(36,20)"/>
</svg>
