<?xml version="1.0" encoding="iso-8859-1"?>
<!-- Generator: Adobe Illustrator 24.0.0, SVG Export Plug-In . SVG Version: 6.00 Build 0)  -->
<svg version="1.1" id="Layer_1" xmlns="http://www.w3.org/2000/svg" xmlns:xlink="http://www.w3.org/1999/xlink" x="0px" y="0px"
	 viewBox="0 0 48 48" style="enable-background:new 0 0 48 48;" xml:space="preserve">
<path style="fill:#D03827;" d="M3.5,6.5c0-3.027,3.205-3.016,5.443-3.04c3.916-0.042,7.701,0.77,11.597,0.971
	c2.432,0.126,4.864-0.07,7.284-0.302c2.219-0.213,4.472-0.31,6.676-0.629c2.077-0.3,4.677-0.259,6.726,0.19
	c0.503,0.11,1.004,0.271,1.425,0.569c2.092,1.48,1.107,4.861,0.948,6.93c-0.243,3.159-0.032,6.327,0.066,9.487
	c0.121,3.893,0.226,7.788,0.201,11.683c-0.013,1.999-0.059,3.998-0.156,5.995c-0.048,0.998-0.121,1.993-0.184,2.99
	c-0.041,0.645,0.031,1.483-0.53,1.937c-0.275,0.223-0.642,0.288-0.994,0.33c-2.148,0.254-4.485-0.002-6.667,0.009
	c-2.499,0.013-4.999,0.021-7.498,0.025c-1.291,0.002-15.41,0.033-15.41-0.071C10.785,43.7,9.133,43.824,7.5,43.5
	c-3.97-0.787-3-4.715-3-8c0-1.993-0.083-3.985-0.1-5.977c-0.017-1.884,0.181-3.762,0.237-5.651c0.085-2.928-0.001-5.86-0.265-8.778
	C4.111,12.218,3.5,9.404,3.5,6.5z"/>
<path style="fill:#010101;" d="M4,6.5c0.044-2.178,2.191-2.467,3.947-2.523c2.93-0.094,5.822,0.268,8.726,0.603
	c3.168,0.366,6.275,0.462,9.456,0.201c3.063-0.251,6.115-0.579,9.173-0.878c1.392-0.136,2.804-0.132,4.195,0.014
	c1.193,0.125,2.727,0.261,3.454,1.352c1.105,1.658,0.299,4.1,0.149,5.919c-0.264,3.196-0.03,6.414,0.069,9.611
	c0.102,3.272,0.19,6.545,0.2,9.818c0.009,3.117-0.052,6.235-0.253,9.346c-0.04,0.617-0.079,1.233-0.109,1.85
	c-0.04,0.816-0.26,1.203-1.116,1.309c-1.484,0.183-3,0.093-4.489,0.04c-4.046-0.142-8.104-0.01-12.153-0.028
	c-3.21-0.014-6.42-0.03-9.63-0.046c-0.985-0.005-1.971-0.019-2.956-0.015c-1.956,0.008-4.124,0.494-5.986-0.344
	c-1.776-0.799-1.82-2.872-1.771-4.556c0.077-2.64,0.045-5.262,0.003-7.904c-0.051-3.234,0.3-6.456,0.25-9.693
	c-0.049-3.204-0.371-6.359-0.79-9.532C4.17,9.536,4.009,8.024,4,6.5c-0.004-0.643-1.004-0.645-1,0
	c0.019,3.372,0.753,6.696,0.988,10.054c0.234,3.344,0.203,6.678,0.01,10.023c-0.189,3.271,0.104,6.535-0.016,9.805
	c-0.067,1.838-0.373,3.944,0.525,5.64c1.208,2.281,4.283,2.268,6.511,2.148c1.003-0.054,1.967-0.095,2.97-0.09
	c3.298,0.017,6.596,0.034,9.894,0.049c3.931,0.018,7.863-0.034,11.794-0.009c1.582,0.01,3.161,0.134,4.743,0.096
	c1.152-0.028,2.819,0.062,3.369-1.194c0.21-0.481,0.207-1.011,0.231-1.526c0.038-0.818,0.107-1.634,0.154-2.452
	c0.094-1.627,0.143-3.257,0.172-4.886c0.059-3.417,0.005-6.835-0.086-10.251c-0.09-3.385-0.311-6.778-0.268-10.165
	c0.017-1.339,0.103-2.661,0.28-3.988c0.148-1.103,0.286-2.221,0.124-3.33c-0.151-1.031-0.615-1.994-1.491-2.597
	c-1.072-0.737-2.575-0.845-3.834-0.949c-3.116-0.256-6.235,0.347-9.336,0.59c-3.351,0.262-6.676,0.655-10.043,0.41
	c-3.344-0.243-6.656-0.866-10.014-0.916c-1.803-0.027-4.158-0.171-5.631,1.07C3.305,4.655,3.019,5.556,3,6.5
	C2.987,7.144,3.987,7.144,4,6.5z"/>
<path style="fill:#373837;" d="M34.9,33.18c0-3.02,0.02-6.03-0.04-9.05c-0.06-2.71-0.26-5.43-0.18-8.14c0.04-1,0.07-2,0.04-3
	c-0.01-0.24-0.25-2.43-0.26-2.43c-1.02-0.33-2.49,0.07-3.56,0.12c-1.15,0.06-2.26-0.14-3.4-0.18c0.37,2.01,0.23,4.17,0.15,6.2
	c-0.01,0.27-0.28,2.75-0.15,2.8c-2,0-6.44,0.54-7.47,0.68c-0.74,0.1-1.46,0.29-2.14,0.56c-2.48,0.97-4.79,3.09-5.39,5.76
	c-0.6,2.68,0.94,6.06,3.01,7.76c2.16,1.77,6.01,1.67,8.71,1.65c1.84,0,3.45,0.5,5.28,0.59c1.12,0.05,3.39,0.04,4.8,0.02
	c0.62-0.01,1.08-0.58,0.96-1.19C35.1,34.51,34.92,33.51,34.9,33.18z M28,31c0,0-8,0-8-3c0-4,2.39-3.9,4-4c1.32-0.08,2.68-0.07,4,0
	C27.9,25.88,28,29.1,28,31z"/>
<path style="fill:#010101;" d="M28.51,30.929c-0.002-2.288-0.118-4.579,0-6.866c0.014-0.279-0.241-0.487-0.5-0.5
	c-1.272-0.063-2.546-0.085-3.819-0.037c-0.971,0.036-1.887,0.134-2.776,0.55c-0.741,0.347-1.419,0.918-1.756,1.676
	c-0.342,0.77-0.277,1.607,0.017,2.383c0.976,2.578,3.787,3.379,6.303,3.419c0.721,0.012,1.452-0.026,2.164-0.143
	c0.633-0.105,0.365-1.068-0.266-0.964c-0.033,0.005-0.066,0.01-0.099,0.015c-0.019,0.003,0.134-0.015,0.001,0
	c-0.072,0.008-0.144,0.017-0.216,0.025c-0.345,0.036-0.691,0.057-1.038,0.066c-0.986,0.025-1.981-0.049-2.934-0.311
	c-1.023-0.281-2.024-0.808-2.614-1.722c-0.344-0.532-0.624-1.224-0.548-1.867c0.08-0.675,0.572-1.192,1.134-1.525
	c0.814-0.482,1.703-0.567,2.628-0.601c1.273-0.048,2.547-0.026,3.819,0.037c-0.167-0.167-0.333-0.333-0.5-0.5
	c-0.118,2.287-0.002,4.578,0,6.866C27.511,31.572,28.511,31.573,28.51,30.929z"/>
<path style="fill:#010101;" d="M33.965,10.563c0.199,1.588,0.285,3.135,0.24,4.737c-0.082,2.949,0.088,5.882,0.154,8.829
	c0.066,2.975-0.047,5.957,0.045,8.93c0.013,0.417,0.088,0.829,0.16,1.239c0.096,0.549,0.536,1.562-0.268,1.72
	c-0.452,0.089-1.003,0.011-1.464,0.014c-0.595,0.004-1.19,0.005-1.785,0.001c-1.175-0.008-2.323-0.074-3.486-0.256
	c-1.309-0.204-2.585-0.367-3.912-0.36c-2.182,0.012-4.56,0.065-6.603-0.818c-2.04-0.881-3.401-3.054-3.942-5.141
	c-0.609-2.349,0.159-4.575,1.87-6.258c0.917-0.902,2.045-1.618,3.254-2.06c0.991-0.363,2.017-0.494,3.057-0.618
	C23.34,20.279,25.425,20.01,27.5,20c0.452-0.002,0.635-0.536,0.354-0.854c0.206,0.233,0.065,0.258,0.112,0.07
	c0.02-0.079,0.005-0.21,0.008-0.291c0.012-0.291,0.035-0.583,0.059-0.873c0.036-0.451,0.086-0.901,0.115-1.352
	c0.135-2.102,0.197-4.25-0.166-6.332c-0.161,0.21-0.321,0.421-0.482,0.632c1.248,0.054,2.495,0.277,3.746,0.156
	c1.011-0.098,2.083-0.397,3.086-0.111c0.62,0.177,0.885-0.788,0.266-0.964c-1.044-0.298-2.115-0.065-3.168,0.055
	c-1.314,0.15-2.617-0.078-3.93-0.136c-0.351-0.015-0.535,0.33-0.482,0.633c0.356,2.038,0.27,4.19,0.117,6.246
	c-0.042,0.565-0.104,1.127-0.141,1.692c-0.026,0.395-0.135,0.958,0.152,1.282c0.118-0.285,0.236-0.569,0.354-0.854
	c-2.031,0.01-4.071,0.27-6.085,0.509c-2.191,0.259-4.232,0.715-6.047,2.055c-1.908,1.41-3.413,3.531-3.495,5.968
	c-0.079,2.363,1.038,4.808,2.653,6.496c1.662,1.737,4.032,2.196,6.343,2.338c1.197,0.074,2.392,0.029,3.59,0.051
	c1.539,0.029,3.039,0.42,4.569,0.551c1.168,0.1,2.351,0.072,3.521,0.066c0.963-0.005,2.375,0.258,2.987-0.694
	c0.587-0.914-0.068-2.171-0.133-3.159c-0.106-1.616,0.006-3.274,0.001-4.893c-0.011-3.69-0.256-7.376-0.243-11.064
	c0.005-1.479,0.154-2.976,0.036-4.452c-0.059-0.737-0.142-1.476-0.234-2.209C34.886,9.932,33.885,9.925,33.965,10.563z"/>
</svg>