<?xml version="1.0" encoding="UTF-8"?>
<svg version="1.1" xmlns="http://www.w3.org/2000/svg" width="100" height="100">
<path d="M0 0 C0.85078125 -0.020625 1.7015625 -0.04125 2.578125 -0.0625 C7.41175378 -0.09261607 10.73264453 0.04810135 14.625 3.25 C15.67604383 4.88495707 16.68488318 6.54883624 17.625 8.25 C20.23889378 9.55694689 22.22420238 9.39340363 25.1484375 9.42578125 C26.251875 9.44962891 27.3553125 9.47347656 28.4921875 9.49804688 C30.82273278 9.5408687 33.15351873 9.57219887 35.484375 9.59179688 C36.59039062 9.61951172 37.69640625 9.64722656 38.8359375 9.67578125 C39.84962402 9.69036377 40.86331055 9.70494629 41.90771484 9.7199707 C45.30155439 10.38196762 46.50073265 11.57551564 48.625 14.25 C48.8415625 15.301875 48.8415625 15.301875 49.0625 16.375 C49.248125 16.99375 49.43375 17.6125 49.625 18.25 C51.28572849 18.93132451 52.952767 19.59742127 54.625 20.25 C56.65594178 23.3297992 56.88164836 25.86483903 56.890625 29.50390625 C56.89449219 31.0343457 56.89449219 31.0343457 56.8984375 32.59570312 C56.89070313 33.65724609 56.88296875 34.71878906 56.875 35.8125 C56.88660156 37.36420898 56.88660156 37.36420898 56.8984375 38.94726562 C56.8554064 56.12743104 56.8554064 56.12743104 52.75 61.875 C49.12882173 64.21811535 45.75606513 64.37868397 41.50854492 64.41113281 C40.49036179 64.42074036 39.47217865 64.4303479 38.42314148 64.44024658 C36.78089348 64.4466214 36.78089348 64.4466214 35.10546875 64.453125 C33.97353592 64.45882507 32.84160309 64.46452515 31.67536926 64.47039795 C29.28057793 64.47984132 26.88577364 64.4863793 24.4909668 64.49023438 C20.83684493 64.49993537 17.18328667 64.53096398 13.52929688 64.5625 C11.20052417 64.56903083 8.87174744 64.57428099 6.54296875 64.578125 C4.90982979 64.5966452 4.90982979 64.5966452 3.24369812 64.61553955 C-2.72777763 64.59810057 -7.17592467 64.3056915 -12.375 61.25 C-15.19613222 58.21522149 -15.75233386 56.18997357 -15.76318359 52.0859375 C-15.77264008 51.05807129 -15.78209656 50.03020508 -15.7918396 48.97119141 C-15.78576691 47.86694824 -15.77969421 46.76270508 -15.7734375 45.625 C-15.77630768 44.48595215 -15.77917786 43.3469043 -15.78213501 42.17333984 C-15.7841758 39.76594546 -15.77864493 37.3585345 -15.76611328 34.95117188 C-15.75006072 31.26394613 -15.76596238 27.5778166 -15.78515625 23.890625 C-15.78317382 21.55208091 -15.77933016 19.2135375 -15.7734375 16.875 C-15.77951019 15.77075684 -15.78558289 14.66651367 -15.7918396 13.52880859 C-15.77765488 11.98700928 -15.77765488 11.98700928 -15.76318359 10.4140625 C-15.76079681 9.51123535 -15.75841003 8.6084082 -15.75595093 7.67822266 C-15.29551843 4.74337584 -14.41611556 3.38500515 -12.375 1.25 C-8.23358936 -0.13047021 -4.33798777 0.02605398 0 0 Z M-11.375 6.25 C-11.83289289 8.39660697 -11.83289289 8.39660697 -11.76318359 10.91162109 C-11.77264008 11.87957611 -11.78209656 12.84753113 -11.7918396 13.84481812 C-11.78576691 14.89376251 -11.77969421 15.94270691 -11.7734375 17.0234375 C-11.77630768 18.09872711 -11.77917786 19.17401672 -11.78213501 20.28189087 C-11.78417946 22.5600029 -11.77862315 24.83813234 -11.76611328 27.11621094 C-11.75009682 30.60391602 -11.76593366 34.09045666 -11.78515625 37.578125 C-11.78317327 39.78906506 -11.77932847 42.0000044 -11.7734375 44.2109375 C-11.77951019 45.25583344 -11.78558289 46.30072937 -11.7918396 47.37728882 C-11.78238312 48.35154816 -11.77292664 49.3258075 -11.76318359 50.32958984 C-11.76079681 51.18515472 -11.75841003 52.0407196 -11.75595093 52.92221069 C-11.28194442 55.81861336 -10.42567357 57.16458585 -8.375 59.25 C-5.45973439 60.39712646 -2.61257555 60.38125788 0.49780273 60.39526367 C1.462379 60.40164352 2.42695526 60.40802338 3.42076111 60.41459656 C4.45624588 60.41570938 5.49173065 60.4168222 6.55859375 60.41796875 C7.62868179 60.42129715 8.69876984 60.42462555 9.80128479 60.42805481 C12.06323822 60.43311488 14.32519911 60.43546342 16.5871582 60.43530273 C20.04586076 60.43748948 23.50424447 60.45565587 26.96289062 60.47460938 C29.16145724 60.47754343 31.36002538 60.47952814 33.55859375 60.48046875 C34.59205429 60.48765427 35.62551483 60.49483978 36.69029236 60.50224304 C37.65802078 60.49916641 38.62574921 60.49608978 39.62280273 60.49291992 C40.47011459 60.49434494 41.31742645 60.49576996 42.19041443 60.49723816 C44.98739168 60.21319823 47.10137289 59.47632131 49.625 58.25 C53.92468115 51.94462468 52.831618 42.12778892 52.875 34.8125 C52.895625 33.91595703 52.91625 33.01941406 52.9375 32.09570312 C52.94265625 31.24041016 52.9478125 30.38511719 52.953125 29.50390625 C52.9624707 28.73377197 52.97181641 27.9636377 52.98144531 27.17016602 C52.80500488 26.21968384 52.80500488 26.21968384 52.625 25.25 C51.635 24.59 50.645 23.93 49.625 23.25 C49.295 32.82 48.965 42.39 48.625 52.25 C44.70625 52.229375 40.7875 52.20875 36.75 52.1875 C23.02279679 52.15273041 9.33546888 52.60729506 -4.375 53.25 C-4.375 52.26 -4.375 51.27 -4.375 50.25 C3.215 49.92 10.805 49.59 18.625 49.25 C14.73802122 44.64533883 14.73802122 44.64533883 10.625 40.25 C10 38.125 10 38.125 9.625 36.25 C11.605 36.25 13.585 36.25 15.625 36.25 C15.955 32.95 16.285 29.65 16.625 26.25 C20.255 26.25 23.885 26.25 27.625 26.25 C28.12 31.2 28.12 31.2 28.625 36.25 C30.605 36.25 32.585 36.25 34.625 36.25 C34.0766718 40.1231119 32.36418283 41.80381931 29.5625 44.4375 C28.23617394 45.69389675 26.91978069 46.96111809 25.625 48.25 C25.625 48.58 25.625 48.91 25.625 49.25 C32.225 49.25 38.825 49.25 45.625 49.25 C45.625 40.34 45.625 31.43 45.625 22.25 C39.25275108 22.20415648 32.88107134 22.16431078 26.50878906 22.14013672 C24.33982406 22.13006211 22.17087269 22.11640202 20.00195312 22.09912109 C16.88928874 22.07493677 13.77680349 22.06353168 10.6640625 22.0546875 C9.690065 22.04436493 8.7160675 22.03404236 7.71255493 22.02340698 C6.81177216 22.02325592 5.91098938 22.02310486 4.98291016 22.02294922 C4.18793121 22.018508 3.39295227 22.01406677 2.57388306 22.00949097 C0.38856509 22.07631697 0.38856509 22.07631697 -1.375 24.25 C-1.67559943 26.61509361 -1.87015012 28.99441881 -2 31.375 C-2.07476562 32.65632813 -2.14953125 33.93765625 -2.2265625 35.2578125 C-2.27554687 36.24523437 -2.32453125 37.23265625 -2.375 38.25 C-3.86 38.745 -3.86 38.745 -5.375 39.25 C-5.28808261 36.47763506 -5.18122639 33.70852922 -5.0625 30.9375 C-5.02866211 29.75897461 -5.02866211 29.75897461 -4.99414062 28.55664062 C-4.95869141 27.79931641 -4.92324219 27.04199219 -4.88671875 26.26171875 C-4.86053467 25.56522217 -4.83435059 24.86872559 -4.80737305 24.15112305 C-4.23937846 21.65367877 -3.36472666 20.84366012 -1.375 19.25 C0.73210144 18.85127258 0.73210144 18.85127258 3.18823242 18.81762695 C4.10896042 18.79783279 5.02968842 18.77803864 5.97831726 18.75764465 C6.96902725 18.75125473 7.95973724 18.74486481 8.98046875 18.73828125 C9.99724197 18.72033005 11.0140152 18.70237885 12.06159973 18.68388367 C15.31185752 18.6296646 18.5619675 18.59584741 21.8125 18.5625 C24.01499458 18.52933721 26.21746963 18.49484853 28.41992188 18.45898438 C33.82148204 18.37393168 39.22306106 18.30563102 44.625 18.25 C44.13 16.27 44.13 16.27 43.625 14.25 C42.86356689 14.24589111 42.10213379 14.24178223 41.31762695 14.23754883 C37.85680334 14.2045886 34.39773429 14.13393946 30.9375 14.0625 C29.73931641 14.05669922 28.54113281 14.05089844 27.30664062 14.04492188 C18.3904176 13.82139539 18.3904176 13.82139539 14.54296875 10.94921875 C13.91003906 10.05847656 13.27710937 9.16773438 12.625 8.25 C10.26702542 5.19798967 10.26702542 5.19798967 6.76904297 3.90722656 C4.51930101 3.78346263 2.31428637 3.80279082 0.0625 3.875 C-1.08895508 3.87693359 -1.08895508 3.87693359 -2.26367188 3.87890625 C-6.12273854 3.93946702 -8.10204896 4.06803264 -11.375 6.25 Z M19.625 29.25 C19.625 32.88 19.625 36.51 19.625 40.25 C18.635 40.58 17.645 40.91 16.625 41.25 C18.605 42.9 20.585 44.55 22.625 46.25 C24.275 44.27 25.925 42.29 27.625 40.25 C26.635 40.25 25.645 40.25 24.625 40.25 C24.625 36.62 24.625 32.99 24.625 29.25 C22.975 29.25 21.325 29.25 19.625 29.25 Z " fill="#000000" transform="translate(29.375,17.75)"/>
</svg>
