<?xml version="1.0" encoding="UTF-8"?>
<svg version="1.1" xmlns="http://www.w3.org/2000/svg" width="100" height="100">
<path d="M0 0 C8.42894114 5.39343822 14.68039633 12.21275699 18.8125 21.3125 C19.4003125 22.45525391 19.4003125 22.45525391 20 23.62109375 C24.72781363 34.14376229 24.52481889 48.06256836 21.1875 59 C19.09611006 64.25072367 16.24637958 68.83987184 12.8125 73.3125 C12.22339844 74.12460938 11.63429688 74.93671875 11.02734375 75.7734375 C8.45875096 78.7180324 5.5947825 80.83998591 2.375 83 C1.81490234 83.38994141 1.25480469 83.77988281 0.67773438 84.18164062 C-5.02899275 88.07713114 -9.21410411 89.83879403 -16.1875 89.3125 C-18.57691022 86.92308978 -18.45172397 86.32731611 -18.53125 83.06640625 C-18.56089844 82.22916016 -18.59054688 81.39191406 -18.62109375 80.52929688 C-18.64300781 79.65337891 -18.66492187 78.77746094 -18.6875 77.875 C-18.73092611 76.14689616 -18.78266759 74.41897611 -18.84375 72.69140625 C-18.86244141 71.9238501 -18.88113281 71.15629395 -18.90039062 70.36547852 C-19.07908454 68.00483391 -19.07908454 68.00483391 -21.1875 65.3125 C-20.8125 62.625 -20.8125 62.625 -20.1875 60.3125 C-19.37925781 60.15394531 -18.57101563 59.99539062 -17.73828125 59.83203125 C-9.26782633 58.1095254 -9.26782633 58.1095254 -3.1875 52.3125 C-0.65796392 47.38819821 0.50844471 42.8800577 -0.1875 37.3125 C-0.81299049 36.02090275 -1.48333988 34.75044805 -2.1875 33.5 C-4.78862659 28.83812171 -4.57222887 24.52771357 -4.1875 19.3125 C-8.09003857 18.94182299 -8.09003857 18.94182299 -10.46484375 20.8359375 C-14.0274317 22.76801533 -16.86767886 22.38057083 -20.75 21.9375 C-25.88096782 21.45647177 -30.54663983 21.32546676 -35.6875 22 C-41.40049992 22.63910777 -44.35499823 21.32141619 -49.1875 18.3125 C-49.5175 18.3125 -49.8475 18.3125 -50.1875 18.3125 C-50.13529297 19.43398438 -50.13529297 19.43398438 -50.08203125 20.578125 C-50.05496094 21.56296875 -50.02789062 22.5478125 -50 23.5625 C-49.94779297 25.02429687 -49.94779297 25.02429687 -49.89453125 26.515625 C-50.23206321 29.73793008 -51.12821105 30.88492512 -53.1875 33.3125 C-55.25652916 39.51958748 -54.50992001 45.41311786 -52.33203125 51.48828125 C-49.25071435 56.3994587 -44.74298982 58.04428066 -39.375 59.5625 C-38.21355469 59.89765625 -37.05210938 60.2328125 -35.85546875 60.578125 C-34.97503906 60.82046875 -34.09460937 61.0628125 -33.1875 61.3125 C-33.9306313 65.43477551 -35.04031406 68.67880071 -37.1875 72.3125 C-38.1775 72.6425 -39.1675 72.9725 -40.1875 73.3125 C-39.1975 73.6425 -38.2075 73.9725 -37.1875 74.3125 C-35.95565234 76.77619532 -36.02017658 78.5019501 -36 81.25 C-35.98582031 82.12527344 -35.97164062 83.00054687 -35.95703125 83.90234375 C-36.1875 86.3125 -36.1875 86.3125 -38.1875 89.3125 C-45.33267121 90.71046828 -51.20492785 86.91002005 -57.1875 83.3125 C-67.68725306 75.99826524 -74.43800011 64.71655851 -77.1875 52.3125 C-78.49681059 38.27470163 -77.51915571 25.24916736 -69 13.5 C-51.01659091 -7.35764726 -24.52817836 -13.4436886 0 0 Z M-61.1875 13.3125 C-62.0125 14.17875 -62.8375 15.045 -63.6875 15.9375 C-71.87632452 25.88847663 -73.25181499 37.95098677 -72.1875 50.3125 C-70.18349079 60.71886108 -64.73960042 69.02538556 -57.1875 76.3125 C-56.1975 75.8175 -56.1975 75.8175 -55.1875 75.3125 C-58.39607454 69.82044812 -58.39607454 69.82044812 -62.5625 65.0625 C-63.09875 64.485 -63.635 63.9075 -64.1875 63.3125 C-63.9375 61.0625 -63.9375 61.0625 -63.1875 59.3125 C-59.63884864 59.23184883 -56.60360225 59.36935873 -53.1875 60.3125 C-53.71150391 59.40757813 -53.71150391 59.40757813 -54.24609375 58.484375 C-54.92865234 57.28554687 -54.92865234 57.28554687 -55.625 56.0625 C-56.07746094 55.27359375 -56.52992187 54.4846875 -56.99609375 53.671875 C-60.05749773 47.60929139 -59.67020716 40.964041 -59.1875 34.3125 C-58.25171005 31.95268187 -57.25402192 29.61618736 -56.1875 27.3125 C-55.78767883 24.46125005 -55.56700047 21.63922233 -55.3984375 18.765625 C-55.1875 16.3125 -55.1875 16.3125 -54.1875 13.3125 C-49.59534147 12.921678 -46.83399846 13.30530694 -42.6875 15.375 C-38.40110393 17.44204379 -35.89712789 17.34005518 -31.1875 16.3125 C-26.98137849 16.17897233 -23.30557857 16.27273151 -19.1875 17.0625 C-15.13128983 17.64989638 -12.75170068 16.45552274 -9.33984375 14.3203125 C-6.36582691 12.92776015 -3.42975399 12.6783726 -0.1875 12.3125 C-0.02314453 13.92318359 -0.02314453 13.92318359 0.14453125 15.56640625 C0.30411587 17.0026678 0.46430442 18.43886233 0.625 19.875 C0.73038086 20.93170898 0.73038086 20.93170898 0.83789062 22.00976562 C1.25387475 25.62050784 1.84420561 28.68725778 3.36328125 32.00390625 C6.37390589 38.87721912 5.44529631 46.48157267 2.77734375 53.37890625 C-0.06601342 59.07713217 -4.55178869 61.18747116 -10.19921875 63.41796875 C-12.36045592 64.24896884 -12.36045592 64.24896884 -14.1875 66.3125 C-14.37184051 68.25415643 -14.37184051 68.25415643 -14.1640625 70.4453125 C-14.1125 71.25097656 -14.0609375 72.05664062 -14.0078125 72.88671875 C-13.94335938 73.72847656 -13.87890625 74.57023437 -13.8125 75.4375 C-13.72742187 76.71173828 -13.72742187 76.71173828 -13.640625 78.01171875 C-13.49899023 80.1126345 -13.34445674 82.21267334 -13.1875 84.3125 C-1.8797578 81.51701367 6.58563197 74.06401031 12.8125 64.3125 C14.42443045 61.05115235 15.73406201 57.78543589 16.8125 54.3125 C17.00328125 53.71308594 17.1940625 53.11367188 17.390625 52.49609375 C19.73958876 40.33803132 17.56650266 29.07405346 11.0625 18.625 C3.30239829 7.81490807 -6.1397614 1.41910443 -19.1875 -1.6875 C-35.61089811 -3.15417937 -49.87132797 0.73897552 -61.1875 13.3125 Z M-53.1875 60.3125 C-50.3079024 64.88998509 -50.3079024 64.88998509 -46.1875 68.3125 C-43.54117713 68.0003236 -43.54117713 68.0003236 -41.1875 67.3125 C-41.85449365 64.21300335 -41.85449365 64.21300335 -44.18359375 63.14453125 C-44.98925781 62.80808594 -45.79492188 62.47164063 -46.625 62.125 C-47.42808594 61.78082031 -48.23117188 61.43664062 -49.05859375 61.08203125 C-51.12369585 60.19918624 -51.12369585 60.19918624 -53.1875 60.3125 Z M-54.1875 77.3125 C-50.66927751 81.74851966 -46.43359814 82.83283129 -41.1875 84.3125 C-41.1875 82.6625 -41.1875 81.0125 -41.1875 79.3125 C-41.79078125 79.25191406 -42.3940625 79.19132812 -43.015625 79.12890625 C-43.81484375 79.04511719 -44.6140625 78.96132812 -45.4375 78.875 C-46.62085938 78.75318359 -46.62085938 78.75318359 -47.828125 78.62890625 C-50.01114639 78.33615007 -52.0648182 77.89185581 -54.1875 77.3125 Z " fill="#000000" transform="translate(77.1875,8.6875)"/>
</svg>
