<?xml version="1.0" encoding="UTF-8"?>
<svg version="1.1" xmlns="http://www.w3.org/2000/svg" width="100" height="100">
<path d="M0 0 C4.68272555 4.84101486 10 15.31119119 10 22 C14.29 22.66 18.58 23.32 23 24 C23 25.32 23 26.64 23 28 C20.93682081 27.96677164 18.87420908 27.89716508 16.8125 27.8125 C15.66394531 27.77769531 14.51539063 27.74289063 13.33203125 27.70703125 C9.019967 26.79204458 7.70105825 25.45844958 5 22 C3.52635314 19.34577871 2.33826015 16.61954186 1.1875 13.8125 C0.72053711 12.72678711 0.72053711 12.72678711 0.24414062 11.61914062 C-2 6.31705014 -2 6.31705014 -2 4 C-3.98 4 -5.96 4 -8 4 C-8.27070312 4.84175781 -8.54140625 5.68351562 -8.8203125 6.55078125 C-10.05328395 10.15579381 -11.41845881 13.66689654 -12.875 17.1875 C-13.36742187 18.39792969 -13.85984375 19.60835937 -14.3671875 20.85546875 C-16.75690866 25.45768295 -16.75690866 25.45768295 -20 27 C-23.15219823 27.58285787 -26.30491346 27.83359108 -29.5 28.0625 C-31.19849222 28.19187233 -32.89646161 28.32834702 -34.59375 28.47265625 C-35.71813477 28.55398804 -35.71813477 28.55398804 -36.86523438 28.63696289 C-39.21249752 29.03613722 -40.93255678 29.8407216 -43 31 C-42.73226717 34.53033752 -42.20887145 35.79527145 -39.63671875 38.31640625 C-38.66347656 39.05761719 -37.69023438 39.79882812 -36.6875 40.5625 C-27.43538998 47.68995992 -27.43538998 47.68995992 -26.12109375 51.64453125 C-25.92554346 57.06316676 -27.40651386 62.04561052 -28.70507812 67.27539062 C-28.89650391 68.09587891 -29.08792969 68.91636719 -29.28515625 69.76171875 C-29.46957275 70.50381592 -29.65398926 71.24591309 -29.84399414 72.01049805 C-30.23147119 74.322345 -30.23147119 74.322345 -28 77 C-25.08100809 76.38842087 -22.86358769 75.48081429 -20.3203125 73.93359375 C-19.63839844 73.53076172 -18.95648438 73.12792969 -18.25390625 72.71289062 C-16.83864834 71.86503428 -15.4271401 71.0108862 -14.01953125 70.15039062 C-9.88318084 67.72388751 -6.91218836 66.09175684 -2 67 C0.84508328 68.26598525 3.47055637 69.81479281 6.125 71.4375 C7.52090973 72.27376519 8.91927472 73.10594856 10.3203125 73.93359375 C11.23707764 74.4913147 11.23707764 74.4913147 12.17236328 75.06030273 C14.09714553 76.04994832 15.88776021 76.55744935 18 77 C19.28962911 74.84870938 20.040817 73.52621351 19.84399414 70.98876953 C19.65957764 70.29380371 19.47516113 69.59883789 19.28515625 68.8828125 C19.09373047 68.11066406 18.90230469 67.33851562 18.70507812 66.54296875 C18.38700195 65.34607422 18.38700195 65.34607422 18.0625 64.125 C15.30320977 53.65165688 15.30320977 53.65165688 17 49 C18.9097815 46.67350529 21.08599675 44.75864608 23.375 42.8125 C24.54969495 41.77758862 25.72418089 40.74243995 26.8984375 39.70703125 C27.68226807 39.03377808 27.68226807 39.03377808 28.48193359 38.34692383 C30.06329482 36.94384087 31.59159092 35.57871727 33 34 C33.07642709 31.88850355 33.07642709 31.88850355 32 30 C30.0162233 28.71563266 30.0162233 28.71563266 28 28 C28 27.01 28 26.02 28 25 C31 24 31 24 33.5625 25.25 C36 27 36 27 38 30 C38.59766769 33.84214944 38.30805554 35.52198278 36.1875 38.8125 C32.73080819 42.65103568 28.40996287 45.56062109 24.23046875 48.55859375 C21.68549264 50.87209139 21.68549264 50.87209139 21.578125 54.37890625 C21.98601428 57.87995589 22.64241214 61.10021347 23.5625 64.5 C25.64346143 73.17233206 25.64346143 73.17233206 24 78 C21.875 80.5 21.875 80.5 19 82 C12.13377693 81.74879672 7.91716188 78.76489235 2.4296875 75.0625 C-1.24326815 72.68673207 -1.24326815 72.68673207 -5.46875 71.9375 C-9.89302745 73.79460411 -13.8983534 76.3695118 -17.94140625 78.9375 C-21.61584374 81.13516357 -23.45243391 82.01443886 -27.8515625 81.8984375 C-31 81 -31 81 -33.5 79 C-36.46402771 73.07194459 -34.01641318 66.48589549 -32.40234375 60.3359375 C-31.81581003 56.93062521 -31.50286184 54.46883714 -32 51 C-34.14639465 48.30958134 -36.72893565 46.29197837 -39.4375 44.1875 C-40.83395763 43.05836789 -42.22858336 41.92696525 -43.62109375 40.79296875 C-44.55586548 40.05856567 -44.55586548 40.05856567 -45.50952148 39.30932617 C-47.73328989 37.35583396 -47.983983 36.14415297 -48.3125 33.1875 C-47.92653707 29.25067812 -46.76603321 27.76603321 -44 25 C-41.22358445 24.07452815 -39.00710436 23.72791858 -36.11328125 23.46484375 C-35.17548828 23.37783203 -34.23769531 23.29082031 -33.27148438 23.20117188 C-32.29501953 23.11416016 -31.31855469 23.02714844 -30.3125 22.9375 C-29.32443359 22.84662109 -28.33636719 22.75574219 -27.31835938 22.66210938 C-24.87917852 22.43822321 -22.43974413 22.21764761 -20 22 C-19.81751709 21.42499756 -19.63503418 20.84999512 -19.44702148 20.25756836 C-17.91691701 15.53709573 -16.2515331 11.027663 -14.0625 6.5625 C-13.57910156 5.55316406 -13.09570312 4.54382813 -12.59765625 3.50390625 C-9.37004277 -1.55452955 -5.54601434 -1.75137295 0 0 Z " fill="#000000" transform="translate(55,11)"/>
</svg>
