<svg xmlns="http://www.w3.org/2000/svg" width="100" height="100" viewBox="0 0 100 100" version="1.1"><path d="" stroke="none" fill="#080404" fill-rule="evenodd"/><path d="M 27.386 27.414 C 16.328 34.792, 6.992 41.578, 6.640 42.496 C 4.864 47.123, 7.859 52, 12.475 52 L 14.950 52 15.225 68.250 L 15.500 84.500 25 84.500 C 32.778 84.500, 34.500 84.228, 34.500 83 C 34.500 81.821, 32.842 81.438, 26.750 81.208 L 19 80.916 19 63.341 L 19 45.767 16.750 46.471 C 12.283 47.870, 10.500 47.593, 10.500 45.500 C 10.500 44.018, 15.417 40.196, 29.474 30.750 C 39.909 23.738, 49.146 18, 50 18 C 50.854 18, 60.091 23.738, 70.526 30.750 C 84.583 40.196, 89.500 44.018, 89.500 45.500 C 89.500 47.593, 87.717 47.870, 83.250 46.471 L 81 45.767 81 63.383 L 81 81 62 81 L 43 81 43 65 L 43 49 50 49 L 57 49 57 53.793 C 57 58.338, 56.832 58.636, 53.750 59.543 C 50.885 60.387, 50.500 60.914, 50.500 64 C 50.500 67.075, 50.889 67.615, 53.702 68.443 C 56.542 69.280, 56.938 69.844, 57.202 73.435 C 57.416 76.349, 57.990 77.576, 59.250 77.815 C 60.860 78.120, 61 76.817, 61 61.573 L 61 45 49.979 45 L 38.958 45 39.229 64.750 L 39.500 84.500 62 84.500 L 84.500 84.500 84.775 68.250 L 85.050 52 87.525 52 C 92.345 52, 95.421 46.524, 93.070 42.130 C 91.567 39.322, 52.772 14, 49.971 14 C 48.455 14, 39.684 19.209, 27.386 27.414 M 54 64 C 54 64.550, 54.450 65, 55 65 C 55.550 65, 56 64.550, 56 64 C 56 63.450, 55.550 63, 55 63 C 54.450 63, 54 63.450, 54 64" stroke="none" fill="#040404" fill-rule="evenodd"/></svg>