<?xml version="1.0" encoding="UTF-8"?>
<svg version="1.1" xmlns="http://www.w3.org/2000/svg" width="100" height="100">
<path d="M0 0 C0.73192566 -0.0065712 1.46385132 -0.0131424 2.21795654 -0.01991272 C4.64563089 -0.03965868 7.07324329 -0.05131219 9.50097656 -0.0612793 C10.33012825 -0.06535482 11.15927994 -0.06943035 12.01355743 -0.07362938 C16.40356701 -0.09449734 20.79354528 -0.10879494 25.18359375 -0.11816406 C29.7142609 -0.12921991 34.24443575 -0.16360789 38.77492905 -0.20333576 C42.26142274 -0.22950758 45.74779935 -0.23785647 49.23438263 -0.24144554 C50.90410938 -0.24631139 52.5738309 -0.25792541 54.24346161 -0.27648354 C56.58457663 -0.30088415 58.92442121 -0.2999087 61.265625 -0.29296875 C62.29453857 -0.31218384 62.29453857 -0.31218384 63.34423828 -0.33178711 C69.04263474 -0.27042455 72.55815168 1.86017998 76.53613281 5.80981445 C80.32100388 10.64533535 81.04529627 13.26951272 81.06860352 19.28540039 C81.07517471 20.01732605 81.08174591 20.74925171 81.08851624 21.50335693 C81.1082622 23.93103128 81.1199157 26.35864368 81.12988281 28.78637695 C81.13395834 29.61552864 81.13803387 30.44468033 81.14223289 31.29895782 C81.16310086 35.6889674 81.17739846 40.07894567 81.18676758 44.46899414 C81.19782343 48.9996613 81.2322114 53.52983614 81.27193928 58.06032944 C81.29811109 61.54682313 81.30645998 65.03319974 81.31004906 68.51978302 C81.31491491 70.18950977 81.32652893 71.85923129 81.34508705 73.528862 C81.36948766 75.86997703 81.36851221 78.2098216 81.36157227 80.55102539 C81.37438232 81.23696777 81.38719238 81.92291016 81.40039062 82.62963867 C81.33902807 88.32803513 79.20842354 91.84355207 75.25878906 95.8215332 C70.42326817 99.60640427 67.7990908 100.33069666 61.78320312 100.35400391 C61.05127747 100.3605751 60.31935181 100.3671463 59.56524658 100.37391663 C57.13757223 100.39366259 54.70995983 100.40531609 52.28222656 100.4152832 C51.45307487 100.41935873 50.62392319 100.42343426 49.76964569 100.42763329 C45.37963611 100.44850125 40.98965784 100.46279885 36.59960938 100.47216797 C32.06894222 100.48322382 27.53876738 100.51761179 23.00827408 100.55733967 C19.52178039 100.58351148 16.03540378 100.59186037 12.5488205 100.59544945 C10.87909374 100.6003153 9.20937222 100.61192932 7.53974152 100.63048744 C5.19862649 100.65488806 2.85878191 100.65391261 0.51757812 100.64697266 C-0.16836426 100.65978271 -0.85430664 100.67259277 -1.56103516 100.68579102 C-7.25943162 100.62442846 -10.77494855 98.49382393 -14.75292969 94.54418945 C-18.53780076 89.70866856 -19.26209315 87.08449119 -19.28540039 81.06860352 C-19.29197159 80.33667786 -19.29854279 79.6047522 -19.30531311 78.85064697 C-19.32505908 76.42297262 -19.33671258 73.99536022 -19.34667969 71.56762695 C-19.35075521 70.73847527 -19.35483074 69.90932358 -19.35902977 69.05504608 C-19.37989773 64.6650365 -19.39419533 60.27505823 -19.40356445 55.88500977 C-19.4146203 51.35434261 -19.44900828 46.82416777 -19.48873615 42.29367447 C-19.51490797 38.80718078 -19.52325686 35.32080417 -19.52684593 31.83422089 C-19.53171178 30.16449414 -19.5433258 28.49477261 -19.56188393 26.82514191 C-19.58628454 24.48402688 -19.58530909 22.1441823 -19.57836914 19.80297852 C-19.5911792 19.11703613 -19.60398926 18.43109375 -19.6171875 17.72436523 C-19.55582495 12.02596877 -17.42522041 8.51045184 -13.47558594 4.5324707 C-8.64006504 0.74759963 -6.01588767 0.02330724 0 0 Z M-12.95814514 11.48439026 C-14.41366339 14.89159238 -14.49643627 17.55406414 -14.51245117 21.25878906 C-14.51931442 21.95213852 -14.52617767 22.64548798 -14.5332489 23.35984802 C-14.5514829 25.64155823 -14.54768448 27.92257858 -14.54199219 30.2043457 C-14.54655575 31.7970858 -14.55186185 33.38982393 -14.55787659 34.9825592 C-14.56680106 38.31723033 -14.56439237 41.65166188 -14.55444336 44.98632812 C-14.54295619 49.25132166 -14.56316395 53.51548692 -14.5923605 57.78037167 C-14.61074226 61.06874307 -14.61042612 64.35691671 -14.60472298 67.64532661 C-14.60456999 69.21734339 -14.6105954 70.78937375 -14.62301445 72.36134148 C-14.63796048 74.56335671 -14.6272232 76.76385135 -14.61010742 78.96582031 C-14.60994125 80.21648788 -14.60977509 81.46715546 -14.60960388 82.75572205 C-13.86498195 87.83858796 -11.77993432 90.8369943 -7.80101013 94.02674866 C-4.39380801 95.48226691 -1.73133626 95.56503979 1.97338867 95.58105469 C3.01341286 95.59134956 3.01341286 95.59134956 4.07444763 95.60185242 C6.35615784 95.62008641 8.63717819 95.61628799 10.91894531 95.6105957 C12.51168541 95.61515927 14.10442354 95.62046536 15.69715881 95.6264801 C19.03182993 95.63540457 22.36626149 95.63299588 25.70092773 95.62304688 C29.96592127 95.6115597 34.23008653 95.63176747 38.49497128 95.66096401 C41.78334267 95.67934577 45.07151632 95.67902964 48.35992622 95.67332649 C49.93194299 95.67317351 51.50397336 95.67919892 53.07594109 95.69161797 C55.27795632 95.706564 57.47845096 95.69582671 59.68041992 95.67871094 C60.93108749 95.67854477 62.18175507 95.6783786 63.47032166 95.6782074 C68.55318757 94.93358546 71.55159391 92.84853783 74.74134827 88.86961365 C76.19686652 85.46241153 76.2796394 82.79993977 76.2956543 79.09521484 C76.30594917 78.05519066 76.30594917 78.05519066 76.31645203 76.99415588 C76.33468602 74.71244568 76.3308876 72.43142532 76.32519531 70.1496582 C76.32975888 68.55691811 76.33506497 66.96417998 76.34107971 65.3714447 C76.35000418 62.03677358 76.34759549 58.70234203 76.33764648 55.36767578 C76.32615931 51.10268225 76.34636708 46.83851698 76.37556362 42.57363224 C76.39394538 39.28526084 76.39362925 35.99708719 76.3879261 32.70867729 C76.38777312 31.13666052 76.39379853 29.56463015 76.40621758 27.99266243 C76.42116361 25.79064719 76.41042632 23.59015256 76.39331055 21.38818359 C76.39314438 20.13751602 76.39297821 18.88684845 76.39280701 17.59828186 C75.64818507 12.51541594 73.56313744 9.51700961 69.58421326 6.32725525 C66.17701114 4.871737 63.51453938 4.78896412 59.80981445 4.77294922 C58.76979027 4.76265434 58.76979027 4.76265434 57.70875549 4.75215149 C55.42704529 4.73391749 53.14602493 4.73771591 50.86425781 4.7434082 C49.27151772 4.73884464 47.67877959 4.73353854 46.08604431 4.7275238 C42.75137319 4.71859933 39.41694164 4.72100802 36.08227539 4.73095703 C31.81728186 4.7424442 27.55311659 4.72223644 23.28823185 4.69303989 C19.99986045 4.67465813 16.7116868 4.67497427 13.4232769 4.68067741 C11.85126013 4.6808304 10.27922976 4.67480499 8.70726204 4.66238594 C6.5052468 4.64743991 4.30475217 4.6581772 2.1027832 4.67529297 C0.22678185 4.67554222 0.22678185 4.67554222 -1.68711853 4.67579651 C-6.76998445 5.42041845 -9.76839078 7.50546607 -12.95814514 11.48439026 Z " fill="#000000" transform="translate(19.1083984375,-0.177001953125)"/>
<path d="M0 0 C6.29671422 3.64546613 10.25669741 9.1292571 12.5 16 C13.52913515 24.87222827 13.0486814 32.74403202 7.5 40 C1.70011527 45.61279168 -4.07911606 48.28314107 -12.1875 48.4375 C-19.92067973 48.2998413 -25.89547136 46.7246796 -31.375 41.0625 C-37.56741076 33.20290173 -38.52404309 25.88471072 -37.5 16 C-35.36807613 8.57297219 -31.1945133 3.75298473 -24.5 0 C-16.99776845 -3.63173353 -7.55303575 -3.4040237 0 0 Z M-28.375 9.9375 C-32.4875577 15.86442139 -33.37157473 20.85308718 -32.5 28 C-30.40565301 34.85422651 -26.3616256 38.74738507 -20.25 42.3125 C-13.5168847 43.99577882 -7.33511817 43.74626453 -1.25390625 40.26953125 C3.00271929 37.18845486 6.21452695 33.14189221 7.5 28 C8.27223453 21.14493349 7.60130869 15.6661157 3.5 10 C-1.07172775 5.07756437 -5.67978995 2.93891452 -12.3125 2.625 C-18.93797125 2.78274932 -23.95991443 4.95604777 -28.375 9.9375 Z " fill="#000000" transform="translate(62.5,27)"/>
<path d="M0 0 C1.9375 1.6875 1.9375 1.6875 3 4 C2.92897215 7.4803645 2.61415498 9.29485909 0.3125 11.9375 C-2.89943934 13.41325591 -4.66474802 13.06444212 -8 12 C-9.9375 10.3125 -9.9375 10.3125 -11 8 C-10.92897215 4.5196355 -10.61415498 2.70514091 -8.3125 0.0625 C-5.10056066 -1.41325591 -3.33525198 -1.06444212 0 0 Z M-5 5 C-5 5.66 -5 6.32 -5 7 C-4.34 7 -3.68 7 -3 7 C-3 6.34 -3 5.68 -3 5 C-3.66 5 -4.32 5 -5 5 Z " fill="#000000" transform="translate(81,17)"/>
</svg>
