<?xml version="1.0" encoding="UTF-8"?>
<svg version="1.1" xmlns="http://www.w3.org/2000/svg" width="100" height="100">
<path d="M0 0 C6.18563866 5.33417423 9.47968689 11.57013482 10.26213074 19.73553467 C10.3448142 22.76695071 10.3378011 25.78420833 10.29296875 28.81640625 C10.28872391 29.91347397 10.28447906 31.01054169 10.28010559 32.14085388 C10.26342927 35.61499478 10.22579717 39.08853699 10.1875 42.5625 C10.17243891 44.93033011 10.15875301 47.2981694 10.14648438 49.66601562 C10.11612497 55.44442178 10.05738073 61.2215476 10 67 C2.08 67 -5.84 67 -14 67 C-15.70406442 63.59187116 -15.20143278 59.69406936 -15.24609375 55.94140625 C-15.27902676 54.09309413 -15.3122385 52.24478695 -15.34570312 50.39648438 C-15.39316819 47.47553863 -15.43760583 44.55461373 -15.47680664 41.63354492 C-15.51646415 38.81928634 -15.56801896 36.00543923 -15.62109375 33.19140625 C-15.6295079 32.31633926 -15.63792206 31.44127228 -15.64659119 30.53968811 C-15.67155418 29.31843483 -15.67155418 29.31843483 -15.69702148 28.07250977 C-15.70732895 27.35684341 -15.71763641 26.64117706 -15.72825623 25.90382385 C-15.90712041 23.67179303 -15.90712041 23.67179303 -18 21 C-20.99165569 19.94887773 -22.62130653 19.8943181 -25.6875 20.75 C-28.2856128 21.92121263 -28.2856128 21.92121263 -30 25 C-31.08871346 29.78260977 -31.20849596 34.57639576 -31.31640625 39.4609375 C-31.33718735 40.25150543 -31.35796844 41.04207336 -31.37937927 41.8565979 C-31.44435582 44.36265017 -31.50351643 46.86880024 -31.5625 49.375 C-31.60573468 51.08204105 -31.64935049 52.78907249 -31.69335938 54.49609375 C-31.7999834 58.66396426 -31.90139441 62.83193239 -32 67 C-35.97915159 67.02886984 -39.95827653 67.04675406 -43.9375 67.0625 C-45.64196289 67.07506836 -45.64196289 67.07506836 -47.38085938 67.08789062 C-48.46044922 67.09111328 -49.54003906 67.09433594 -50.65234375 67.09765625 C-52.15269165 67.10551147 -52.15269165 67.10551147 -53.68334961 67.11352539 C-56 67 -56 67 -57 66 C-57.10465469 63.95531026 -57.13856044 61.90697446 -57.14526367 59.85961914 C-57.15164352 58.54478043 -57.15802338 57.22994171 -57.16459656 55.8752594 C-57.16612511 54.42855872 -57.16723914 52.98185755 -57.16796875 51.53515625 C-57.1711796 50.06164008 -57.17454354 48.58812424 -57.17805481 47.11460876 C-57.18405252 44.0217922 -57.18589406 40.92900361 -57.18530273 37.83618164 C-57.18520108 33.86686232 -57.19885321 29.89772178 -57.21607494 25.92844486 C-57.22717637 22.88389762 -57.22922252 19.83939383 -57.22869301 16.79482841 C-57.22987594 15.33115459 -57.23431516 13.86747975 -57.24202538 12.40382576 C-57.2517872 10.35916558 -57.24769288 8.3144533 -57.24291992 6.26977539 C-57.24434494 5.10474991 -57.24576996 3.93972443 -57.24723816 2.73939514 C-57 0 -57 0 -55 -2 C-51.54056667 -2.45091675 -48.04795566 -2.32406422 -44.5625 -2.3125 C-43.59505859 -2.32861328 -42.62761719 -2.34472656 -41.63085938 -2.36132812 C-40.70208984 -2.36197266 -39.77332031 -2.36261719 -38.81640625 -2.36328125 C-37.96506104 -2.36626221 -37.11371582 -2.36924316 -36.23657227 -2.37231445 C-33.55756265 -1.92634898 -32.68377654 -1.07463487 -31 1 C-30.2575 0.525625 -29.515 0.05125 -28.75 -0.4375 C-20.92202652 -4.88521221 -7.6221562 -5.09283083 0 0 Z M-31.25 8.6875 C-31.8275 9.450625 -32.405 10.21375 -33 11 C-34.32 11.33 -35.64 11.66 -37 12 C-37.33 9.03 -37.66 6.06 -38 3 C-42.29 3 -46.58 3 -51 3 C-51 22.47 -51 41.94 -51 62 C-46.38 62 -41.76 62 -37 62 C-36.98541748 61.01717041 -36.97083496 60.03434082 -36.95581055 59.02172852 C-36.8973541 55.33680837 -36.82012942 51.65246944 -36.73754883 47.96801758 C-36.70452021 46.38054922 -36.67642131 44.79296965 -36.65356445 43.20532227 C-36.34515685 22.34515685 -36.34515685 22.34515685 -31 17 C-25.83919665 14.41959833 -21.28009475 14.38612834 -15.75 15.875 C-11.54684236 19.12289454 -10.96705626 22.88250085 -10 28 C-9.41627847 33.85480282 -9.39759844 39.74647314 -9.3125 45.625 C-9.27926264 47.21747488 -9.24476725 48.80992403 -9.20898438 50.40234375 C-9.12482145 54.26808537 -9.05767154 58.13377615 -9 62 C-4.38 62 0.24 62 5 62 C5.07456924 56.04096157 5.12879953 50.08219925 5.16479492 44.12280273 C5.17981245 42.09866601 5.20023261 40.07456145 5.22631836 38.05053711 C5.26301267 35.12866239 5.27979708 32.20722065 5.29296875 29.28515625 C5.30845261 28.39103531 5.32393646 27.49691437 5.33988953 26.57569885 C5.34179289 19.3499716 4.28320205 12.91742484 -0.25 7.125 C-6.13179332 2.57997789 -10.93201874 1.42634535 -18.28125 1.6484375 C-23.82349581 2.36510722 -27.67673279 4.41943083 -31.25 8.6875 Z " fill="#000000" transform="translate(90,33)"/>
<path d="M0 0 C0.98162109 -0.00128906 1.96324219 -0.00257812 2.97460938 -0.00390625 C4.51665039 0.00189453 4.51665039 0.00189453 6.08984375 0.0078125 C7.12173828 0.00394531 8.15363281 0.00007813 9.21679688 -0.00390625 C10.19712891 -0.00261719 11.17746094 -0.00132813 12.1875 0 C13.54307007 0.00169189 13.54307007 0.00169189 14.92602539 0.00341797 C17.02734375 0.1328125 17.02734375 0.1328125 18.02734375 1.1328125 C18.12156115 3.24962567 18.14477136 5.36962008 18.14086914 7.48852539 C18.14101517 8.15191422 18.14116119 8.81530304 18.14131165 9.49879456 C18.14061256 11.70105206 18.1328204 13.90322595 18.125 16.10546875 C18.12313581 17.62861586 18.12171191 19.15176357 18.12071228 20.6749115 C18.11688721 24.69118901 18.10705703 28.70743058 18.0960083 32.72369385 C18.08579394 36.81904616 18.08121461 40.91440426 18.07617188 45.00976562 C18.06543474 53.05079962 18.04783804 61.09179745 18.02734375 69.1328125 C9.77734375 69.1328125 1.52734375 69.1328125 -6.97265625 69.1328125 C-6.97265625 46.6928125 -6.97265625 24.2528125 -6.97265625 1.1328125 C-4.4826996 -0.11216583 -2.78270714 0.00346878 0 0 Z M-1.97265625 5.1328125 C-1.97265625 24.6028125 -1.97265625 44.0728125 -1.97265625 64.1328125 C2.97734375 64.1328125 7.92734375 64.1328125 13.02734375 64.1328125 C13.02734375 44.6628125 13.02734375 25.1928125 13.02734375 5.1328125 C8.07734375 5.1328125 3.12734375 5.1328125 -1.97265625 5.1328125 Z " fill="#000000" transform="translate(7.97265625,30.8671875)"/>
<path d="M0 0 C4.25309444 1.68351655 6.150909 3.83954525 8 8 C9.36436329 14.04218029 9.19517261 17.46170082 6 23 C2.5978241 26.80243189 -0.70427132 27.81711919 -5.65234375 28.1640625 C-10.7297195 27.80923757 -14.51059959 25.53594417 -18 21.9375 C-19.59321498 17.25743101 -19.88392208 12.87201144 -19 8 C-14.35954223 -0.11725334 -8.81504275 -0.70163148 0 0 Z M-14 10 C-14.83333333 13.5 -14.83333333 13.5 -14 17 C-11.72103757 19.99520777 -9.995378 21.6018488 -6.5 23 C-3.1817247 23 -1.62123356 21.98363621 1 20 C3.50031654 16.24952518 3.53603554 14.44143734 3 10 C0.40783917 6.30813458 -1.04149064 5.17116239 -5.5 4.375 C-9.95850936 5.17116239 -11.40783917 6.30813458 -14 10 Z " fill="#000000" transform="translate(19,0)"/>
</svg>
