<?xml version="1.0" encoding="UTF-8"?>
<svg version="1.1" xmlns="http://www.w3.org/2000/svg" width="100" height="100">
<path d="M0 0 C3.38726487 2.63453934 4.0863467 4.46804917 4.625 8.6875 C4.16028651 12.48266019 2.72009816 13.90564454 0.25 16.75 C-0.39400687 18.8346686 -0.39400687 18.8346686 -0.75 20.75 C0.38429443 20.71072388 0.38429443 20.71072388 1.54150391 20.6706543 C4.98578915 20.56637002 8.42974177 20.50157228 11.875 20.4375 C13.06480469 20.39560547 14.25460938 20.35371094 15.48046875 20.31054688 C25.37131513 20.17240656 25.37131513 20.17240656 29.0234375 23.14453125 C32.07112438 26.71085958 32.37137856 28.28247226 32.3125 32.875 C32.30347656 33.78507812 32.29445313 34.69515625 32.28515625 35.6328125 C32.27355469 36.33148438 32.26195313 37.03015625 32.25 37.75 C33.9515625 37.7190625 33.9515625 37.7190625 35.6875 37.6875 C39.25 37.75 39.25 37.75 40.25 38.75 C40.34873816 40.74799572 40.37971799 42.74957158 40.375 44.75 C40.37886719 46.3896875 40.37886719 46.3896875 40.3828125 48.0625 C40.25 50.75 40.25 50.75 39.25 51.75 C36.82512962 51.87559165 34.43023127 51.9386098 32.00390625 51.953125 C31.27759506 51.95882507 30.55128387 51.96452515 29.80296326 51.97039795 C28.26375796 51.97986 26.7245323 51.9863867 25.18530273 51.99023438 C22.82565139 51.99994587 20.46686876 52.03095857 18.10742188 52.0625 C16.61458853 52.0690292 15.12174893 52.07428 13.62890625 52.078125 C12.92053116 52.0904718 12.21215607 52.1028186 11.48231506 52.11553955 C9.49047852 52.10644531 9.49047852 52.10644531 6.25 51.75 C5.59 50.76 4.93 49.77 4.25 48.75 C5.054375 48.3375 5.85875 47.925 6.6875 47.5 C9.34781008 46.00786926 9.34781008 46.00786926 10.1875 43.6875 C10.208125 43.048125 10.22875 42.40875 10.25 41.75 C9.59 41.09 8.93 40.43 8.25 39.75 C6.19285168 39.76382865 6.19285168 39.76382865 4.25 40.75 C3.11442117 42.76045514 3.11442117 42.76045514 2.25 44.75 C-0.3558889 44.88494246 -2.95482111 44.98402299 -5.5625 45.0625 C-6.30048828 45.10439453 -7.03847656 45.14628906 -7.79882812 45.18945312 C-9.95703125 45.23828125 -9.95703125 45.23828125 -13.75 44.75 C-15.76171875 42.23046875 -15.76171875 42.23046875 -16.75 39.75 C-18.73491642 40.01676204 -18.73491642 40.01676204 -20.75 40.75 C-21.08 41.74 -21.41 42.73 -21.75 43.75 C-20.89532959 46.01297735 -20.89532959 46.01297735 -18.25 46.75 C-15.75 48.75 -15.75 48.75 -15.3046875 51.0625 C-15.18645241 52.8308857 -15.1123086 54.60286228 -15.0859375 56.375 C-14.91633345 58.76440837 -14.91633345 58.76440837 -13.6015625 60.5390625 C-10.95106288 62.27251162 -8.89113799 62.1480966 -5.75 62.125 C-4.698125 62.13273437 -3.64625 62.14046875 -2.5625 62.1484375 C0.61535036 61.98558272 0.61535036 61.98558272 3.25 58.75 C-1.7 58.42 -6.65 58.09 -11.75 57.75 C-11.75 56.43 -11.75 55.11 -11.75 53.75 C-5.15 53.75 1.45 53.75 8.25 53.75 C9.25 56.75 9.25 56.75 8.125 60.25 C6.06339167 64.09833556 5.1196385 64.95204036 1.25 66.75 C-4.42879869 67.48724755 -11.38696991 68.15729328 -16.5 65.125 C-19.98905078 61.44211306 -20.68986919 58.37353189 -20.875 53.375 C-20.83375 52.50875 -20.7925 51.6425 -20.75 50.75 C-21.36875 50.481875 -21.9875 50.21375 -22.625 49.9375 C-24.75 48.75 -24.75 48.75 -26.75 45.75 C-26.6116853 41.94634586 -26.24915469 39.49873203 -24.125 36.3125 C-20.7882229 34.11725191 -18.66451456 34.19078363 -14.75 34.75 C-12.3125 36.625 -12.3125 36.625 -10.75 38.75 C-10.75 39.41 -10.75 40.07 -10.75 40.75 C-7.45 40.75 -4.15 40.75 -0.75 40.75 C-0.42 39.43 -0.09 38.11 0.25 36.75 C3.9705836 34.26961093 5.84796571 34.28662797 10.25 34.75 C13.64725438 36.98503578 14.16801511 38.38422127 15.0625 42.375 C15.25 45.75 15.25 45.75 14.25 47.75 C21.51 47.75 28.77 47.75 36.25 47.75 C36.25 45.77 36.25 43.79 36.25 41.75 C33.61 41.75 30.97 41.75 28.25 41.75 C28.22421875 40.93015625 28.1984375 40.1103125 28.171875 39.265625 C28.11515625 38.18796875 28.0584375 37.1103125 28 36 C27.95359375 34.93265625 27.9071875 33.8653125 27.859375 32.765625 C27.11195408 29.06684968 26.2020704 28.05470789 23.25 25.75 C20.1650054 25.11004039 20.1650054 25.11004039 16.734375 25.140625 C15.48398438 25.10839844 14.23359375 25.07617188 12.9453125 25.04296875 C11.64335938 25.02878906 10.34140625 25.01460937 9 25 C7.68257812 24.97035156 6.36515625 24.94070312 5.0078125 24.91015625 C1.75514657 24.83944612 -1.49680193 24.78675214 -4.75 24.75 C-4.80418826 23.14881226 -4.84287831 21.54709487 -4.875 19.9453125 C-4.89820313 19.05344238 -4.92140625 18.16157227 -4.9453125 17.24267578 C-4.67442523 13.78547699 -3.23327305 12.07806849 -0.75 9.75 C-1.37533375 7.22636012 -1.37533375 7.22636012 -2.75 4.75 C-5.29775306 3.85613836 -5.29775306 3.85613836 -7.75 3.75 C-9.48647948 5.42488528 -9.48647948 5.42488528 -10.75 7.75 C-9.92824769 10.88759973 -9.04744125 12.45255875 -6.75 14.75 C-6.51953125 16.87890625 -6.51953125 16.87890625 -6.5625 19.3125 C-6.56894531 20.11816406 -6.57539062 20.92382812 -6.58203125 21.75390625 C-6.75 23.75 -6.75 23.75 -7.75 24.75 C-9.70223586 24.85951521 -11.65807728 24.90588423 -13.61328125 24.92578125 C-14.81017578 24.94962891 -16.00707031 24.97347656 -17.24023438 24.99804688 C-19.77652464 25.04081518 -22.31303444 25.07217407 -24.84960938 25.09179688 C-26.05037109 25.11951172 -27.25113281 25.14722656 -28.48828125 25.17578125 C-29.59212158 25.19036377 -30.69596191 25.20494629 -31.83325195 25.2199707 C-35.39109451 25.86649922 -36.5760947 26.90829162 -38.75 29.75 C-39.44397449 32.78222778 -39.44397449 32.78222778 -39.5 36 C-39.55671875 37.07765625 -39.6134375 38.1553125 -39.671875 39.265625 C-39.71054687 40.49539062 -39.71054687 40.49539062 -39.75 41.75 C-42.39 41.75 -45.03 41.75 -47.75 41.75 C-47.75 43.73 -47.75 45.71 -47.75 47.75 C-45.11 47.75 -42.47 47.75 -39.75 47.75 C-39.73541748 48.36520508 -39.72083496 48.98041016 -39.70581055 49.61425781 C-39.63119423 52.41012854 -39.5345802 55.20482287 -39.4375 58 C-39.41494141 58.96808594 -39.39238281 59.93617187 -39.36914062 60.93359375 C-39.33369141 61.86816406 -39.29824219 62.80273438 -39.26171875 63.765625 C-39.23553467 64.62446289 -39.20935059 65.48330078 -39.18237305 66.36816406 C-38.61691924 69.48310894 -38.20807694 70.69034122 -35.75 72.75 C-32.59845238 73.37629817 -29.47461723 73.35501514 -26.26953125 73.359375 C-25.34154221 73.37591125 -24.41355316 73.39244751 -23.45744324 73.40948486 C-20.49239565 73.45808427 -17.52786134 73.47936222 -14.5625 73.5 C-12.55270838 73.5281497 -10.5429408 73.55807571 -8.53320312 73.58984375 C-3.60551099 73.66384645 1.3218942 73.71334806 6.25 73.75 C6.56308105 74.442146 6.87616211 75.13429199 7.19873047 75.84741211 C7.8389917 77.20491577 7.8389917 77.20491577 8.4921875 78.58984375 C8.90839355 79.48823975 9.32459961 80.38663574 9.75341797 81.31225586 C12.07452818 85.09305284 15.15524643 86.38793762 19.25 87.75 C20.735 88.245 20.735 88.245 22.25 88.75 C21.775625 87.925 21.30125 87.1 20.8125 86.25 C19.01430401 82.22204099 18.6265745 79.11826421 18.25 74.75 C19.36375 74.316875 20.4775 73.88375 21.625 73.4375 C25.42512334 72.05088881 25.42512334 72.05088881 27.25 68.75 C27.54991069 66.16114829 27.75865225 63.65850918 27.875 61.0625 C27.91367188 60.36060547 27.95234375 59.65871094 27.9921875 58.93554688 C28.0862334 57.20745345 28.1691968 55.47876325 28.25 53.75 C29.57 53.75 30.89 53.75 32.25 53.75 C32.3858035 56.46003427 32.48444624 59.16318941 32.5625 61.875 C32.60439453 62.63554688 32.64628906 63.39609375 32.68945312 64.1796875 C32.77754679 68.26723344 32.54529804 70.95535532 29.98046875 74.2421875 C26.41660392 77.51543675 26.41660392 77.51543675 23.25 77.75 C24.03668518 79.37741744 24.8295241 81.00186131 25.625 82.625 C26.06585938 83.52992187 26.50671875 84.43484375 26.9609375 85.3671875 C28.15502699 87.84534472 28.15502699 87.84534472 30.25 89.75 C30.25 91.07 30.25 92.39 30.25 93.75 C14.19419507 93.26049375 14.19419507 93.26049375 7.69140625 87.328125 C4.89938759 84.25927729 3.89535612 81.76479441 3.25 77.75 C2.06970215 77.77618408 0.8894043 77.80236816 -0.32666016 77.8293457 C-4.72099729 77.92009567 -9.11525221 77.97733906 -13.51025391 78.0246582 C-15.40948431 78.04974604 -17.3086187 78.08382468 -19.20751953 78.12719727 C-21.94327521 78.1881033 -24.6777507 78.21626653 -27.4140625 78.23828125 C-28.25804596 78.26408768 -29.10202942 78.2898941 -29.97158813 78.31648254 C-34.20893277 78.31848192 -36.9118348 78.06194098 -40.27099609 75.34448242 C-43.39124512 72.07888399 -43.8767314 70.7597101 -43.84765625 66.3984375 C-43.84443359 65.54765625 -43.84121094 64.696875 -43.83789062 63.8203125 C-43.82951172 62.93085937 -43.82113281 62.04140625 -43.8125 61.125 C-43.80798828 60.2278125 -43.80347656 59.330625 -43.79882812 58.40625 C-43.78702591 56.18743352 -43.77056155 53.96874982 -43.75 51.75 C-45.4515625 51.7809375 -45.4515625 51.7809375 -47.1875 51.8125 C-50.75 51.75 -50.75 51.75 -51.75 50.75 C-51.84873816 48.75200428 -51.87971799 46.75042842 -51.875 44.75 C-51.87757812 43.656875 -51.88015625 42.56375 -51.8828125 41.4375 C-51.75 38.75 -51.75 38.75 -50.75 37.75 C-48.41702567 37.70907063 -46.08294775 37.70758277 -43.75 37.75 C-43.83701172 36.77160156 -43.83701172 36.77160156 -43.92578125 35.7734375 C-44.34027551 27.74409145 -44.34027551 27.74409145 -41.375 24.1875 C-37.60836096 20.6899066 -35.90911895 20.62786835 -30.8671875 20.65234375 C-29.70058594 20.65556641 -28.53398437 20.65878906 -27.33203125 20.66210938 C-26.10871094 20.67048828 -24.88539062 20.67886719 -23.625 20.6875 C-22.39394531 20.69201172 -21.16289063 20.69652344 -19.89453125 20.70117188 C-16.84630608 20.7129867 -13.79817686 20.72945972 -10.75 20.75 C-12.1458202 17.04703281 -12.1458202 17.04703281 -14.375 13.8125 C-16.28713388 10.94429918 -16.16482807 9.13776255 -15.75 5.75 C-14.47311154 2.94084539 -13.43900183 1.24893236 -10.9375 -0.5625 C-6.88938379 -1.83476509 -3.87012891 -1.75914951 0 0 Z " fill="#000000" transform="translate(55.75,2.25)"/>
</svg>
