<?xml version="1.0" encoding="UTF-8"?>
<svg version="1.1" xmlns="http://www.w3.org/2000/svg" width="100" height="100">
<path d="M0 0 C1.08628693 0.00303635 1.08628693 0.00303635 2.19451904 0.00613403 C3.3334964 0.00350555 3.3334964 0.00350555 4.4954834 0.00082397 C7.0175807 -0.00359473 9.53960847 -0.00065649 12.06170654 0.00271606 C13.80666111 0.00204303 15.55161558 0.00107301 17.29656982 -0.00018311 C20.95852549 -0.0016601 24.62045682 0.00049454 28.28240967 0.00515747 C32.98715147 0.01085476 37.69183622 0.00757577 42.39657593 0.00158501 C46.00124546 -0.00202055 49.60590136 -0.00088204 53.21057129 0.0017128 C54.94580085 0.00238208 56.68103163 0.0015536 58.41625977 -0.00076675 C60.83717142 -0.0032932 63.25798941 0.00054718 65.67889404 0.00613403 C66.40308533 0.0041098 67.12727661 0.00208557 67.87341309 0 C72.82244388 0.0212659 72.82244388 0.0212659 73.93670654 1.13552856 C74.03783467 4.06919825 74.07639695 6.97883029 74.06951904 9.91287231 C74.07047577 10.79455582 74.0714325 11.67623932 74.07241821 12.5846405 C74.07310013 14.45341055 74.07124505 16.32218296 74.06707764 18.19094849 C74.06173586 21.05729484 74.06701896 23.92348404 74.07342529 26.78982544 C74.07276439 28.60167475 74.07148297 30.41352395 74.06951904 32.22537231 C74.07154327 33.08686386 74.0735675 33.94835541 74.07565308 34.83595276 C74.05166093 40.90561978 74.05166093 40.90561978 72.93670654 43.13552856 C66.99670654 43.13552856 61.05670654 43.13552856 54.93670654 43.13552856 C54.93670654 45.44552856 54.93670654 47.75552856 54.93670654 50.13552856 C53.93670654 51.13552856 53.93670654 51.13552856 51.72843933 51.25578308 C50.75359085 51.25356247 49.77874237 51.25134186 48.77435303 51.24905396 C47.6732872 51.24897842 46.57222137 51.24890289 45.43778992 51.24882507 C44.23989334 51.24366379 43.04199677 51.2385025 41.80780029 51.23318481 C40.58843277 51.23176987 39.36906525 51.23035492 38.11274719 51.22889709 C34.19987584 51.22327823 30.28706073 51.21072253 26.37420654 51.19802856 C23.72902507 51.19301599 21.08384271 51.18845267 18.43865967 51.18435669 C11.93798928 51.17330268 5.43735193 51.1565462 -1.06329346 51.13552856 C-1.06329346 52.12552856 -1.06329346 53.11552856 -1.06329346 54.13552856 C0.30186905 54.12886673 0.30186905 54.12886673 1.6946106 54.12207031 C10.25877234 54.08204681 18.82290281 54.05157131 27.38713646 54.03190422 C31.79041905 54.02145339 36.19362457 54.0072706 40.59686279 53.98464966 C44.84380479 53.96296745 49.0906725 53.95096974 53.33766556 53.94577408 C54.96043696 53.94206999 56.58320416 53.93483711 58.20594406 53.92406845 C60.47354771 53.90961477 62.74084182 53.90754802 65.00848389 53.90847778 C66.30087982 53.90403656 67.59327576 53.89959534 68.92483521 53.89501953 C71.93670654 54.13552856 71.93670654 54.13552856 73.93670654 56.13552856 C74.16717529 58.26443481 74.16717529 58.26443481 74.12420654 60.69802856 C74.11776123 61.50369263 74.11131592 62.30935669 74.10467529 63.13943481 C73.93670654 65.13552856 73.93670654 65.13552856 72.93670654 66.13552856 C70.50274636 66.23051502 68.09727702 66.26111273 65.6630249 66.24905396 C64.52163811 66.24927299 64.52163811 66.24927299 63.35719299 66.24949646 C60.83028356 66.24879718 58.30344692 66.24100411 55.77655029 66.23318481 C54.02920065 66.23132069 52.28185048 66.22989676 50.53450012 66.22889709 C45.9263872 66.22507149 41.31830559 66.21524085 36.71020508 66.20419312 C32.01162133 66.1939799 27.31303255 66.18939967 22.61444092 66.18435669 C13.38851567 66.17361862 4.16261371 66.15654169 -5.06329346 66.13552856 C-5.39329346 65.47552856 -5.72329346 64.81552856 -6.06329346 64.13552856 C-5.73329346 63.47552856 -5.40329346 62.81552856 -5.06329346 62.13552856 C19.35670654 62.13552856 43.77670654 62.13552856 68.93670654 62.13552856 C68.93670654 60.81552856 68.93670654 59.49552856 68.93670654 58.13552856 C67.54942101 58.13885948 67.54942101 58.13885948 66.1341095 58.14225769 C57.43718067 58.16225769 48.74025952 58.17750121 40.04331303 58.18734074 C35.57165105 58.1925693 31.10000801 58.19966646 26.62835693 58.21096802 C22.31658682 58.22179785 18.00483496 58.2278056 13.69305229 58.23040581 C12.04434357 58.23225988 10.39563589 58.23588016 8.74693489 58.24125862 C6.44566783 58.24847035 4.14447715 58.24951945 1.84320068 58.24905396 C-0.12537148 58.25238487 -0.12537148 58.25238487 -2.13371277 58.25578308 C-5.06329346 58.13552856 -5.06329346 58.13552856 -6.06329346 57.13552856 C-6.16119915 55.63814732 -6.1930421 54.13609964 -6.18829346 52.63552856 C-6.19087158 51.82084106 -6.19344971 51.00615356 -6.19610596 50.16677856 C-6.06329346 48.13552856 -6.06329346 48.13552856 -5.06329346 47.13552856 C-3.31400626 47.0418785 -1.56093092 47.01808419 0.19085693 47.02200317 C1.31194351 47.0220787 2.43303009 47.02215424 3.58808899 47.02223206 C5.41774452 47.02997398 5.41774452 47.02997398 7.28436279 47.03787231 C9.14670815 47.03999474 9.14670815 47.03999474 11.04667664 47.04216003 C14.35276145 47.04682266 17.65877801 47.0558136 20.96484375 47.06686401 C24.33631804 47.0770803 27.70779937 47.08165812 31.07928467 47.08670044 C37.69844429 47.09775461 44.31757147 47.1145112 50.93670654 47.13552856 C50.93670654 45.81552856 50.93670654 44.49552856 50.93670654 43.13552856 C46.31670654 43.13552856 41.69670654 43.13552856 36.93670654 43.13552856 C36.93670654 39.83552856 36.93670654 36.53552856 36.93670654 33.13552856 C38.35983154 32.57865356 39.78295654 32.02177856 41.24920654 31.44802856 C44.17041943 30.12773235 45.83749132 29.24057997 48.06170654 26.88552856 C49.58157575 22.10879676 48.50987074 17.85502116 46.93670654 13.13552856 C44.60779559 12.10852412 44.60779559 12.10852412 41.87420654 11.44802856 C40.95510498 11.19666138 40.03600342 10.94529419 39.08905029 10.68630981 C38.37877686 10.504552 37.66850342 10.32279419 36.93670654 10.13552856 C36.93670654 8.81552856 36.93670654 7.49552856 36.93670654 6.13552856 C45.18670654 6.13552856 53.43670654 6.13552856 61.93670654 6.13552856 C62.43170654 8.11552856 62.43170654 8.11552856 62.93670654 10.13552856 C64.25670654 10.46552856 65.57670654 10.79552856 66.93670654 11.13552856 C66.93670654 18.06552856 66.93670654 24.99552856 66.93670654 32.13552856 C65.45170654 32.63052856 65.45170654 32.63052856 63.93670654 33.13552856 C63.60670654 34.12552856 63.27670654 35.11552856 62.93670654 36.13552856 C60.22791319 37.48992524 57.92737387 37.20054307 54.93670654 37.13552856 C54.93670654 37.79552856 54.93670654 38.45552856 54.93670654 39.13552856 C59.55670654 39.13552856 64.17670654 39.13552856 68.93670654 39.13552856 C68.93670654 27.58552856 68.93670654 16.03552856 68.93670654 4.13552856 C45.83670654 4.13552856 22.73670654 4.13552856 -1.06329346 4.13552856 C-1.06329346 15.68552856 -1.06329346 27.23552856 -1.06329346 39.13552856 C8.17670654 39.13552856 17.41670654 39.13552856 26.93670654 39.13552856 C26.93670654 38.14552856 26.93670654 37.15552856 26.93670654 36.13552856 C25.88483154 36.04271606 25.88483154 36.04271606 24.81170654 35.94802856 C20.19527403 34.64338459 17.00890392 31.93876962 14.56170654 27.82302856 C13.56071789 23.51877738 12.86087949 19.34799028 14.83514404 15.28787231 C15.93670654 13.63552856 15.93670654 13.63552856 17.93670654 11.13552856 C14.96670654 10.80552856 11.99670654 10.47552856 8.93670654 10.13552856 C8.27670654 11.45552856 7.61670654 12.77552856 6.93670654 14.13552856 C6.27670654 14.13552856 5.61670654 14.13552856 4.93670654 14.13552856 C5.0237278 16.40708354 5.13190176 18.67783599 5.24920654 20.94802856 C5.30721436 22.21259888 5.36522217 23.47716919 5.42498779 24.78005981 C5.95989934 28.28760957 6.33219511 28.97433822 8.93670654 31.13552856 C9.12420654 33.82302856 9.12420654 33.82302856 8.93670654 36.13552856 C7.94670654 36.13552856 6.95670654 36.13552856 5.93670654 36.13552856 C5.27670654 35.14552856 4.61670654 34.15552856 3.93670654 33.13552856 C2.94670654 32.80552856 1.95670654 32.47552856 0.93670654 32.13552856 C0.93670654 25.20552856 0.93670654 18.27552856 0.93670654 11.13552856 C2.25670654 10.80552856 3.57670654 10.47552856 4.93670654 10.13552856 C5.26670654 8.81552856 5.59670654 7.49552856 5.93670654 6.13552856 C14.18670654 6.13552856 22.43670654 6.13552856 30.93670654 6.13552856 C30.93670654 7.45552856 30.93670654 8.77552856 30.93670654 10.13552856 C30.23803467 10.28248169 29.53936279 10.42943481 28.81951904 10.58084106 C23.07320118 11.80763038 23.07320118 11.80763038 19.24920654 15.88552856 C18.73972245 21.18416309 18.77636208 24.64365711 22.12420654 28.94802856 C25.0337981 31.21104422 27.38706868 32.22748167 30.93670654 33.13552856 C30.93670654 36.43552856 30.93670654 39.73552856 30.93670654 43.13552856 C19.05670654 43.13552856 7.17670654 43.13552856 -5.06329346 43.13552856 C-6.7508818 39.76035187 -6.20482704 35.93697258 -6.19610596 32.22537231 C-6.19706268 31.34273209 -6.19801941 30.46009186 -6.19900513 29.55070496 C-6.19968614 27.6837151 -6.1978373 25.81672287 -6.19366455 23.94973755 C-6.18830886 21.08127568 -6.19361544 18.21296995 -6.20001221 15.34451294 C-6.19935154 13.53396572 -6.1980706 11.72341859 -6.19610596 9.91287231 C-6.19813019 9.04935654 -6.20015442 8.18584076 -6.20223999 7.29615784 C-6.1733906 0.02652695 -6.1733906 0.02652695 0 0 Z M48.93670654 10.13552856 C49.59670654 11.12552856 50.25670654 12.11552856 50.93670654 13.13552856 C53.36158924 17.40711908 53.47850558 20.25933727 52.93670654 25.13552856 C51.13767881 30.33271978 48.68604981 32.46402297 43.93670654 35.13552856 C42.94670654 35.46552856 41.95670654 35.79552856 40.93670654 36.13552856 C40.93670654 37.12552856 40.93670654 38.11552856 40.93670654 39.13552856 C44.23670654 39.13552856 47.53670654 39.13552856 50.93670654 39.13552856 C50.93670654 37.15552856 50.93670654 35.17552856 50.93670654 33.13552856 C52.88983154 33.29828898 54.84295654 33.4610494 56.79608154 33.62380981 C59.16458317 33.27164463 59.16458317 33.27164463 61.17108154 31.05740356 C63.33172684 27.48182241 63.47225689 25.22797504 63.43670654 21.07302856 C63.44701904 19.865177 63.45733154 18.65732544 63.46795654 17.41287231 C63.17648401 14.10134768 63.17648401 14.10134768 61.23358154 11.71755981 C58.45955846 9.80688065 57.01701152 9.71024936 53.68670654 9.88552856 C52.79467529 9.92162231 51.90264404 9.95771606 50.98358154 9.99490356 C50.30811279 10.04130981 49.63264404 10.08771606 48.93670654 10.13552856 Z " fill="#000000" transform="translate(16.06329345703125,16.864471435546875)"/>
</svg>
