<?xml version="1.0" encoding="UTF-8"?>
<svg version="1.1" xmlns="http://www.w3.org/2000/svg" width="100" height="100">
<path d="M0 0 C0.88264023 -0.00095673 1.76528046 -0.00191345 2.67466736 -0.00289917 C4.54165722 -0.00358019 6.40864944 -0.00173135 8.27563477 0.00244141 C11.14409663 0.0077971 14.01240236 0.00249051 16.88085938 -0.00390625 C18.6914066 -0.00324558 20.50195372 -0.00196465 22.3125 0 C23.60777367 -0.00303635 23.60777367 -0.00303635 24.92921448 -0.00613403 C30.97488936 0.01785811 30.97488936 0.01785811 32.08984375 1.1328125 C32.40455126 5.63699468 32.44660119 10.14673795 32.49487305 14.66040039 C32.51644714 16.17853553 32.55054445 17.69654645 32.59741211 19.21411133 C32.66440359 21.40242029 32.69186503 23.58815427 32.7109375 25.77734375 C32.73599365 27.09065674 32.7610498 28.40396973 32.78686523 29.75708008 C32.08984375 33.1328125 32.08984375 33.1328125 29.30102539 35.5925293 C26.08984375 37.1328125 26.08984375 37.1328125 22.08984375 37.1328125 C21.78046875 36.0396875 21.47109375 34.9465625 21.15234375 33.8203125 C20.50646478 31.57873256 19.82753205 29.3458774 19.08984375 27.1328125 C14.48379879 24.93945776 10.99159188 24.7959721 6.08984375 26.1328125 C2.00804118 29.30754783 0.36360732 32.15355492 -0.91015625 37.1328125 C-2.23015625 36.8028125 -3.55015625 36.4728125 -4.91015625 36.1328125 C-5.02613278 32.36223703 -5.09733021 28.59211857 -5.16015625 24.8203125 C-5.19367187 23.74845703 -5.2271875 22.67660156 -5.26171875 21.57226562 C-5.27460937 20.54423828 -5.2875 19.51621094 -5.30078125 18.45703125 C-5.32172852 17.50916748 -5.34267578 16.56130371 -5.36425781 15.5847168 C-4.91015625 13.1328125 -4.91015625 13.1328125 -2.94824219 11.48754883 C-2.27567383 11.04048584 -1.60310547 10.59342285 -0.91015625 10.1328125 C-0.58015625 9.1428125 -0.25015625 8.1528125 0.08984375 7.1328125 C7.01984375 7.1328125 13.94984375 7.1328125 21.08984375 7.1328125 C21.58484375 9.1128125 21.58484375 9.1128125 22.08984375 11.1328125 C23.40984375 11.4628125 24.72984375 11.7928125 26.08984375 12.1328125 C26.08984375 13.1228125 26.08984375 14.1128125 26.08984375 15.1328125 C24.10984375 15.1328125 22.12984375 15.1328125 20.08984375 15.1328125 C19.42984375 13.8128125 18.76984375 12.4928125 18.08984375 11.1328125 C15.81828877 11.21983376 13.54753632 11.32800772 11.27734375 11.4453125 C9.38048828 11.53232422 9.38048828 11.53232422 7.4453125 11.62109375 C4.17899867 11.87913597 4.17899867 11.87913597 2.15234375 13.4140625 C0.83207248 15.54979543 0.77978492 16.82828293 0.90234375 19.3203125 C0.96421875 20.5784375 1.02609375 21.8365625 1.08984375 23.1328125 C1.91484375 22.6378125 2.73984375 22.1428125 3.58984375 21.6328125 C8.25098618 19.63518003 12.29246003 19.09633168 17.05078125 20.859375 C20.99715458 22.90749281 23.28127292 25.09012477 25.08984375 29.1328125 C25.08984375 29.7928125 25.08984375 30.4528125 25.08984375 31.1328125 C25.74984375 30.8028125 26.40984375 30.4728125 27.08984375 30.1328125 C27.41984375 21.8828125 27.74984375 13.6328125 28.08984375 5.1328125 C16.53984375 5.1328125 4.98984375 5.1328125 -6.91015625 5.1328125 C-7.03390625 10.5571875 -7.15765625 15.9815625 -7.28515625 21.5703125 C-7.36040527 23.26341553 -7.4356543 24.95651855 -7.51318359 26.70092773 C-7.70714667 34.22115493 -7.70714667 34.22115493 -4.54992676 40.79180908 C-0.34823445 44.51199046 5.00610369 48.27863103 10.77978516 48.00561523 C13.22907275 47.08020801 15.13454918 46.01138693 17.27734375 44.5078125 C18.05271484 43.96979004 18.82808594 43.43176758 19.62695312 42.87744141 C20.43970703 42.30171387 21.25246094 41.72598633 22.08984375 41.1328125 C22.92837891 40.55063965 23.76691406 39.9684668 24.63085938 39.36865234 C28.48432196 36.68936074 32.31335158 33.97818921 36.12109375 31.234375 C36.7140625 30.8115625 37.30703125 30.38875 37.91796875 29.953125 C39.49260394 28.82733442 41.05720477 27.6875466 42.62109375 26.546875 C43.43578125 26.08023438 44.25046875 25.61359375 45.08984375 25.1328125 C46.57484375 25.6278125 46.57484375 25.6278125 48.08984375 26.1328125 C48.11511265 32.95043144 48.13267619 39.76803839 48.14477539 46.58569336 C48.14981708 48.90698701 48.15665026 51.22827747 48.1652832 53.54956055 C48.177356 56.87810045 48.18307354 60.20659852 48.1875 63.53515625 C48.19266129 64.57993637 48.19782257 65.62471649 48.20314026 66.70115662 C48.20321579 67.66207718 48.20329132 68.62299774 48.20336914 69.61303711 C48.20558975 70.46353134 48.20781036 71.31402557 48.21009827 72.19029236 C48.08984375 74.1328125 48.08984375 74.1328125 47.08984375 75.1328125 C44.79472879 75.23252405 42.49649826 75.26081116 40.19921875 75.26220703 C39.47891479 75.26395935 38.75861084 75.26571167 38.01647949 75.26751709 C35.62424341 75.27193538 33.23208065 75.26899771 30.83984375 75.265625 C29.18457017 75.26629805 27.52929668 75.26726808 25.87402344 75.26852417 C22.40038108 75.27000111 18.92676438 75.26784671 15.453125 75.26318359 C10.99051877 75.2574863 6.52797267 75.26076533 2.06536865 75.26675606 C-1.35400855 75.27036177 -4.7733714 75.26922304 -8.19274902 75.26662827 C-9.83866381 75.26595902 -11.48457988 75.26678732 -13.13049316 75.26910782 C-15.42687456 75.27163452 -17.72315724 75.26779353 -20.01953125 75.26220703 C-21.9835791 75.26101364 -21.9835791 75.26101364 -23.98730469 75.25979614 C-26.91015625 75.1328125 -26.91015625 75.1328125 -27.91015625 74.1328125 C-28.05470017 72.76495494 -28.13269109 71.38995678 -28.18237305 70.01538086 C-28.21457443 69.14034409 -28.24677582 68.26530731 -28.279953 67.36375427 C-28.39068147 63.33304645 -28.47309545 59.30250268 -28.53491211 55.27075195 C-28.57650533 53.14917381 -28.63780845 51.02788415 -28.71948242 48.9074707 C-29.3859592 31.32210291 -29.3859592 31.32210291 -25.74072266 25.91455078 C-22.18045185 22.97818491 -19.58941231 21.1328125 -14.91015625 21.1328125 C-15.06256234 23.79991904 -15.40380544 25.5833996 -17.2421875 27.578125 C-21.41640625 31.1328125 -21.41640625 31.1328125 -23.91015625 31.1328125 C-23.91015625 44.3328125 -23.91015625 57.5328125 -23.91015625 71.1328125 C-1.47015625 71.1328125 20.96984375 71.1328125 44.08984375 71.1328125 C43.75984375 58.5928125 43.42984375 46.0528125 43.08984375 33.1328125 C40.22296875 35.0921875 37.35609375 37.0515625 34.40234375 39.0703125 C33.46350342 39.70839844 32.52466309 40.34648438 31.55737305 41.00390625 C27.69429062 43.63315096 23.85538768 46.27608393 20.109375 49.0703125 C19.52824951 49.49707275 18.94712402 49.92383301 18.34838867 50.36352539 C16.80749267 51.50186778 15.28021883 52.65858338 13.75390625 53.81640625 C11.08984375 55.1328125 11.08984375 55.1328125 8.75390625 54.703125 C4.9954207 52.4877127 1.40920478 50.07721085 -2.16015625 47.5703125 C-3.2584375 46.80944336 -3.2584375 46.80944336 -4.37890625 46.03320312 C-9.73248718 42.31048157 -9.73248718 42.31048157 -10.91015625 41.1328125 C-10.99883924 38.17575929 -11.02535921 35.24216194 -11.0078125 32.28515625 C-11.00639755 31.3987294 -11.0049826 30.51230255 -11.00352478 29.59901428 C-10.9979084 26.75607996 -10.98535316 23.91322319 -10.97265625 21.0703125 C-10.96764336 19.14778759 -10.96308009 17.22526146 -10.95898438 15.30273438 C-10.94793366 10.57939701 -10.93065808 5.85611792 -10.91015625 1.1328125 C-7.53497956 -0.55477585 -3.71160026 -0.00872108 0 0 Z " fill="#000000" transform="translate(39.91015625,9.8671875)"/>
</svg>
