<?xml version="1.0" encoding="UTF-8"?>
<svg version="1.1" xmlns="http://www.w3.org/2000/svg" width="100" height="100">
<path d="M0 0 C5.04525613 5.99507155 7.1403108 10.828609 7.0625 18.6875 C7.05347656 19.86699219 7.04445312 21.04648437 7.03515625 22.26171875 C7.02355469 23.16535156 7.01195312 24.06898437 7 25 C8.4540625 24.9690625 8.4540625 24.9690625 9.9375 24.9375 C13 25 13 25 14 26 C14.09795311 27.37609882 14.12798088 28.75713882 14.12939453 30.13671875 C14.13254669 31.01432861 14.13569885 31.89193848 14.13894653 32.79614258 C14.13591019 34.2273645 14.13591019 34.2273645 14.1328125 35.6875 C14.13376923 36.66033936 14.13472595 37.63317871 14.13571167 38.63549805 C14.13639358 40.696778 14.13453853 42.75806008 14.13037109 44.81933594 C14.125023 47.98637688 14.13031572 51.153276 14.13671875 54.3203125 C14.13605797 56.31770865 14.13477681 58.31510471 14.1328125 60.3125 C14.13483673 61.26664795 14.13686096 62.2207959 14.13894653 63.20385742 C14.13421829 64.52027222 14.13421829 64.52027222 14.12939453 65.86328125 C14.12859894 66.63969971 14.12780334 67.41611816 14.12698364 68.21606445 C14 70 14 70 13 71 C11.07238183 71.09920863 9.14110646 71.12799365 7.2109375 71.12939453 C5.9729541 71.13254669 4.7349707 71.13569885 3.45947266 71.13894653 C2.09798141 71.13715675 0.73649049 71.1351058 -0.625 71.1328125 C-2.01123064 71.13348559 -3.39746117 71.13445566 -4.78369141 71.13571167 C-7.69239422 71.1371884 -10.60106637 71.1350349 -13.50976562 71.13037109 C-17.24596598 71.12467381 -20.98209452 71.12795294 -24.71829224 71.13394356 C-27.58179266 71.13754985 -30.44527593 71.13641027 -33.30877686 71.13381577 C-34.68674732 71.13314668 -36.06471932 71.13397426 -37.44268799 71.13629532 C-39.36543754 71.13882292 -41.28819252 71.13429024 -43.2109375 71.12939453 C-44.85521729 71.12820114 -44.85521729 71.12820114 -46.53271484 71.12698364 C-49 71 -49 71 -50 70 C-50.07319621 67.30345146 -50.09242537 64.63308542 -50.0625 61.9375 C-50.05798828 61.17888672 -50.05347656 60.42027344 -50.04882812 59.63867188 C-50.0370068 57.75908129 -50.01907078 55.87953101 -50 54 C-48.68 54 -47.36 54 -46 54 C-46 58.29 -46 62.58 -46 67 C-27.52 67 -9.04 67 10 67 C10 54.46 10 41.92 10 29 C8.02 29 6.04 29 4 29 C2.09962922 27.09962922 2.82028415 23.5302293 2.75 21 C2.41942767 14.37520484 1.3510335 9.16322643 -3 4 C-8.48291164 -0.90576305 -13.98168931 -1.29153891 -21.0546875 -1.21484375 C-26.14865803 -0.84326765 -28.90160498 1.0548694 -32.6875 4.3125 C-37.19497303 9.55091461 -38.36939319 13.95820159 -38.625 20.8125 C-38.89347291 27.89347291 -38.89347291 27.89347291 -40 29 C-41.99958364 29.04080783 -44.00045254 29.04254356 -46 29 C-45.91277063 31.41835897 -45.80588627 33.83313316 -45.6875 36.25 C-45.66494141 36.93191406 -45.64238281 37.61382812 -45.61914062 38.31640625 C-45.4548693 41.39276022 -45.13709227 43.73658403 -43.70703125 46.484375 C-41.88193842 48.44262592 -41.88193842 48.44262592 -38 48 C-37.896875 47.05125 -37.79375 46.1025 -37.6875 45.125 C-37 42 -37 42 -34 40 C-28.55555556 40.44444444 -28.55555556 40.44444444 -26 43 C-25.875 45.625 -25.875 45.625 -26 48 C-25.34 48.33 -24.68 48.66 -24 49 C-24.061875 47.88625 -24.12375 46.7725 -24.1875 45.625 C-24.0946875 43.830625 -24.0946875 43.830625 -24 42 C-21 40 -21 40 -17.9375 40.25 C-15 41 -15 41 -13 43 C-12.875 46.125 -12.875 46.125 -13 49 C-12.01 49 -11.02 49 -10 49 C-10.2475 48.2575 -10.495 47.515 -10.75 46.75 C-11 44 -11 44 -9.4375 41.625 C-7 40 -7 40 -3.875 40.125 C-1 41 -1 41 1 43 C1.125 46.125 1.125 46.125 1 49 C3.97 48.505 3.97 48.505 7 48 C7 49.32 7 50.64 7 52 C4.59715702 53.20142149 3.03841327 53.15230565 0.35424805 53.19287109 C-0.61047928 53.20893402 -1.5752066 53.22499695 -2.56916809 53.24154663 C-6.98319837 53.28596513 -11.39707784 53.32706 -15.8112793 53.35009766 C-18.14015696 53.36666174 -20.46898369 53.39395742 -22.79760742 53.43212891 C-26.15310068 53.48686002 -29.50740191 53.50876647 -32.86328125 53.5234375 C-34.42288322 53.55744156 -34.42288322 53.55744156 -36.01399231 53.59213257 C-43.23706036 53.57100102 -43.23706036 53.57100102 -47.13354492 50.65478516 C-49.56421459 47.19747947 -50.12680413 44.70853574 -50.1328125 40.5859375 C-50.13410156 39.74289063 -50.13539062 38.89984375 -50.13671875 38.03125 C-50.13285156 37.1546875 -50.12898438 36.278125 -50.125 35.375 C-50.12886719 34.49070313 -50.13273437 33.60640625 -50.13671875 32.6953125 C-50.13542969 31.85484375 -50.13414063 31.014375 -50.1328125 30.1484375 C-50.13168457 29.37677246 -50.13055664 28.60510742 -50.12939453 27.81005859 C-50 26 -50 26 -49 25 C-47.00041636 24.95919217 -44.99954746 24.95745644 -43 25 C-43.08701172 23.76636719 -43.08701172 23.76636719 -43.17578125 22.5078125 C-43.49784213 14.53910612 -42.89427622 8.49049101 -38 2 C-26.74220655 -8.72276961 -12.20776239 -9.99381226 0 0 Z M-33 45 C-33 45.66 -33 46.32 -33 47 C-32.01 46.67 -31.02 46.34 -30 46 C-30.99 45.67 -31.98 45.34 -33 45 Z M-20 45 C-19.67 45.99 -19.34 46.98 -19 48 C-18.34 47.67 -17.68 47.34 -17 47 C-17 46.34 -17 45.68 -17 45 C-17.99 45 -18.98 45 -20 45 Z M-6 45 C-5.67 45.99 -5.34 46.98 -5 48 C-4.34 47.67 -3.68 47.34 -3 47 C-3 46.34 -3 45.68 -3 45 C-3.99 45 -4.98 45 -6 45 Z " fill="#000000" transform="translate(68,17)"/>
<path d="M0 0 C4.16769744 2.78433909 6.92460971 5.8908539 8.47265625 10.75 C9.02839654 13.58824507 9.0421983 16.28111268 9.03515625 19.171875 C9.03902344 20.77095703 9.03902344 20.77095703 9.04296875 22.40234375 C8.91015625 24.984375 8.91015625 24.984375 7.91015625 25.984375 C5.40091472 26.08524712 2.91979241 26.12409532 0.41015625 26.1171875 C-0.34072266 26.11814423 -1.09160156 26.11910095 -1.86523438 26.12008667 C-3.45573002 26.12076838 -5.04622842 26.11891472 -6.63671875 26.11474609 C-9.0794903 26.10939767 -11.52207796 26.11469134 -13.96484375 26.12109375 C-15.50651082 26.12043297 -17.04817778 26.1191518 -18.58984375 26.1171875 C-19.32525391 26.11921173 -20.06066406 26.12123596 -20.81835938 26.12332153 C-25.97489214 26.09932661 -25.97489214 26.09932661 -27.08984375 24.984375 C-27.79858538 16.34317893 -27.43820886 10.07682124 -21.83984375 3.234375 C-15.23087023 -2.17296697 -7.86351287 -3.82152027 0 0 Z M-19.40234375 6.734375 C-22.99686552 11.52707069 -23.08984375 16.11118673 -23.08984375 21.984375 C-13.84984375 21.984375 -4.60984375 21.984375 4.91015625 21.984375 C4.75361686 12.80612279 4.75361686 12.80612279 0.91015625 5.984375 C-6.19958878 0.60402741 -12.42478805 1.45406258 -19.40234375 6.734375 Z " fill="#000000" transform="translate(59.08984375,20.015625)"/>
</svg>
