<?xml version="1.0" encoding="UTF-8"?>
<svg version="1.1" xmlns="http://www.w3.org/2000/svg" width="100" height="100">
<path d="M0 0 C3.65706566 0.68569981 5.38806014 1.95056014 8 4.5625 C8 5.2225 8 5.8825 8 6.5625 C8.88751953 6.56636719 8.88751953 6.56636719 9.79296875 6.5703125 C16.0916172 6.87856609 16.0916172 6.87856609 18.67578125 8.82421875 C23.06568972 13.965203 23.24293589 18.00323109 23 24.5625 C22.67 25.2225 22.34 25.8825 22 26.5625 C-2.42 26.5625 -26.84 26.5625 -52 26.5625 C-52 27.2225 -52 27.8825 -52 28.5625 C-27.58 28.5625 -3.16 28.5625 22 28.5625 C23.15112624 32.01587872 22.80121237 33.12320508 21.85546875 36.5625 C21.59056641 37.531875 21.32566406 38.50125 21.05273438 39.5 C20.76720703 40.510625 20.48167969 41.52125 20.1875 42.5625 C19.91357422 43.573125 19.63964844 44.58375 19.35742188 45.625 C17.26821286 53.16018071 17.26821286 53.16018071 15 56.5625 C12.90625 56.92578125 12.90625 56.92578125 10.5 56.875 C9.7059375 56.87113281 8.911875 56.86726563 8.09375 56.86328125 C6 56.5625 6 56.5625 4 54.5625 C4 49.2825 4 44.0025 4 38.5625 C-9.86 38.5625 -23.72 38.5625 -38 38.5625 C-38 39.5525 -38 40.5425 -38 41.5625 C-35.69 41.5625 -33.38 41.5625 -31 41.5625 C-30.22164933 44.40394396 -29.7860292 47.12097856 -29.53515625 50.0546875 C-29.4582959 50.91876221 -29.38143555 51.78283691 -29.30224609 52.6730957 C-29.18357178 54.04147583 -29.18357178 54.04147583 -29.0625 55.4375 C-28.30031949 63.86884863 -27.28763898 72.19284664 -26 80.5625 C-20.06 80.5625 -14.12 80.5625 -8 80.5625 C-6.37207796 69.81207141 -4.7642099 59.14519456 -4.2109375 48.27734375 C-4.02697585 45.90968922 -3.66478942 43.83477204 -3 41.5625 C-1.68 41.5625 -0.36 41.5625 1 41.5625 C1.16317754 48.68297448 0.54471065 55.5054894 -0.375 62.5625 C-0.56449219 64.10550781 -0.56449219 64.10550781 -0.7578125 65.6796875 C-2.8920144 82.4545144 -2.8920144 82.4545144 -5 84.5625 C-6.78071246 84.64976223 -8.5648314 84.66949041 -10.34765625 84.66015625 C-11.42724609 84.65693359 -12.50683594 84.65371094 -13.61914062 84.65039062 C-14.75544922 84.64201172 -15.89175781 84.63363281 -17.0625 84.625 C-18.20267578 84.62048828 -19.34285156 84.61597656 -20.51757812 84.61132812 C-23.34510351 84.59949747 -26.1725264 84.5830141 -29 84.5625 C-30.83688961 80.19073108 -31.80549308 75.91579743 -32.5625 71.25 C-32.75646362 70.07751709 -32.75646362 70.07751709 -32.9543457 68.88134766 C-34.17382706 61.13377894 -34.69062811 53.39280924 -35 45.5625 C-35.99 45.5625 -36.98 45.5625 -38 45.5625 C-38 49.1925 -38 52.8225 -38 56.5625 C-39.98 57.0575 -39.98 57.0575 -42 57.5625 C-43.84589376 55.65667463 -45.67624588 53.73931639 -47.5 51.8125 C-48.02464844 51.27367187 -48.54929687 50.73484375 -49.08984375 50.1796875 C-53 46.015625 -53 46.015625 -53 41.5625 C-49.37 41.5625 -45.74 41.5625 -42 41.5625 C-42 39.2525 -42 36.9425 -42 34.5625 C-25.5 34.5625 -9 34.5625 8 34.5625 C8 40.1725 8 45.7825 8 51.5625 C9.65 51.5625 11.3 51.5625 13 51.5625 C13.18175781 50.61890625 13.18175781 50.61890625 13.3671875 49.65625 C13.53476563 48.8003125 13.70234375 47.944375 13.875 47.0625 C14.03742188 46.2271875 14.19984375 45.391875 14.3671875 44.53125 C15.15208945 40.84899392 16.08068394 37.21359154 17 33.5625 C16.08767105 33.55219254 15.1753421 33.54188507 14.23536682 33.53126526 C5.65609996 33.43346739 -2.92309507 33.33097872 -11.50224209 33.22316074 C-15.913334 33.16789168 -20.32443249 33.11446546 -24.7355957 33.06518555 C-28.98906987 33.01760055 -33.24246089 32.96526014 -37.49583626 32.90955925 C-39.12219243 32.88910902 -40.74857142 32.87040044 -42.37496758 32.85342598 C-44.64516363 32.82944073 -46.91520113 32.79937865 -49.18530273 32.76782227 C-51.12722755 32.74450584 -51.12722755 32.74450584 -53.10838318 32.72071838 C-56 32.5625 -56 32.5625 -57 31.5625 C-57.1328125 29.75 -57.1328125 29.75 -57.125 27.5625 C-57.12757812 26.840625 -57.13015625 26.11875 -57.1328125 25.375 C-57 23.5625 -57 23.5625 -56 22.5625 C-53.69946165 22.46806665 -51.39597827 22.44507872 -49.09350586 22.44897461 C-48.37159561 22.44882858 -47.64968536 22.44868256 -46.90589905 22.4485321 C-44.50885053 22.44923131 -42.11187877 22.45702405 -39.71484375 22.46484375 C-38.05717511 22.4667079 -36.39950593 22.46813182 -34.74183655 22.46913147 C-30.37045786 22.47295688 -25.99911219 22.48278735 -21.62774658 22.49383545 C-17.17045539 22.50404908 -12.71315889 22.50862899 -8.25585938 22.51367188 C0.49610893 22.5244096 9.24805036 22.54148629 18 22.5625 C17.86722656 21.28246094 17.73445313 20.00242187 17.59765625 18.68359375 C17.52297119 17.96357178 17.44828613 17.2435498 17.37133789 16.50170898 C17.128557 14.41121829 17.128557 14.41121829 15.4375 12.625 C13.04430619 11.58181295 11.5012805 11.3807261 8.9375 11.1875 C7.638125 10.98125 6.33875 10.775 5 10.5625 C3.25 8 3.25 8 2 5.5625 C0.68 5.5625 -0.64 5.5625 -2 5.5625 C-2.33 7.2125 -2.66 8.8625 -3 10.5625 C-2.175 10.995625 -1.35 11.42875 -0.5 11.875 C0.325 12.431875 1.15 12.98875 2 13.5625 C2 14.5525 2 15.5425 2 16.5625 C-0.75 16.875 -0.75 16.875 -4 16.5625 C-6.85812053 14.00523427 -7.85567742 12.33222041 -8.5625 8.5625 C-7.62098494 3.54108633 -5.02141367 0.94151506 0 0 Z M-46 45.5625 C-44.68 46.8825 -43.36 48.2025 -42 49.5625 C-42 48.2425 -42 46.9225 -42 45.5625 C-43.32 45.5625 -44.64 45.5625 -46 45.5625 Z " fill="#000000" transform="translate(67,8.4375)"/>
</svg>
