<?xml version="1.0" encoding="UTF-8"?>
<svg version="1.1" xmlns="http://www.w3.org/2000/svg" width="100" height="100">
<path d="M0 0 C1.36821468 0.72405521 2.72419813 1.47204404 4.0625 2.25 C5.114375 2.78625 6.16625 3.3225 7.25 3.875 C12.41843903 8.23945963 16.68240146 15.04399159 17.30078125 21.88671875 C17.52023357 30.90736411 15.94597299 36.28130561 9.9375 43 C4.98303056 47.64614409 -0.78015555 49.79895079 -7.4375 50.75 C-16.01933052 49.52402421 -22.63287624 46.17548101 -27.9375 39.25 C-31.58439003 33.25027769 -31.75459982 27.08640185 -30.9375 20.25 C-29.05568369 14.00763085 -25.68857954 10.53684235 -20.15625 7.1640625 C-17.31471647 5.99343073 -15.00385421 5.98466823 -11.9375 6 C-10.390625 5.99226563 -10.390625 5.99226563 -8.8125 5.984375 C-5.94913283 6.24892523 -4.28927944 6.61848712 -1.9375 8.25 C-1 11.1875 -1 11.1875 -0.9375 14.25 C-2.64303129 16.71484317 -3.66798348 17.19890497 -6.63671875 17.76171875 C-7.62285156 17.81972656 -8.60898437 17.87773438 -9.625 17.9375 C-10.61886719 18.00324219 -11.61273438 18.06898437 -12.63671875 18.13671875 C-13.39597656 18.17410156 -14.15523437 18.21148437 -14.9375 18.25 C-14.6075 18.58 -14.2775 18.91 -13.9375 19.25 C-12.266875 19.2190625 -12.266875 19.2190625 -10.5625 19.1875 C-6.9375 19.25 -6.9375 19.25 -3.9375 21.25 C-3.9375 22.24 -3.9375 23.23 -3.9375 24.25 C-5.13375 24.229375 -6.33 24.20875 -7.5625 24.1875 C-10.29719126 24.17297952 -12.53283062 24.36232653 -15.25 24.875 C-17.9375 25.25 -17.9375 25.25 -20.9375 23.25 C-21.4375 20.375 -21.4375 20.375 -20.9375 17.25 C-18.68339864 14.46994166 -16.90089044 13.42502819 -13.37890625 12.78515625 C-10.89567238 12.52802707 -8.43173419 12.34686346 -5.9375 12.25 C-9.1211433 10.65817835 -12.47176643 10.85087521 -15.9375 11.25 C-18.75530534 12.63885248 -18.75530534 12.63885248 -20.9375 14.25 C-21.5975 14.25 -22.2575 14.25 -22.9375 14.25 C-23.246875 15.03375 -23.55625 15.8175 -23.875 16.625 C-24.9375 19.25 -24.9375 19.25 -25.9375 21.25 C-26.76026118 27.7511621 -25.73439262 32.8827876 -21.9375 38.25 C-18.57648707 41.96977274 -14.87313939 44.26287212 -9.9375 45.25 C-3.3259717 45.04011021 1.70905432 43.47924399 6.5390625 38.828125 C10.68796834 34.1211792 12.63742922 29.83897412 12.43359375 23.49609375 C11.37375233 17.08126412 8.21053573 11.75205307 3.125 7.75 C-2.8734292 3.78835087 -8.78748846 2.13853987 -15.9375 3.25 C-23.28005116 5.79585479 -28.16854362 9.2224439 -31.93359375 16.05859375 C-34.63147017 22.01790301 -34.45613885 28.1472898 -32.19140625 34.265625 C-31.92199219 34.85859375 -31.65257813 35.4515625 -31.375 36.0625 C-29.90670529 39.31828392 -29.34787764 40.7712281 -29.9375 44.25 C-32.24609375 46.171875 -32.24609375 46.171875 -35.375 48 C-43.31039694 52.97723122 -50.34678839 57.92877987 -52.9375 67.25 C-42.01983014 65.06646603 -35.18544043 52.64887075 -28.9375 44.25 C-25.85240251 45.44976014 -22.87852888 46.73204961 -19.9375 48.25 C-16.98819548 49.74699548 -14.03798544 51.08731796 -10.9375 52.25 C-11.2675 53.24 -11.5975 54.23 -11.9375 55.25 C-16.9605345 55.75230345 -19.93284466 54.50841228 -24.203125 52.125 C-25.91133814 51.09985732 -25.91133814 51.09985732 -27.9375 51.25 C-29.18299452 52.68067595 -30.35856422 54.17250342 -31.5 55.6875 C-42.39159163 69.63429219 -42.39159163 69.63429219 -48.9375 72.25 C-52.07565009 72.5702194 -54.07432735 72.76790359 -56.8125 71.125 C-58.58330745 68.17365426 -58.50822835 66.67437009 -57.9375 63.25 C-53.52651841 54.22753765 -45.50768054 47.26669105 -36.9375 42.25 C-36.2775 42.25 -35.6175 42.25 -34.9375 42.25 C-35.22625 41.404375 -35.515 40.55875 -35.8125 39.6875 C-39.04813348 29.80084213 -40.71081511 21.93204341 -35.9375 12.25 C-27.83655745 0.3343279 -13.97708546 -6.07181736 0 0 Z " fill="#000000" transform="translate(70.9375,18.75)"/>
</svg>
