<?xml version="1.0" encoding="UTF-8"?>
<svg version="1.1" xmlns="http://www.w3.org/2000/svg" width="100" height="100">
<path d="M0 0 C1.26496307 -0.0159874 2.52992615 -0.03197479 3.83322144 -0.04844666 C5.21579587 -0.05482339 6.59837515 -0.06021612 7.98095703 -0.06469727 C9.39958796 -0.07366501 10.81821793 -0.08278689 12.23684692 -0.09205627 C15.21098121 -0.10854505 18.18500295 -0.1162461 21.15917969 -0.11914062 C24.96485965 -0.12452334 28.76947757 -0.162197 32.57485771 -0.20788479 C35.50546095 -0.23767188 38.435809 -0.24486452 41.36655045 -0.24586678 C42.76917509 -0.25006621 44.17180068 -0.26248972 45.57427597 -0.28338432 C47.53891856 -0.31032335 49.50394518 -0.30236217 51.46875 -0.29296875 C52.58555145 -0.2980394 53.70235291 -0.30311005 54.85299683 -0.30833435 C58.81836754 0.50130354 60.30778308 2.24847071 62.86376953 5.30639648 C63.99071823 7.56029387 64.00139939 8.80849935 64.02490234 11.30957031 C64.03450989 12.13415237 64.04411743 12.95873444 64.05401611 13.80830383 C64.05826599 14.70099472 64.06251587 15.59368561 64.06689453 16.51342773 C64.0725946 17.43097336 64.07829468 18.34851898 64.08416748 19.29386902 C64.09362386 21.23821863 64.10015399 23.18258432 64.10400391 25.12695312 C64.11369662 28.09655903 64.14470857 31.06546911 64.17626953 34.03491211 C64.18280087 35.92357987 64.18805083 37.81225259 64.19189453 39.70092773 C64.20424133 40.58754593 64.21658813 41.47416412 64.22930908 42.38764954 C64.21216762 47.15145235 64.10235377 50.53437242 60.86376953 54.30639648 C56.54272018 57.93351147 52.43195843 57.70258432 47.06298828 57.59936523 C46.22661331 57.59512039 45.39023834 57.59087555 44.52851868 57.58650208 C41.86910188 57.56977013 39.21045553 57.53212875 36.55126953 57.49389648 C34.7433378 57.47884253 32.93539414 57.46515536 31.12744141 57.45288086 C26.70592264 57.41988464 22.28497652 57.36814076 17.86376953 57.30639648 C17.86376953 55.98639648 17.86376953 54.66639648 17.86376953 53.30639648 C18.96366211 53.29705078 20.06355469 53.28770508 21.19677734 53.27807617 C25.28231119 53.23816712 29.36709272 53.17240644 33.45214844 53.09887695 C35.21930264 53.07067251 36.98658287 53.0494553 38.75390625 53.03540039 C41.29639175 53.01396291 43.83736291 52.96731145 46.37939453 52.91577148 C47.56242157 52.91392853 47.56242157 52.91392853 48.76934814 52.91204834 C52.1031244 52.82326976 54.4761331 52.53738039 57.36303711 50.81713867 C59.58965307 47.09198518 59.41831594 43.79116863 59.35986328 39.52514648 C59.36204613 38.24939758 59.36204613 38.24939758 59.36427307 36.94787598 C59.36261554 35.15247161 59.3510705 33.35705282 59.33032227 31.56176758 C59.30136945 28.81587279 59.30971529 26.07190949 59.32275391 23.32592773 C59.31651611 21.57982461 59.30812484 19.83372758 59.29736328 18.08764648 C59.30029892 17.26776245 59.30323456 16.44787842 59.30625916 15.60314941 C59.23310637 11.17622975 59.0893699 8.43874539 55.86376953 5.30639648 C53.16920439 4.69880213 53.16920439 4.69880213 50.06298828 4.78881836 C48.87165283 4.77620972 47.68031738 4.76360107 46.45288086 4.75061035 C45.16534912 4.75870728 43.87781738 4.7668042 42.55126953 4.77514648 C41.21752642 4.77245174 39.88378522 4.76856947 38.55004883 4.7635498 C35.75566898 4.7576537 32.96180081 4.76622024 30.16748047 4.78491211 C26.58584367 4.80770305 23.00540568 4.79458038 19.42381287 4.77062225 C16.66995208 4.75616653 13.91637545 4.76076893 11.1625061 4.77113342 C9.19988222 4.77509878 7.23724728 4.76295252 5.2746582 4.75061035 C4.08332275 4.76321899 2.8919873 4.77582764 1.66455078 4.78881836 C0.61436768 4.79200073 -0.43581543 4.79518311 -1.51782227 4.79846191 C-4.23634913 5.07799116 -4.23634913 5.07799116 -5.973526 7.09057617 C-7.81470361 10.59939449 -7.58368456 14.21664215 -7.56982422 18.08764648 C-7.57506607 18.93814575 -7.58030792 19.78864502 -7.58570862 20.66491699 C-7.59212238 22.46027537 -7.59080016 24.2556758 -7.58227539 26.05102539 C-7.5737594 28.79706592 -7.60254354 31.54102985 -7.63427734 34.28686523 C-7.63588935 36.03295836 -7.63531184 37.77905517 -7.63232422 39.52514648 C-7.6435582 40.34503052 -7.65479218 41.16491455 -7.66636658 42.00964355 C-7.61196815 46.7393865 -7.61196815 46.7393865 -5.27709961 50.77709961 C-2.97927331 52.41851641 -0.80999023 53.41514323 1.86376953 54.30639648 C1.55483021 55.93207719 1.24150004 57.55692396 0.92626953 59.18139648 C0.75224609 60.08631836 0.57822266 60.99124023 0.39892578 61.92358398 C-0.13623047 64.30639648 -0.13623047 64.30639648 -1.13623047 66.30639648 C2.61229452 65.45445899 4.53915318 64.65733308 7.17626953 61.80639648 C10.03522218 55.87671692 9.91002837 49.79419898 9.86376953 43.30639648 C8.75001953 43.20327148 7.63626953 43.10014648 6.48876953 42.99389648 C4.69439453 42.65358398 4.69439453 42.65358398 2.86376953 42.30639648 C0.86376953 39.30639648 0.86376953 39.30639648 1.05126953 36.24389648 C1.86376953 33.30639648 1.86376953 33.30639648 4.86376953 31.30639648 C7.92626953 31.43139648 7.92626953 31.43139648 10.86376953 32.30639648 C12.73167891 34.85354563 12.86376953 36.11508648 12.86376953 39.30639648 C25.40376953 39.30639648 37.94376953 39.30639648 50.86376953 39.30639648 C50.86376953 36.00639648 50.86376953 32.70639648 50.86376953 29.30639648 C34.36376953 29.30639648 17.86376953 29.30639648 0.86376953 29.30639648 C0.86376953 23.36639648 0.86376953 17.42639648 0.86376953 11.30639648 C18.35376953 11.30639648 35.84376953 11.30639648 53.86376953 11.30639648 C53.86376953 12.62639648 53.86376953 13.94639648 53.86376953 15.30639648 C37.69376953 15.30639648 21.52376953 15.30639648 4.86376953 15.30639648 C4.86376953 18.60639648 4.86376953 21.90639648 4.86376953 25.30639648 C7.08244751 25.29854126 7.08244751 25.29854126 9.34594727 25.29052734 C14.81192423 25.2724841 20.27789854 25.26096696 25.74389648 25.25146484 C28.11369265 25.24642307 30.48348568 25.23958983 32.85327148 25.23095703 C36.25130992 25.21888459 39.64930738 25.21316678 43.04736328 25.20874023 C44.11401718 25.20357895 45.18067108 25.19841766 46.27964783 25.19309998 C47.7510598 25.19298668 47.7510598 25.19298668 49.25219727 25.19287109 C50.12045639 25.19065048 50.98871552 25.18842987 51.88328552 25.18614197 C53.86376953 25.30639648 53.86376953 25.30639648 54.86376953 26.30639648 C54.96358167 28.98371028 55.00256829 31.62943823 54.98876953 34.30639648 C54.99263672 35.05663086 54.99650391 35.80686523 55.00048828 36.57983398 C54.99038006 42.17978595 54.99038006 42.17978595 53.86376953 43.30639648 C50.90671633 43.39507947 47.97311897 43.42159944 45.01611328 43.40405273 C43.68647301 43.40193031 43.68647301 43.40193031 42.32997131 43.39976501 C39.48703699 43.39414864 36.64418022 43.3815934 33.80126953 43.36889648 C31.87874462 43.36388359 29.95621849 43.35932032 28.03369141 43.35522461 C23.31035404 43.34417389 18.58707495 43.32689831 13.86376953 43.30639648 C14.19376953 44.29639648 14.52376953 45.28639648 14.86376953 46.30639648 C15.44975683 52.65083594 15.25591857 58.75993525 11.86376953 64.30639648 C5.80717267 71.03594855 -0.39017742 72.58232238 -9.13623047 73.30639648 C-9.74951172 71.45092773 -9.74951172 71.45092773 -10.13623047 69.30639648 C-8.81957383 67.62652422 -7.4836002 65.96173644 -6.13623047 64.30639648 C-5.2521602 61.98752364 -4.70675229 59.73111422 -4.13623047 57.30639648 C-5.08498047 56.72889648 -6.03373047 56.15139648 -7.01123047 55.55639648 C-10.06311169 53.35904201 -10.84529574 52.64231985 -12.13623047 49.30639648 C-12.39692688 47.26454163 -12.39692688 47.26454163 -12.41088867 45.07617188 C-12.42518669 43.83952538 -12.42518669 43.83952538 -12.43977356 42.57789612 C-12.43886215 41.6955278 -12.43795074 40.81315948 -12.43701172 39.90405273 C-12.44129684 38.98933701 -12.44558197 38.07462128 -12.44999695 37.13218689 C-12.4557337 35.19978665 -12.45624533 33.26736482 -12.4519043 31.33496094 C-12.44874557 28.38300631 -12.47220726 25.43205529 -12.49755859 22.48022461 C-12.49983182 20.60066858 -12.50053498 18.72110986 -12.49951172 16.84155273 C-12.50872147 15.96120865 -12.51793121 15.08086456 -12.52742004 14.17384338 C-12.49154718 9.40762503 -12.28473348 6.14379325 -9.13623047 2.30639648 C-5.6265987 -0.03335803 -4.15545815 0.03964566 0 0 Z M5.86376953 36.30639648 C6.19376953 37.29639648 6.52376953 38.28639648 6.86376953 39.30639648 C7.52376953 39.30639648 8.18376953 39.30639648 8.86376953 39.30639648 C8.53376953 38.31639648 8.20376953 37.32639648 7.86376953 36.30639648 C7.20376953 36.30639648 6.54376953 36.30639648 5.86376953 36.30639648 Z " fill="#000000" transform="translate(24.13623046875,16.693603515625)"/>
</svg>
