<?xml version="1.0" encoding="UTF-8"?>
<svg version="1.1" xmlns="http://www.w3.org/2000/svg" width="100" height="100">
<path d="M0 0 C8.64822802 6.87119486 15.44311132 18.01837448 17 29 C18.40895106 46.55709566 15.56638733 59.95954698 4.4140625 73.99609375 C-3.81286908 83.00558711 -15.56118495 88.6401856 -27.6484375 89.3125 C-44.13318085 89.87527929 -57.29779856 86.1831071 -69.75 74.8125 C-80.88341536 62.87619411 -83.80272194 49.59143924 -83.34375 33.85546875 C-82.66010765 21.18611097 -76.33281061 9.26446012 -67.0703125 0.625 C-46.64754218 -15.40494803 -20.73790664 -15.44661826 0 0 Z M-68.14453125 9.66015625 C-76.77938771 20.54916471 -79.3345157 33.42797538 -78 47 C-75.54460573 59.10955811 -68.71305901 69.47209093 -58.68359375 76.66015625 C-47.22850864 83.95627462 -34.9469319 86.03538375 -21.62109375 83.30859375 C-8.73744793 79.37603775 1.14515048 71.29160329 7.7109375 59.58203125 C13.13249143 48.72249445 13.92294066 36.18608801 10.375 24.5625 C5.47599143 11.90387296 -2.79739831 3.07722336 -14.97265625 -2.7734375 C-34.42313146 -10.65401713 -53.85917098 -5.19547789 -68.14453125 9.66015625 Z " fill="#000000" transform="translate(83,11)"/>
<path d="M0 0 C1.60160199 3.20320397 1.48770192 6.52426522 1 10 C-0.625 12.5 -0.625 12.5 -3 14 C-7.77002477 14.45968116 -10.4986901 13.52346883 -14.625 11.1875 C-24.82080516 5.94075355 -33.68843119 4.74827747 -45.0625 4.6875 C-46.57021973 4.67904053 -46.57021973 4.67904053 -48.10839844 4.67041016 C-54.16998204 4.7288279 -59.79095253 5.36423222 -65.70825195 6.69555664 C-68 7 -68 7 -71.125 5.75 C-73.77336235 3.27819514 -73.97166365 2.30603254 -74.3125 -1.375 C-74 -5 -74 -5 -72.38671875 -7.1171875 C-54.6878765 -21.07928564 -16.43529886 -10.59163704 0 0 Z M-68 -4 C-68.33 -2.68 -68.66 -1.36 -69 0 C-64.61683198 1.20683785 -61.14541589 0.7168508 -56.6875 0 C-38.70120574 -2.52388323 -21.12945221 0.66189335 -5 9 C-4.67 7.35 -4.34 5.7 -4 4 C-24.67108477 -7.16116264 -45.20753207 -9.50163019 -68 -4 Z " fill="#000000" transform="translate(88,32)"/>
<path d="M0 0 C1.39935013 2.79870027 1.25265405 4.90498792 1 8 C-0.125 9.875 -0.125 9.875 -2 11 C-6.4911287 11.3464405 -9.30121601 10.65540922 -13.3125 8.6875 C-25.48215229 3.34620623 -38.85286602 1.98095168 -51.94921875 3.765625 C-54.24159237 4.02761056 -56.50621476 4.17548351 -58.8125 4.25 C-59.90498047 4.28867187 -59.90498047 4.28867187 -61.01953125 4.328125 C-63.59191602 3.90193107 -64.44540644 3.0599568 -66 1 C-66.375 -2 -66.375 -2 -66 -5 C-54.1077811 -20.03347397 -13.17318661 -8.4753958 0 0 Z M-61 -3 C-61 -2.34 -61 -1.68 -61 -1 C-60.30777344 -1.0721875 -59.61554687 -1.144375 -58.90234375 -1.21875 C-39.53684107 -3.05579373 -22.85460642 -1.73495792 -5 6 C-5 5.01 -5 4.02 -5 3 C-17.20177003 -2.65393373 -28.44460824 -5.24096378 -41.8125 -5.3125 C-42.68382568 -5.31805908 -43.55515137 -5.32361816 -44.45288086 -5.3293457 C-50.23112384 -5.26503918 -55.39872964 -4.42155598 -61 -3 Z " fill="#000000" transform="translate(82,51)"/>
<path d="M0 0 C1.48828125 1.1484375 1.48828125 1.1484375 3.48828125 3.1484375 C3.8184379 6.25191004 3.99359419 8.30624926 2.36328125 11.0234375 C-0.56430274 12.77998789 -2.10136858 12.64448843 -5.51171875 12.1484375 C-8.07141848 10.99078436 -10.53732657 9.6947917 -13.02734375 8.39453125 C-24.05159822 2.86507028 -38.07900866 4.74964415 -49.9375 6.22265625 C-52.51171875 6.1484375 -52.51171875 6.1484375 -54.34375 4.85546875 C-56.14073344 2.22910833 -55.8983833 0.24175393 -55.51171875 -2.8515625 C-45.11159057 -16.00887844 -11.53023523 -7.75266352 0 0 Z M-50.51171875 -0.8515625 C-50.51171875 -0.1915625 -50.51171875 0.4684375 -50.51171875 1.1484375 C-48.58585937 0.91060547 -48.58585937 0.91060547 -46.62109375 0.66796875 C-32.81762296 -0.85106058 -18.10554937 -1.61887244 -5.7890625 5.78515625 C-3.6680831 7.31964743 -3.6680831 7.31964743 -1.51171875 7.1484375 C-1.51171875 6.4884375 -1.51171875 5.8284375 -1.51171875 5.1484375 C-3.33956477 4.17967911 -5.17432816 3.22396877 -7.01171875 2.2734375 C-8.03265625 1.73976563 -9.05359375 1.20609375 -10.10546875 0.65625 C-17.29273305 -2.52526837 -23.69764115 -3.17240708 -31.44921875 -3.1015625 C-32.29162109 -3.10929687 -33.13402344 -3.11703125 -34.00195312 -3.125 C-39.78115355 -3.10720416 -44.91064484 -2.27585173 -50.51171875 -0.8515625 Z " fill="#000000" transform="translate(73.51171875,65.8515625)"/>
</svg>
