<?xml version="1.0" encoding="UTF-8"?>
<svg version="1.1" xmlns="http://www.w3.org/2000/svg" width="100" height="100">
<path d="M0 0 C2 1.375 2 1.375 3 3 C3 3.66 3 4.32 3 5 C3.886875 4.79375 4.77375 4.5875 5.6875 4.375 C9.31371746 3.96448482 10.85729733 4.21630389 14 6 C16.85213914 8.95048877 17 9.71100137 17 14 C17.928125 13.938125 18.85625 13.87625 19.8125 13.8125 C23 14 23 14 24.67396545 15.24217224 C26.32225325 17.42718775 26.38479458 18.59458022 26.40405273 21.31274414 C26.41673691 22.18117447 26.42942108 23.0496048 26.44248962 23.9443512 C26.43955399 24.88181686 26.43661835 25.81928253 26.43359375 26.78515625 C26.4388356 27.75601669 26.44407745 28.72687714 26.44947815 29.72715759 C26.45590643 31.7857874 26.45455096 33.8444539 26.44604492 35.90307617 C26.4375972 39.02656261 26.466184 42.14818162 26.49804688 45.27148438 C26.49966074 47.27604112 26.49907781 49.28060107 26.49609375 51.28515625 C26.50732773 52.2084523 26.51856171 53.13174835 26.53013611 54.08302307 C26.44790591 61.88880032 24.30095782 68.219855 20.25 74.875 C14.21792963 80.57195534 7.82783143 81.69596939 -0.25 81.5625 C-1.17804443 81.55299316 -2.10608887 81.54348633 -3.06225586 81.53369141 C-10.5979079 81.30579738 -16.39356603 79.68843179 -23 76 C-24.97468776 74.97052945 -26.95398783 73.949864 -28.9375 72.9375 C-29.91332031 72.43347656 -30.88914062 71.92945312 -31.89453125 71.41015625 C-36.25558625 69.42985329 -40.74613788 68.2221955 -45.3828125 67.0546875 C-48 66 -48 66 -49.37109375 64.1015625 C-50.37580404 60.74420761 -49.89843205 58.35414632 -49 55 C-46.30198272 52.24812031 -44.68679958 51.10029994 -40.84375 50.5390625 C-39.18859375 50.58160156 -39.18859375 50.58160156 -37.5 50.625 C-36.3965625 50.63789062 -35.293125 50.65078125 -34.15625 50.6640625 C-31.05412391 50.99423929 -28.84717027 51.78953003 -26 53 C-25.9906543 51.87505127 -25.98130859 50.75010254 -25.97167969 49.59106445 C-25.93172745 45.40674631 -25.86595448 41.22315937 -25.79248047 37.03930664 C-25.76430111 35.23048311 -25.74307145 33.42153714 -25.72900391 31.61254883 C-25.70753186 29.00799006 -25.66086189 26.40489866 -25.609375 23.80078125 C-25.60814636 22.99538406 -25.60691772 22.18998688 -25.60565186 21.36018372 C-25.50461849 17.46402645 -25.24885588 15.41148421 -23.18847656 12.00463867 C-20.23009091 9.29476533 -17.94462984 9.1460974 -14 9 C-13.34 9.33 -12.68 9.66 -12 10 C-12.0825 9.0925 -12.165 8.185 -12.25 7.25 C-12 4 -12 4 -10.5 1.625 C-6.75900771 -0.80664499 -4.42573582 -0.49174842 0 0 Z M-6 4 C-8.94192784 6.94192784 -8.35537397 10.12190973 -8.4140625 14.0703125 C-8.43342865 14.86654022 -8.4527948 15.66276794 -8.4727478 16.48312378 C-8.53260474 19.03030634 -8.57895279 21.57753395 -8.625 24.125 C-8.66317421 25.8502803 -8.70222561 27.57554143 -8.7421875 29.30078125 C-8.83831109 33.53369876 -8.92231908 37.76670549 -9 42 C-9.99 42.33 -10.98 42.66 -12 43 C-11.97643433 41.79670044 -11.97643433 41.79670044 -11.95239258 40.5690918 C-11.89011417 36.94196596 -11.85103136 33.31495251 -11.8125 29.6875 C-11.78736328 28.42486328 -11.76222656 27.16222656 -11.73632812 25.86132812 C-11.72182617 24.04858398 -11.72182617 24.04858398 -11.70703125 22.19921875 C-11.68346558 20.52605591 -11.68346558 20.52605591 -11.65942383 18.8190918 C-11.76716376 15.99284876 -11.76716376 15.99284876 -13.3894043 14.10473633 C-14.95907919 12.78551182 -14.95907919 12.78551182 -17.0625 13.125 C-19.3511243 13.95252093 -19.3511243 13.95252093 -21 17 C-21.28828665 19.0382954 -21.28828665 19.0382954 -21.22705078 21.2878418 C-21.22689972 22.14850754 -21.22674866 23.00917328 -21.22659302 23.8959198 C-21.21627045 24.82100845 -21.20594788 25.74609711 -21.1953125 26.69921875 C-21.19106766 28.12449638 -21.19106766 28.12449638 -21.18673706 29.5785675 C-21.17553715 32.61500615 -21.15043288 35.65115042 -21.125 38.6875 C-21.11496996 40.74543845 -21.10584415 42.80338152 -21.09765625 44.86132812 C-21.07559842 49.9076656 -21.04106982 54.95378288 -21 60 C-21.80171631 59.64558838 -22.60343262 59.29117676 -23.42944336 58.92602539 C-24.49300049 58.46703857 -25.55655762 58.00805176 -26.65234375 57.53515625 C-28.22616821 56.84885132 -28.22616821 56.84885132 -29.83178711 56.14868164 C-34.10278332 54.60016988 -38.54830357 53.77514994 -43 55 C-44.79312775 56.94331502 -44.79312775 56.94331502 -46 59 C-45.37396033 61.00631462 -45.37396033 61.00631462 -44 63 C-41.62149064 64.00968795 -41.62149064 64.00968795 -38.6875 64.625 C-31.07864976 66.72105505 -24.27254367 70.0805533 -17.2487793 73.64697266 C-16.38293213 74.07800293 -15.51708496 74.5090332 -14.625 74.953125 C-13.85414062 75.34661133 -13.08328125 75.74009766 -12.2890625 76.14550781 C-9.71879987 77.10497018 -7.72157218 77.15747613 -5 77 C-4.67 74.36 -4.34 71.72 -4 69 C-1.03 68.505 -1.03 68.505 2 68 C0.59889827 65.44504979 -0.85604233 63.1621484 -2.79296875 60.98046875 C-7.89607089 55.16435833 -7.89607089 55.16435833 -8.23046875 51.41796875 C-7.96939598 49.20755259 -7.60230805 47.14097736 -7 45 C-6.443125 44.93941406 -5.88625 44.87882812 -5.3125 44.81640625 C-0.20206543 44.25529435 4.89999553 43.64909148 10 43 C10 43.99 10 44.98 10 46 C7.9772958 47.43274881 6.5476271 48.05509327 4.05859375 47.8046875 C3.00865234 47.62292969 3.00865234 47.62292969 1.9375 47.4375 C-1.87182611 46.56929955 -1.87182611 46.56929955 -4 48.4375 C-4.33 48.953125 -4.66 49.46875 -5 50 C-3.49087042 54.98012761 -0.44338151 58.24259942 3 62 C7.97247163 59.75689127 10.78136835 57.03074945 13 52 C13.8513358 46.03841098 13.8433346 40.13714312 13.8125 34.125 C13.82668388 31.70268167 13.84903743 29.28059 13.87467957 26.85836792 C13.88769541 25.35819388 13.89247277 23.85792077 13.88813782 22.35769653 C13.89255135 17.2148973 13.89255135 17.2148973 15 15 C14.34 15 13.68 15 13 15 C12.855625 14.195625 12.71125 13.39125 12.5625 12.5625 C12.25864751 10.07896294 12.25864751 10.07896294 11 9 C8.54207971 8.66656449 8.54207971 8.66656449 6 9 C3.67108788 12.49336818 3.76448857 13.86007865 3.8046875 17.98046875 C3.81435547 19.72553711 3.81435547 19.72553711 3.82421875 21.50585938 C3.84097656 22.72080078 3.85773437 23.93574219 3.875 25.1875 C3.88402344 26.41404297 3.89304688 27.64058594 3.90234375 28.90429688 C3.92593983 31.93639295 3.95886159 34.96809938 4 38 C3.01 37.67 2.02 37.34 1 37 C0.970271 35.6070874 0.970271 35.6070874 0.93994141 34.18603516 C0.86191387 30.7454948 0.77522538 27.30540109 0.68261719 23.86523438 C0.64430002 22.37541111 0.60945192 20.88549446 0.578125 19.39550781 C0.53253271 17.25551952 0.47453126 15.11617564 0.4140625 12.9765625 C0.3826416 11.68830566 0.3512207 10.40004883 0.31884766 9.07275391 C0.31541732 5.89518495 0.31541732 5.89518495 -2 4 C-3.32 4 -4.64 4 -6 4 Z M18 18 C16.30374191 19.69625809 16.89014757 21.80487638 16.88813782 24.06628418 C16.89024765 24.7765979 16.89235748 25.48691162 16.89453125 26.21875 C16.88105848 27.72397252 16.86603232 29.22918178 16.84960938 30.734375 C16.82691233 33.10658189 16.81237976 35.47731028 16.82495117 37.84960938 C16.8614074 47.22181632 16.78442584 54.80319589 10 62 C8.6696875 63.4540625 8.6696875 63.4540625 7.3125 64.9375 C5 67 5 67 2 69 C2.33 69.33 2.66 69.66 3 70 C3.36760731 72.32817964 3.70241581 74.6618385 4 77 C8.75364364 76.53395651 12.20163033 75.97710055 16 73 C21.66488104 65.87843527 22.30012574 59.08698414 22.1953125 50.34765625 C22.19106766 48.99745644 22.19106766 48.99745644 22.18673706 47.61997986 C22.17561278 44.7673468 22.15052283 41.91503689 22.125 39.0625 C22.11496017 37.11914518 22.10583608 35.17578541 22.09765625 33.23242188 C22.07569888 28.48815824 22.04122301 23.74413376 22 19 C20.05396726 18.40929986 20.05396726 18.40929986 18 18 Z M-1 72 C0 75 0 75 0 75 Z " fill="#000000" transform="translate(54,6)"/>
</svg>
