<svg xmlns="http://www.w3.org/2000/svg" width="100" height="100" viewBox="0 0 100 100" version="1.1"><path d="" stroke="none" fill="#080404" fill-rule="evenodd"/><path d="M 42.314 11.434 C 35.279 14.710, 32.290 19.410, 30.417 30.144 C 29.028 38.107, 27.762 41.472, 23.432 48.707 C 21.007 52.759, 21.757 53.593, 30.465 56.523 L 37.008 58.725 32.587 60.414 C 23.081 64.044, 14 75.670, 14 84.209 L 14 88.026 49.250 87.763 L 84.500 87.500 84.261 83.589 C 83.777 75.664, 76.429 65.320, 68.330 61.165 L 64.563 59.232 70.250 58.052 C 73.378 57.402, 76.911 56.083, 78.102 55.119 L 80.266 53.366 76.710 48.708 C 73.515 44.522, 71.883 39.813, 70.746 31.500 C 70.596 30.400, 69.804 29.500, 68.986 29.500 C 66.355 29.500, 67.336 39.141, 70.638 45.750 C 72.212 48.899, 73.640 51.789, 73.812 52.174 C 74.411 53.513, 66.422 55.079, 55.930 55.678 C 44.992 56.302, 32.380 54.461, 28.586 51.687 C 27.018 50.540, 27.087 50.097, 29.509 45.764 C 30.948 43.188, 32.954 36.953, 33.966 31.908 C 36.547 19.041, 40.741 14.075, 49.676 13.305 C 55.311 12.819, 60.234 14.968, 63.410 19.298 C 65.174 21.703, 65.254 22.226, 63.981 23.016 C 61.250 24.712, 52.971 26, 44.806 26 L 36.711 26 37.272 33.417 C 38.234 46.133, 43.004 53.418, 50.233 53.212 C 56.370 53.038, 61.385 46.763, 62.627 37.707 C 63.211 33.447, 63.081 33, 61.265 33 C 59.610 33, 59.141 33.882, 58.591 38.027 C 58.133 41.479, 57.075 43.969, 55.212 45.977 C 48.808 52.882, 43.096 48.622, 41.487 35.740 L 40.770 30 46.135 29.983 C 52.844 29.961, 64.532 27.536, 67.592 25.532 C 69.596 24.219, 69.769 23.637, 68.902 21.149 C 68.352 19.570, 66.461 16.800, 64.701 14.992 C 58.435 8.556, 51.025 7.379, 42.314 11.434 M 39.734 62.088 C 34.097 63.416, 28.934 66.381, 24.799 70.665 C 21.435 74.151, 18 80.366, 18 82.968 C 18 83.655, 28.357 84, 49 84 C 84.463 84, 82.520 84.634, 76.744 74.956 C 69.987 63.635, 55.115 58.465, 39.734 62.088" stroke="none" fill="#040404" fill-rule="evenodd"/></svg>