<?xml version="1.0" encoding="UTF-8"?>
<svg version="1.1" xmlns="http://www.w3.org/2000/svg" width="100" height="100">
<path d="M0 0 C0.69722168 0.00060425 1.39444336 0.0012085 2.11279297 0.00183105 C10.55125267 0.02162831 18.9686619 0.13076132 27.375 0.9375 C28.08994629 0.9991333 28.80489258 1.0607666 29.54150391 1.12426758 C35.83883032 1.85685097 41.32222715 4.08070682 45.75 8.625 C51.06848522 17.01184208 50.56147478 26.35763825 50.56030273 35.98364258 C50.5624832 37.98457947 50.58098312 39.98547674 50.59960938 41.98632812 C50.62945092 61.89064059 50.62945092 61.89064059 44.375 69.1875 C33.17748426 78.56216434 14.41191519 76.39695142 0.75 76.375 C0.05277832 76.37439575 -0.64444336 76.3737915 -1.36279297 76.37316895 C-9.80125267 76.35337169 -18.2186619 76.24423868 -26.625 75.4375 C-27.69741943 75.34505005 -27.69741943 75.34505005 -28.79150391 75.25073242 C-35.08883032 74.51814903 -40.57222715 72.29429318 -45 67.75 C-50.31848522 59.36315792 -49.81147478 50.01736175 -49.81030273 40.39135742 C-49.8124832 38.39042053 -49.83098312 36.38952326 -49.84960938 34.38867188 C-49.87945092 14.48435941 -49.87945092 14.48435941 -43.625 7.1875 C-32.42748426 -2.18716434 -13.66191519 -0.02195142 0 0 Z M-24.375 5.9375 C-25.22578125 5.99905273 -26.0765625 6.06060547 -26.953125 6.12402344 C-32.95360001 6.71092055 -37.15974243 8.30581379 -41.21484375 13.04589844 C-45.8487237 20.08336294 -44.93117716 30.11671488 -44.875 38.1875 C-44.88273437 39.29867187 -44.89046875 40.40984375 -44.8984375 41.5546875 C-45.06722539 53.80193422 -45.06722539 53.80193422 -40.25 64.6875 C-35.37417908 69.33113897 -30.97314923 69.72818527 -24.5 70.3125 C-23.12521484 70.4377002 -23.12521484 70.4377002 -21.72265625 70.56542969 C-6.14400138 71.84279597 9.54999734 71.71513694 25.125 70.4375 C26.40117187 70.3451709 26.40117187 70.3451709 27.703125 70.25097656 C33.70360001 69.66407945 37.90974243 68.06918621 41.96484375 63.32910156 C46.5987237 56.29163706 45.68117716 46.25828512 45.625 38.1875 C45.63273437 37.07632813 45.64046875 35.96515625 45.6484375 34.8203125 C45.81722539 22.57306578 45.81722539 22.57306578 41 11.6875 C36.12417908 7.04386103 31.72314923 6.64681473 25.25 6.0625 C24.33347656 5.9790332 23.41695313 5.89556641 22.47265625 5.80957031 C6.89400138 4.53220403 -8.79999734 4.65986306 -24.375 5.9375 Z " fill="#000000" transform="translate(49.625,11.8125)"/>
<path d="M0 0 C6.25257748 0.74546788 11.35185947 4.22306721 16.75 7.25 C17.81605469 7.82363281 18.88210937 8.39726563 19.98046875 8.98828125 C20.99238281 9.55417969 22.00429688 10.12007812 23.046875 10.703125 C23.97338867 11.21520508 24.89990234 11.72728516 25.85449219 12.25488281 C28 14 28 14 28.80957031 16.70605469 C28.87241211 17.46305664 28.93525391 18.22005859 29 19 C28.02389771 19.57500244 28.02389771 19.57500244 27.02807617 20.16162109 C24.0806961 21.89853114 21.13409012 23.6367502 18.1875 25.375 C17.16333984 25.97828125 16.13917969 26.5815625 15.08398438 27.203125 C14.10107422 27.78320312 13.11816406 28.36328125 12.10546875 28.9609375 C11.19949951 29.49509277 10.29353027 30.02924805 9.36010742 30.57958984 C7.54414072 31.67251363 5.76351828 32.82432115 4 34 C1.3125 33.625 1.3125 33.625 -1 33 C-1.02465392 28.46102295 -1.04283789 23.92208457 -1.05493164 19.38305664 C-1.0599714 17.83780234 -1.0668032 16.29255284 -1.07543945 14.74731445 C-1.08752076 12.53074971 -1.09323173 10.31424782 -1.09765625 8.09765625 C-1.10281754 7.4028566 -1.10797882 6.70805695 -1.11329651 5.99220276 C-1.11349277 4.3277067 -1.06189129 2.66334501 -1 1 C-0.67 0.67 -0.34 0.34 0 0 Z M4 7 C4 13.6 4 20.2 4 27 C5.711875 26.071875 7.42375 25.14375 9.1875 24.1875 C10.15042969 23.66542969 11.11335938 23.14335938 12.10546875 22.60546875 C14.77398357 21.12536134 17.39374227 19.58662491 20 18 C18.60474435 13.81423305 15.67670051 12.81369624 12 10.8125 C11.34515625 10.44447266 10.6903125 10.07644531 10.015625 9.69726562 C7.16903219 7.82088512 7.16903219 7.82088512 4 7 Z " fill="#000000" transform="translate(38,33)"/>
</svg>
